<svg width="186" height="186" viewBox="0 0 186 186" fill="none" xmlns="http://www.w3.org/2000/svg">
<g filter="url(#filter0_d_2_2)">
<rect x="34" y="28" width="90" height="90" rx="15" fill="white" fill-opacity="0.5" shape-rendering="crispEdges"/>
<rect x="34.5" y="28.5" width="89" height="89" rx="14.5" stroke="url(#paint0_linear_2_2)" shape-rendering="crispEdges"/>
</g>
<path d="M102.066 61.9794L75.5506 60.4481L55.954 61.9794V92.1477C55.954 92.6735 56.3718 93.0996 56.8872 93.0996H101.133C101.648 93.0996 102.066 92.6735 102.066 92.1479V61.9794H102.066Z" fill="#F6F9F9"/>
<path d="M56.8872 93.0998H101.133C101.648 93.0998 102.066 92.6736 102.066 92.148V61.9796L98.1153 61.7739V77.5517C98.1153 79.3973 96.5147 80.8172 94.7233 80.5582C94.3459 80.5036 93.9593 80.478 93.5659 80.4837C89.5703 80.541 86.3049 83.8754 86.2527 87.9513C86.2524 87.9799 86.2522 88.0084 86.2521 88.037C86.2487 89.7185 84.9242 91.0848 83.2758 91.0848H55.954V92.1479C55.954 92.6735 56.3718 93.0998 56.8872 93.0998Z" fill="#E7ECF1"/>
<path d="M97.6587 80.6921V83.3962C97.6587 83.5008 97.5756 83.5855 97.4731 83.5855H93.7088C93.6063 83.5855 93.5232 83.5008 93.5232 83.3962V80.6921C93.5232 80.5875 93.6063 80.5028 93.7088 80.5028H97.4731C97.5755 80.5027 97.6587 80.5875 97.6587 80.6921ZM97.6587 76.1896C97.6587 76.0851 97.5756 76.0004 97.4731 76.0004H93.7088C93.6063 76.0004 93.5232 76.0851 93.5232 76.1896V78.8938C93.5232 78.9984 93.6063 79.0831 93.7088 79.0831H97.4731C97.5756 79.0831 97.6587 78.9984 97.6587 78.8938V76.1896ZM97.6587 71.6872C97.6587 71.5826 97.5756 71.4979 97.4731 71.4979H93.7088C93.6063 71.4979 93.5232 71.5827 93.5232 71.6872V74.3914C93.5232 74.4959 93.6063 74.5806 93.7088 74.5806H97.4731C97.5756 74.5806 97.6587 74.4959 97.6587 74.3914V71.6872ZM97.6587 67.1848C97.6587 67.0803 97.5756 66.9956 97.4731 66.9956H93.7088C93.6063 66.9956 93.5232 67.0804 93.5232 67.1848V69.889C93.5232 69.9936 93.6063 70.0783 93.7088 70.0783H97.4731C97.5756 70.0783 97.6587 69.9936 97.6587 69.889V67.1848Z" fill="#DA4A54"/>
<path d="M93.7088 83.5853H97.4731C97.5756 83.5853 97.6587 83.5006 97.6587 83.3961V80.6919C97.6587 80.5873 97.5756 80.5026 97.4731 80.5026H95.8452C95.4895 80.5912 95.1106 80.6139 94.7228 80.5578C94.5559 80.5336 94.3872 80.5152 94.2169 80.5026H93.7088C93.6064 80.5026 93.5232 80.5873 93.5232 80.6919V83.3961C93.5233 83.5005 93.6064 83.5853 93.7088 83.5853Z" fill="#D82E3D"/>
<path d="M86.6046 74.3915C86.6046 74.496 86.5215 74.5807 86.419 74.5807H82.6547C82.5522 74.5807 82.4692 74.496 82.4692 74.3915V71.6873C82.4692 71.5827 82.5522 71.498 82.6547 71.498H86.419C86.5215 71.498 86.6046 71.5828 86.6046 71.6873V74.3915ZM86.6046 67.1849C86.6046 67.0804 86.5215 66.9957 86.419 66.9957H82.6547C82.5522 66.9957 82.4692 67.0805 82.4692 67.1849V69.8891C82.4692 69.9937 82.5522 70.0784 82.6547 70.0784H86.419C86.5215 70.0784 86.6046 69.9937 86.6046 69.8891V67.1849ZM86.4191 80.5028H82.6548C82.5523 80.5028 82.4693 80.5875 82.4693 80.6921V83.3962C82.4693 83.5008 82.5523 83.5855 82.6548 83.5855H86.4191C86.5216 83.5855 86.6047 83.5008 86.6047 83.3962V80.6922C86.6046 80.5876 86.5216 80.5028 86.4191 80.5028V80.5028ZM66.0552 70.0784H69.8378C69.9403 70.0784 70.0233 69.9937 70.0233 69.8891V67.1849C70.0233 67.0804 69.9403 66.9957 69.8378 66.9957H66.0552C65.9527 66.9957 65.8696 67.0805 65.8696 67.1849V69.8891C65.8696 69.9936 65.9527 70.0784 66.0552 70.0784ZM65.8696 74.3915C65.8696 74.496 65.9527 74.5807 66.0552 74.5807H69.8378C69.9403 74.5807 70.0233 74.496 70.0233 74.3915V71.6873C70.0233 71.5827 69.9403 71.498 69.8378 71.498H66.0552C65.9527 71.498 65.8696 71.5828 65.8696 71.6873V74.3915ZM86.6046 76.1897C86.6046 76.0852 86.5215 76.0005 86.419 76.0005H82.6547C82.5522 76.0005 82.4692 76.0852 82.4692 76.1897V78.8939C82.4692 78.9985 82.5522 79.0832 82.6547 79.0832H86.419C86.5215 79.0832 86.6046 78.9985 86.6046 78.8939V76.1897ZM65.8696 78.8939C65.8696 78.9985 65.9527 79.0832 66.0552 79.0832H69.8378C69.9403 79.0832 70.0233 78.9985 70.0233 78.8939V76.1897C70.0233 76.0852 69.9403 76.0005 69.8378 76.0005H66.0552C65.9527 76.0005 65.8696 76.0852 65.8696 76.1897V78.8939ZM91.9462 80.5028H88.1819C88.0794 80.5028 87.9964 80.5875 87.9964 80.6921V83.3962C87.9964 83.5008 88.0794 83.5855 88.1819 83.5855H91.9462C92.0487 83.5855 92.1317 83.5008 92.1317 83.3962V80.6922C92.1317 80.5876 92.0487 80.5028 91.9462 80.5028V80.5028ZM92.1317 76.1897C92.1317 76.0852 92.0487 76.0005 91.9462 76.0005H88.1819C88.0794 76.0005 87.9964 76.0852 87.9964 76.1897V78.8939C87.9964 78.9985 88.0794 79.0832 88.1819 79.0832H91.9462C92.0487 79.0832 92.1317 78.9985 92.1317 78.8939V76.1897ZM92.1317 71.6873C92.1317 71.5827 92.0487 71.498 91.9462 71.498H88.1819C88.0794 71.498 87.9964 71.5828 87.9964 71.6873V74.3915C87.9964 74.496 88.0794 74.5807 88.1819 74.5807H91.9462C92.0487 74.5807 92.1317 74.496 92.1317 74.3915V71.6873ZM92.1317 67.1849C92.1317 67.0804 92.0487 66.9957 91.9462 66.9957H88.1819C88.0794 66.9957 87.9964 67.0805 87.9964 67.1849V69.8891C87.9964 69.9937 88.0794 70.0784 88.1819 70.0784H91.9462C92.0487 70.0784 92.1317 69.9937 92.1317 69.8891V67.1849ZM65.8696 87.8942C65.8696 87.9987 65.9527 88.0834 66.0552 88.0834H69.8378C69.9403 88.0834 70.0233 87.9987 70.0233 87.8942V85.1945C70.0233 85.09 69.9403 85.0053 69.8378 85.0053H66.0552C65.9527 85.0053 65.8696 85.09 65.8696 85.1945V87.8942ZM76.9421 83.3962C76.9421 83.5008 77.0253 83.5855 77.1277 83.5855H80.8919C80.9944 83.5855 81.0775 83.5008 81.0775 83.3962V80.6922C81.0775 80.5876 80.9943 80.5029 80.8919 80.5029H77.1277C77.0252 80.5029 76.9421 80.5876 76.9421 80.6922V83.3962ZM77.1278 74.5807H80.892C80.9945 74.5807 81.0776 74.496 81.0776 74.3915V71.6873C81.0776 71.5827 80.9944 71.498 80.892 71.498H77.1278C77.0253 71.498 76.9422 71.5828 76.9422 71.6873V74.3915C76.9421 74.496 77.0253 74.5807 77.1278 74.5807ZM76.9421 78.8939C76.9421 78.9985 77.0253 79.0832 77.1277 79.0832H80.8919C80.9944 79.0832 81.0775 78.9985 81.0775 78.8939V76.1897C81.0775 76.0852 80.9943 76.0005 80.8919 76.0005H77.1277C77.0252 76.0005 76.9421 76.0852 76.9421 76.1897V78.8939ZM76.9421 87.8942C76.9421 87.9987 77.0253 88.0834 77.1277 88.0834H80.8919C80.9944 88.0834 81.0775 87.9987 81.0775 87.8942V85.1945C81.0775 85.09 80.9943 85.0053 80.8919 85.0053H77.1277C77.0252 85.0053 76.9421 85.09 76.9421 85.1945V87.8942ZM80.8919 66.9956H77.1277C77.0252 66.9956 76.9421 67.0804 76.9421 67.1848V69.889C76.9421 69.9936 77.0253 70.0783 77.1277 70.0783H80.8919C80.9944 70.0783 81.0775 69.9936 81.0775 69.889V67.1848C81.0776 67.0804 80.9944 66.9956 80.8919 66.9956ZM65.8696 83.3962C65.8696 83.5008 65.9527 83.5855 66.0552 83.5855H69.8378C69.9403 83.5855 70.0233 83.5008 70.0233 83.3962V80.6922C70.0233 80.5876 69.9403 80.5029 69.8378 80.5029H66.0552C65.9527 80.5029 65.8696 80.5876 65.8696 80.6922V83.3962ZM71.4151 87.8942C71.4151 87.9987 71.4981 88.0834 71.6006 88.0834H75.3649C75.4674 88.0834 75.5504 87.9987 75.5504 87.8942V85.1945C75.5504 85.09 75.4674 85.0053 75.3649 85.0053H71.6006C71.4981 85.0053 71.4151 85.09 71.4151 85.1945V87.8942ZM71.4151 74.3915C71.4151 74.496 71.4981 74.5807 71.6006 74.5807H75.3649C75.4674 74.5807 75.5504 74.496 75.5504 74.3915V71.6873C75.5504 71.5827 75.4674 71.498 75.3649 71.498H71.6006C71.4981 71.498 71.4151 71.5828 71.4151 71.6873V74.3915ZM71.6006 70.0784H75.3649C75.4674 70.0784 75.5504 69.9937 75.5504 69.8891V67.1849C75.5504 67.0804 75.4674 66.9957 75.3649 66.9957H71.6006C71.4981 66.9957 71.4151 67.0805 71.4151 67.1849V69.8891C71.4151 69.9936 71.4981 70.0784 71.6006 70.0784ZM71.4151 78.8939C71.4151 78.9985 71.4981 79.0832 71.6006 79.0832H75.3649C75.4674 79.0832 75.5504 78.9985 75.5504 78.8939V76.1897C75.5504 76.0852 75.4674 76.0005 75.3649 76.0005H71.6006C71.4981 76.0005 71.4151 76.0852 71.4151 76.1897V78.8939ZM71.4151 83.3962C71.4151 83.5008 71.4981 83.5855 71.6006 83.5855H75.3649C75.4674 83.5855 75.5504 83.5008 75.5504 83.3962V80.6922C75.5504 80.5876 75.4674 80.5029 75.3649 80.5029H71.6006C71.4981 80.5029 71.4151 80.5876 71.4151 80.6922V83.3962Z" fill="#DAE4EA"/>
<path d="M87.9962 83.3961C87.9962 83.5007 88.0792 83.5854 88.1817 83.5854H91.946C92.0485 83.5854 92.1315 83.5007 92.1315 83.3961V80.692C92.1315 80.6773 92.1298 80.6629 92.1266 80.6491C90.487 81.0077 89.0425 81.9247 87.9961 83.193V83.3961H87.9962Z" fill="#C6D0DA"/>
<path d="M101.133 56.4169H56.8874C56.3718 56.4169 55.954 56.8433 55.954 57.3691V61.9792H102.066V57.3691C102.066 56.8433 101.648 56.4169 101.133 56.4169V56.4169Z" fill="#61A2F9"/>
<path d="M60.3605 74.3915V71.6873C60.3605 71.5827 60.4435 71.498 60.546 71.498H64.2919C64.3944 71.498 64.4774 71.5828 64.4774 71.6873V74.3915C64.4774 74.496 64.3943 74.5807 64.2919 74.5807H60.5461C60.4436 74.5807 60.3605 74.496 60.3605 74.3915ZM60.3605 78.8939C60.3605 78.9985 60.4435 79.0832 60.546 79.0832H64.2919C64.3944 79.0832 64.4774 78.9985 64.4774 78.8939V76.1897C64.4774 76.0852 64.3943 76.0005 64.2919 76.0005H60.5461C60.4436 76.0005 60.3606 76.0852 60.3606 76.1897V78.8939H60.3605ZM60.3605 87.8942C60.3605 87.9987 60.4435 88.0834 60.546 88.0834H64.2919C64.3944 88.0834 64.4774 87.9987 64.4774 87.8942V85.1945C64.4774 85.09 64.3943 85.0053 64.2919 85.0053H60.5461C60.4436 85.0053 60.3606 85.09 60.3606 85.1945V87.8942H60.3605ZM60.3605 83.3962C60.3605 83.5008 60.4435 83.5855 60.546 83.5855H64.2919C64.3944 83.5855 64.4774 83.5008 64.4774 83.3962V80.6922C64.4774 80.5876 64.3943 80.5029 64.2919 80.5029H60.5461C60.4436 80.5029 60.3606 80.5876 60.3606 80.6922V83.3962H60.3605Z" fill="#DA4A54"/>
<path d="M61.096 59.4368H59.9221C59.4085 59.4368 58.9922 59.0121 58.9922 58.4882V55.2929C58.9922 54.7689 59.4086 54.3442 59.9221 54.3442H61.096C61.6096 54.3442 62.026 54.769 62.026 55.2929V58.4881C62.026 59.0121 61.6096 59.4368 61.096 59.4368Z" fill="white"/>
<path d="M67.1852 59.4367H66.1041C65.5904 59.4367 65.1741 59.0119 65.1741 58.488V55.2927C65.1741 54.7687 65.5905 54.344 66.1041 54.344H67.1851C67.6988 54.344 68.1151 54.7688 68.1151 55.2927V58.4879C68.1152 59.0119 67.6988 59.4367 67.1852 59.4367Z" fill="white"/>
<path d="M73.3674 59.4367H72.2864C71.7727 59.4367 71.3564 59.0119 71.3564 58.488V55.2927C71.3564 54.7687 71.7727 54.344 72.2864 54.344H73.3674C73.8811 54.344 74.2974 54.7688 74.2974 55.2927V58.4879C74.2974 59.0119 73.8811 59.4367 73.3674 59.4367Z" fill="white"/>
<path d="M79.5517 59.4367H78.4707C77.957 59.4367 77.5407 59.0119 77.5407 58.488V55.2927C77.5407 54.7687 77.9571 54.344 78.4707 54.344H79.5517C80.0654 54.344 80.4817 54.7688 80.4817 55.2927V58.4879C80.4817 59.0119 80.0654 59.4367 79.5517 59.4367Z" fill="white"/>
<path d="M85.734 59.4367H84.653C84.1393 59.4367 83.723 59.0119 83.723 58.488V55.2927C83.723 54.7687 84.1393 54.344 84.653 54.344H85.734C86.2477 54.344 86.664 54.7688 86.664 55.2927V58.4879C86.6641 59.0119 86.2477 59.4367 85.734 59.4367Z" fill="white"/>
<path d="M91.9163 59.4367H90.8353C90.3216 59.4367 89.9053 59.0119 89.9053 58.488V55.2927C89.9053 54.7687 90.3217 54.344 90.8353 54.344H91.9163C92.43 54.344 92.8463 54.7688 92.8463 55.2927V58.4879C92.8464 59.0119 92.43 59.4367 91.9163 59.4367Z" fill="white"/>
<path d="M101.133 56.4172H99.0293L98.4716 57.9192C98.4716 58.4376 98.1155 59.4365 98.1155 59.4365V61.9793H102.066V57.3692C102.066 56.8434 101.649 56.4172 101.133 56.4172V56.4172Z" fill="#5490F9"/>
<path d="M98.099 59.4367H97.018C96.5043 59.4367 96.088 59.012 96.088 58.4881V55.2927C96.088 54.7688 96.5043 54.3441 97.018 54.3441H98.099C98.6127 54.3441 99.029 54.7689 99.029 55.2927V58.488C99.029 59.012 98.6126 59.4367 98.099 59.4367Z" fill="white"/>
<path d="M97.6238 97.6371C101.722 97.6371 105.044 94.2481 105.044 90.0676C105.044 85.887 101.722 82.498 97.6238 82.498C93.5256 82.498 90.2034 85.887 90.2034 90.0676C90.2034 94.2481 93.5256 97.6371 97.6238 97.6371Z" fill="#80E29D"/>
<path d="M98.816 82.5948C100.22 83.972 101.094 85.908 101.094 88.0521C101.094 92.2327 97.7721 95.6217 93.6738 95.6217C93.2684 95.6217 92.8705 95.5884 92.4825 95.5247C93.8163 96.8327 95.6284 97.6369 97.6247 97.6369C101.723 97.6369 105.045 94.2479 105.045 90.0673C105.045 86.3004 102.348 83.1762 98.816 82.5948V82.5948Z" fill="#78D090"/>
<path d="M101.836 88.4416L100.433 87.011C100.286 86.8607 100.047 86.8607 99.8995 87.011L97.1866 89.7784C97.0393 89.9287 96.8003 89.9287 96.653 89.7784L95.35 88.4493C95.2027 88.299 94.9637 88.299 94.8164 88.4493L93.414 89.8798C93.2667 90.0301 93.2667 90.2739 93.414 90.4242L96.653 93.7282C96.8003 93.8785 97.0393 93.8785 97.1866 93.7282L101.836 88.986C101.983 88.8356 101.983 88.5919 101.836 88.4416V88.4416Z" fill="#F6F9F9"/>
<path d="M101.085 87.6764C101.091 87.8009 101.094 87.9263 101.094 88.0523C101.094 88.7232 101.009 89.3738 100.848 89.9932L101.835 88.9861C101.983 88.8357 101.983 88.592 101.835 88.4417L101.085 87.6764Z" fill="#E7ECF1"/>
<defs>
<filter id="filter0_d_2_2" x="0" y="0" width="186" height="186" filterUnits="userSpaceOnUse" color-interpolation-filters="sRGB">
<feFlood flood-opacity="0" result="BackgroundImageFix"/>
<feColorMatrix in="SourceAlpha" type="matrix" values="0 0 0 0 0 0 0 0 0 0 0 0 0 0 0 0 0 0 127 0" result="hardAlpha"/>
<feOffset dx="14" dy="20"/>
<feGaussianBlur stdDeviation="24"/>
<feComposite in2="hardAlpha" operator="out"/>
<feColorMatrix type="matrix" values="0 0 0 0 0.0978704 0 0 0 0 0.0602778 0 0 0 0 0.173056 0 0 0 0.06 0"/>
<feBlend mode="normal" in2="BackgroundImageFix" result="effect1_dropShadow_2_2"/>
<feBlend mode="normal" in="SourceGraphic" in2="effect1_dropShadow_2_2" result="shape"/>
</filter>
<linearGradient id="paint0_linear_2_2" x1="79" y1="28" x2="79" y2="118" gradientUnits="userSpaceOnUse">
<stop stop-color="white"/>
<stop offset="1" stop-color="white" stop-opacity="0"/>
</linearGradient>
</defs>
</svg>
