<svg width="24" height="24" viewBox="0 0 24 24" fill="none" xmlns="http://www.w3.org/2000/svg">
<path d="M19.0504 21H20.1004C21.7572 21 23.1004 19.6569 23.1004 18V13.4467C23.1004 12.9883 22.9954 12.5361 22.7934 12.1246L19.8741 6.17798C19.3699 5.15086 18.3253 4.5 17.1811 4.5H15.5254M14.7754 21H12.0004H9.22539M4.95039 21H3.90039C2.24354 21 0.900391 19.6569 0.900391 18V12.75" stroke="#15CE73" stroke-width="1.5"/>
<path d="M0.900391 3.8999C0.900391 2.24305 2.24354 0.899902 3.90039 0.899902H14.1004C14.9288 0.899902 15.6004 1.57148 15.6004 2.3999V11.3999C15.6004 13.0568 14.2572 14.3999 12.6004 14.3999H0.900391V3.8999Z" stroke="#15CE73" stroke-width="1.5"/>
<path d="M20.4004 14.3999H21.8727C22.5508 14.3999 23.1004 13.8503 23.1004 13.1723C23.1004 12.9929 23.0611 12.8157 22.9852 12.6531L21.3459 9.14031C21.1351 8.68862 20.6818 8.3999 20.1833 8.3999C19.4748 8.3999 18.9004 8.97429 18.9004 9.68284V12.8999C18.9004 13.7283 19.572 14.3999 20.4004 14.3999Z" stroke="#15CE73" stroke-width="1.5"/>
<path d="M7.5 23.1001C8.74264 23.1001 9.75 22.0927 9.75 20.8501C9.75 19.6075 8.74264 18.6001 7.5 18.6001C6.25736 18.6001 5.25 19.6075 5.25 20.8501C5.25 22.0927 6.25736 23.1001 7.5 23.1001Z" stroke="#15CE73" stroke-width="1.5"/>
<path d="M16.5 23.1001C17.7426 23.1001 18.75 22.0927 18.75 20.8501C18.75 19.6075 17.7426 18.6001 16.5 18.6001C15.2574 18.6001 14.25 19.6075 14.25 20.8501C14.25 22.0927 15.2574 23.1001 16.5 23.1001Z" stroke="#15CE73" stroke-width="1.5"/>
</svg>
