<svg width="24" height="24" viewBox="0 0 24 24" fill="none" xmlns="http://www.w3.org/2000/svg">
<path d="M9.93406 1.44138C11.2294 0.77243 12.7685 0.772431 14.0638 1.44138L17.5489 3.24124L20.6968 4.92771C22.1466 5.70446 23.0571 7.21032 23.0715 8.85505L23.0989 12L23.0715 15.145C23.0571 16.7897 22.1466 18.2955 20.6968 19.0723L17.5489 20.7588L14.0638 22.5586C12.7685 23.2276 11.2294 23.2276 9.93405 22.5586L6.44893 20.7588L3.30108 19.0723C1.85125 18.2955 0.940712 16.7897 0.926363 15.145L0.898926 12L0.926363 8.85504C0.940712 7.21032 1.85125 5.70446 3.30107 4.92771L6.44893 3.24124L9.93406 1.44138Z" stroke="#15CE73" stroke-width="1.5"/>
<path d="M12.127 22.6499V12.1499M12.127 12.1499L21.877 6.8999M12.127 12.1499L1.62695 6.8999" stroke="#15CE73" stroke-width="1.5"/>
<path d="M6.75 3L18 9V13.5" stroke="#15CE73" stroke-width="1.5" stroke-linecap="round"/>
</svg>
