<svg width="24" height="24" viewBox="0 0 24 24" fill="none" xmlns="http://www.w3.org/2000/svg">
<path fill-rule="evenodd" clip-rule="evenodd" d="M12.0003 1.79963C7.52683 1.79963 3.90034 5.42613 3.90034 9.89963C3.90034 10.6871 4.18821 11.6776 4.7277 12.8122C5.26068 13.933 6.0048 15.1239 6.83695 16.2922C8.50088 18.6283 10.4624 20.7992 11.6297 22.03C11.8371 22.2488 12.1636 22.2488 12.371 22.03C13.5383 20.7992 15.4998 18.6283 17.1637 16.2922C17.9959 15.1239 18.74 13.933 19.273 12.8122C19.8125 11.6776 20.1003 10.6871 20.1003 9.89963C20.1003 5.42613 16.4738 1.79963 12.0003 1.79963ZM2.10034 9.89963C2.10034 4.43201 6.53272 -0.000366211 12.0003 -0.000366211C17.468 -0.000366211 21.9003 4.43201 21.9003 9.89963C21.9003 11.0756 21.486 12.3496 20.8986 13.5851C20.3046 14.8343 19.4969 16.1191 18.6299 17.3364C16.8954 19.7716 14.8687 22.0121 13.6771 23.2687C12.7598 24.2359 11.2409 24.2359 10.3236 23.2687C9.13193 22.0121 7.10531 19.7716 5.37082 17.3364C4.50376 16.1191 3.69611 14.8343 3.10212 13.5851C2.51464 12.3496 2.10034 11.0756 2.10034 9.89963ZM12.0004 6.29963C10.4264 6.29963 9.15044 7.57562 9.15044 9.14963C9.15044 10.7236 10.4264 11.9996 12.0004 11.9996C13.5744 11.9996 14.8504 10.7236 14.8504 9.14963C14.8504 7.57562 13.5744 6.29963 12.0004 6.29963ZM7.35044 9.14963C7.35044 6.58151 9.43231 4.49963 12.0004 4.49963C14.5686 4.49963 16.6504 6.58151 16.6504 9.14963C16.6504 11.7178 14.5686 13.7996 12.0004 13.7996C9.43231 13.7996 7.35044 11.7178 7.35044 9.14963Z" fill="#080696"/>
<circle cx="12.0005" cy="9.14954" r="3.75" stroke="#080696" stroke-width="1.5"/>
</svg>
