<svg width="24" height="24" viewBox="0 0 24 24" fill="none" xmlns="http://www.w3.org/2000/svg">
<path fill-rule="evenodd" clip-rule="evenodd" d="M12 1.8C7.5265 1.8 3.90001 5.42649 3.90001 9.9C3.90001 10.6875 4.18788 11.678 4.72737 12.8125C5.26035 13.9334 6.00447 15.1242 6.83661 16.2926C8.50054 18.6287 10.4621 20.7996 11.6293 22.0304C11.8368 22.2491 12.1632 22.2491 12.3707 22.0304C13.538 20.7996 15.4995 18.6287 17.1634 16.2926C17.9955 15.1242 18.7397 13.9334 19.2726 12.8125C19.8121 11.678 20.1 10.6875 20.1 9.9C20.1 5.42649 16.4735 1.8 12 1.8ZM2.10001 9.9C2.10001 4.43238 6.53239 0 12 0C17.4676 0 21.9 4.43238 21.9 9.9C21.9 11.076 21.4857 12.35 20.8982 13.5855C20.3042 14.8347 19.4966 16.1195 18.6295 17.3368C16.895 19.772 14.8684 22.0125 13.6768 23.269C12.7595 24.2363 11.2406 24.2363 10.3233 23.269C9.1316 22.0125 7.10497 19.772 5.37049 17.3368C4.50343 16.1195 3.69578 14.8347 3.10178 13.5855C2.51431 12.35 2.10001 11.076 2.10001 9.9ZM12 6.3C10.426 6.3 9.15001 7.57599 9.15001 9.15C9.15001 10.724 10.426 12 12 12C13.574 12 14.85 10.724 14.85 9.15C14.85 7.57599 13.574 6.3 12 6.3ZM7.35001 9.15C7.35001 6.58188 9.43188 4.5 12 4.5C14.5681 4.5 16.65 6.58188 16.65 9.15C16.65 11.7181 14.5681 13.8 12 13.8C9.43188 13.8 7.35001 11.7181 7.35001 9.15Z" fill="#0B344B"/>
<circle cx="12" cy="9.1499" r="3.75" stroke="#0B344B" stroke-width="1.5"/>
</svg>
