<svg width="50" height="50" viewBox="0 0 50 50" fill="none" xmlns="http://www.w3.org/2000/svg">
<path d="M35.4168 38.396H27.0834L17.8126 44.5625C16.4376 45.4792 14.5834 44.5001 14.5834 42.8335V38.396C8.33342 38.396 4.16675 34.2293 4.16675 27.9793V15.4792C4.16675 9.22917 8.33342 5.0625 14.5834 5.0625H35.4168C41.6668 5.0625 45.8334 9.22917 45.8334 15.4792V27.9793C45.8334 34.2293 41.6668 38.396 35.4168 38.396Z" stroke="#080696" stroke-width="1.5" stroke-miterlimit="10" stroke-linecap="round" stroke-linejoin="round"/>
<path d="M25 23.667V23.2296C25 21.8129 25.8751 21.0629 26.7501 20.4587C27.6042 19.8754 28.4583 19.1254 28.4583 17.7504C28.4583 15.8337 26.9167 14.292 25 14.292C23.0834 14.292 21.5417 15.8337 21.5417 17.7504" stroke="#080696" stroke-width="1.5" stroke-linecap="round" stroke-linejoin="round"/>
<path d="M24.9905 28.6462H25.0093" stroke="#080696" stroke-width="1.5" stroke-linecap="round" stroke-linejoin="round"/>
</svg>
