<svg width="186" height="186" viewBox="0 0 186 186" fill="none" xmlns="http://www.w3.org/2000/svg">
<g filter="url(#filter0_d_2_29)">
<rect x="34" y="28" width="90" height="90" rx="15" fill="white" fill-opacity="0.5" shape-rendering="crispEdges"/>
<rect x="34.5" y="28.5" width="89" height="89" rx="14.5" stroke="url(#paint0_linear_2_29)" shape-rendering="crispEdges"/>
</g>
<path d="M102.109 65.6547C97.1688 61.1922 92.2281 56.65 87.2875 52.1875C80.0359 63.1844 67.7641 72.9859 56.1297 80.0781C55.8109 81.5922 55.4922 83.0266 55.0938 84.4609C60.1938 89.0828 65.2938 93.7844 70.3938 98.4062C82.4266 91.7922 95.1766 82.3891 102.906 71.7109C102.667 69.7188 102.348 67.7266 102.109 65.6547Z" fill="#699635"/>
<path d="M71.35 92.5094C66.3297 87.8875 61.3094 83.2656 56.2891 78.7234C68.8 71.6312 79.3187 61.9891 87.0484 50.5938C92.0687 55.2156 97.0891 59.7578 102.109 64.3797C94.3797 75.775 83.8609 85.4172 71.35 92.5094" fill="#83BF4F"/>
<path d="M70.075 89.4812C66.7281 86.4531 63.3813 83.3453 60.0344 80.3172C60.2734 80.1578 60.4328 80.0781 60.6719 79.9187C61.3094 79.5203 61.4688 78.8031 60.9109 78.2453L60.4328 77.7672C70.5531 71.5516 79.3188 63.5828 86.1719 54.3391L86.65 54.8172C87.2078 55.2953 88.0047 55.2156 88.4828 54.6578C88.6422 54.4984 88.7219 54.2594 88.8813 54.1C92.2281 57.1281 95.575 60.2359 98.9219 63.2641C98.7625 63.4234 98.6828 63.6625 98.5234 63.8219C98.0453 64.4594 98.125 65.3359 98.6828 65.8938L99.1609 66.3719C92.3078 75.5359 83.5422 83.5047 73.4219 89.7203L72.9438 89.2422C72.3859 88.7641 71.4297 88.6844 70.7125 89.0828C70.4734 89.2422 70.3141 89.3219 70.075 89.4812M62.1859 80.3969C64.8953 82.8672 67.6047 85.3375 70.3938 87.8875C71.4297 87.5687 72.625 87.6484 73.5813 88.1266C82.825 82.2297 90.8734 74.8984 97.3281 66.3719C96.7703 65.4953 96.6906 64.3797 97.0891 63.4234C94.3797 60.9531 91.6703 58.4828 88.8813 55.9328C88.1641 56.5703 87.1281 56.65 86.2516 56.1719C79.7969 64.7781 71.7484 72.1094 62.5047 78.0063C62.9828 78.8031 62.9031 79.7594 62.1859 80.3969" fill="#699635"/>
<path d="M69.4375 78.7234C70.3141 78.4047 71.2703 78.4844 71.9078 79.0422C71.5094 79.3609 71.0313 79.6797 70.6328 79.9984C70.4734 79.8391 70.075 79.8391 69.9156 79.9984C69.6766 80.1578 69.5969 80.3969 69.8359 80.5562C69.9953 80.7156 70.3938 80.7156 70.6328 80.5562C71.5891 79.9187 72.9438 79.8391 73.6609 80.5562C74.2188 81.1141 74.2984 81.9109 73.7406 82.5484C73.9 82.7078 74.0594 82.7875 74.2188 82.9469C73.8203 83.1859 73.4219 83.5047 73.0234 83.7437C72.8641 83.5844 72.7047 83.425 72.5453 83.3453C71.6688 83.5844 70.7125 83.5047 70.1547 82.9469C70.6328 82.6281 71.0313 82.3891 71.5094 82.0703C71.6688 82.2297 72.0672 82.2297 72.3063 82.0703C72.5453 81.9109 72.5453 81.6719 72.3859 81.5125C72.2266 81.3531 71.9078 81.3531 71.6688 81.5125C71.1109 81.9109 70.3938 82.0703 69.7563 81.9906C69.2781 81.9109 68.8797 81.7516 68.5609 81.5125C68.0031 80.9547 68.0031 80.2375 68.4813 79.6C68.3219 79.5203 68.2422 79.3609 68.0828 79.2016C68.4813 78.9625 68.8797 78.6438 69.2781 78.4047C69.1984 78.4844 69.3578 78.5641 69.4375 78.7234M87.925 61.6703C88.6422 61.1922 89.5188 61.1922 90.0766 61.75L89.1203 62.9453C88.9609 62.7859 88.6422 62.7859 88.4828 63.025C88.3234 63.2641 88.3234 63.5828 88.4828 63.7422C88.6422 63.9016 88.9609 63.9016 89.1203 63.6625C89.8375 62.7859 91.0328 62.6266 91.75 63.2641C92.3078 63.8219 92.4672 64.6984 92.1484 65.4953C92.3078 65.6547 92.4672 65.7344 92.6266 65.8937C92.3078 66.2922 92.0688 66.6109 91.75 67.0094C91.5906 66.85 91.4313 66.6906 91.2719 66.6109C90.5547 67.0094 89.7578 67.0094 89.2 66.4516C89.5188 66.0531 89.9172 65.6547 90.2359 65.2562C90.3953 65.4156 90.7141 65.4156 90.8734 65.1766C91.0328 64.9375 91.0328 64.6187 90.8734 64.4594C90.7141 64.3 90.3953 64.3 90.2359 64.5391C89.8375 65.0172 89.2 65.3359 88.6422 65.3359C88.2438 65.3359 87.8453 65.1766 87.5266 64.9375C86.9688 64.3797 86.8094 63.5828 87.1281 62.7859C86.9688 62.7062 86.8891 62.5469 86.7297 62.3875C87.0484 62.0687 87.3672 61.6703 87.6063 61.2719C87.6063 61.4312 87.7656 61.5109 87.925 61.6703M85.5344 77.2891C82.9844 79.6 78.6813 79.5203 76.2109 77.2891C73.7406 74.9781 73.9 71.3922 76.45 69.0812C79 66.7703 82.9844 66.5312 85.4547 68.8422C88.0047 71.0734 88.0844 74.9781 85.5344 77.2891Z" fill="#699635"/>
<path d="M70.8719 68.5234L85.9328 82.3094C87.6859 80.875 89.2797 79.3609 90.8734 77.7672L75.8922 63.9812C74.2984 65.4953 72.625 67.0094 70.8719 68.5234Z" fill="#FFDD7D"/>
<path d="M86.0125 88.3656C87.6859 87.0906 89.3594 85.7359 90.9531 84.3813V77.6875C89.3594 79.2812 87.6859 80.7953 86.0125 82.2297V88.3656" fill="#DBB471"/>
<path d="M63.1422 68.6828C64.0188 68.3641 64.7359 67.8859 65.4531 67.3281C66.1703 66.7703 66.8078 66.2125 67.525 65.575C68.2422 65.0172 68.9594 64.3797 69.7563 63.9813C70.5531 63.5031 71.5891 63.2641 72.4656 63.4234C71.5891 63.5828 70.7922 63.9813 70.075 64.5391C69.3578 65.0172 68.7203 65.6547 68.0031 66.2125C67.2859 66.7703 66.5688 67.4078 65.7719 67.8859C64.975 68.3641 64.0188 68.6828 63.1422 68.6828" fill="#8D9998"/>
<path d="M85.2156 75.3766C85.2156 75.3766 89.1203 76.4922 98.2047 74.1016C107.289 71.7109 102.986 97.8484 86.4109 97.8484C84.5781 97.8484 84.4984 95.5375 89.5984 91.3938C89.5984 91.3938 82.4266 93.0672 85.5344 87.7281C85.5344 87.7281 80.4344 88.6047 82.7453 84.5406C82.7453 84.5406 83.7813 81.5125 82.825 78.0859C82.9047 78.0859 83.4625 76.3328 85.2156 75.3766" fill="#E8E8E8"/>
<path d="M102.508 76.6516C102.667 83.6641 97.0891 95.2984 86.0125 95.2984H85.8531C84.8172 96.9719 85.2953 97.9281 86.4109 97.9281C99.0016 97.8484 104.5 82.8672 102.508 76.6516Z" fill="#D1D1D1"/>
<path d="M96.7703 80.4766C94.3797 89.0828 84.8172 89.8 84.8172 89.8C84.4187 91.6328 85.2156 92.4297 86.2516 92.4297C89.7578 92.5094 96.2922 86.6922 96.7703 80.4766ZM90.0766 80.4766C84.4187 88.4453 82.4266 85.4969 82.4266 85.4969C80.9922 88.6844 84.7375 88.6844 85.375 87.9672C87.2078 85.975 90.1562 81.8313 90.0766 80.4766Z" fill="#D1D1D1"/>
<path d="M85.7734 95.5375C86.7297 94.2625 87.925 93.2266 89.1203 92.1906C90.3156 91.1547 91.5109 90.1187 92.7062 89.0031C93.8219 87.8875 94.9375 86.6125 95.7344 85.1781C96.5312 83.7438 96.9297 82.0703 96.7703 80.4766C96.6109 82.0703 96.0531 83.5844 95.1766 84.8594C94.3 86.1344 93.2641 87.3297 92.1484 88.4453C91.0328 89.5609 89.8375 90.5969 88.7219 91.7922C87.5266 92.8281 86.4906 94.1031 85.7734 95.5375M84.8172 89.8C85.1359 88.9234 85.6141 88.2062 86.1719 87.4891C86.7297 86.7719 87.2875 86.1344 87.925 85.4172C88.4828 84.7 89.1203 83.9828 89.5187 83.1859C89.9969 82.3891 90.2359 81.3531 90.0766 80.4766C89.9172 81.3531 89.5187 82.15 88.9609 82.8672C88.4828 83.5844 87.8453 84.2219 87.2875 84.9391C86.7297 85.6562 86.0922 86.3734 85.6141 87.1703C85.1359 87.9672 84.8172 88.9234 84.8172 89.8" fill="#8D9998"/>
<path d="M77.5656 68.2844C77.5656 68.2844 76.45 64.3797 78.8406 55.2953C81.2312 46.2109 55.0938 50.5141 55.0938 67.0891C55.0938 68.9219 57.4047 69.0016 61.5484 63.9016C61.5484 63.9016 59.875 71.0734 65.2141 67.9656C65.2141 67.9656 64.3375 73.0656 68.4016 70.7547C68.4016 70.7547 71.4297 69.7188 74.8562 70.675C74.8562 70.5953 76.6094 70.0375 77.5656 68.2844" fill="#E8E8E8"/>
<path d="M76.2906 50.9922C69.2781 50.8328 57.6438 56.4109 57.6438 67.4875V67.6469C55.9703 68.6031 55.0938 68.2047 55.0938 67.0891C55.0938 54.4984 70.075 49 76.2906 50.9922Z" fill="#D1D1D1"/>
<path d="M72.4656 56.7297C63.8594 59.1203 63.1422 68.6828 63.1422 68.6828C61.3094 69.0812 60.5125 68.2844 60.5125 67.2484C60.4328 63.7422 66.25 57.2078 72.4656 56.7297ZM72.4656 63.4234C64.4969 69.0812 67.4453 71.0734 67.4453 71.0734C64.2578 72.5078 64.2578 68.7625 64.975 68.125C66.9672 66.2922 71.1109 63.3437 72.4656 63.4234Z" fill="#D1D1D1"/>
<path d="M57.4047 67.7266C58.6797 66.7703 59.7156 65.575 60.7516 64.3797C61.7875 63.1844 62.8234 61.9891 63.9391 60.7937C65.0547 59.6781 66.3297 58.5625 67.7641 57.7656C69.1984 56.9687 70.8719 56.5703 72.4656 56.7297C70.8719 56.8891 69.3578 57.4469 68.0828 58.3234C66.8078 59.2 65.6125 60.2359 64.4969 61.3516C63.3812 62.4672 62.3453 63.6625 61.15 64.7781C60.0344 65.9734 58.8391 67.0094 57.4047 67.7266" fill="#8D9998"/>
<path d="M63.1422 68.6828C64.0188 68.3641 64.7359 67.8859 65.4531 67.3281C66.1703 66.7703 66.8078 66.2125 67.525 65.575C68.2422 65.0172 68.9594 64.3797 69.7563 63.9813C70.5531 63.5031 71.5891 63.2641 72.4656 63.4234C71.5891 63.5828 70.7922 63.9813 70.075 64.5391C69.3578 65.0172 68.7203 65.6547 68.0031 66.2125C67.2859 66.7703 66.5688 67.4078 65.7719 67.8859C64.975 68.3641 64.0188 68.6828 63.1422 68.6828" fill="#8D9998"/>
<defs>
<filter id="filter0_d_2_29" x="0" y="0" width="186" height="186" filterUnits="userSpaceOnUse" color-interpolation-filters="sRGB">
<feFlood flood-opacity="0" result="BackgroundImageFix"/>
<feColorMatrix in="SourceAlpha" type="matrix" values="0 0 0 0 0 0 0 0 0 0 0 0 0 0 0 0 0 0 127 0" result="hardAlpha"/>
<feOffset dx="14" dy="20"/>
<feGaussianBlur stdDeviation="24"/>
<feComposite in2="hardAlpha" operator="out"/>
<feColorMatrix type="matrix" values="0 0 0 0 0.0978704 0 0 0 0 0.0602778 0 0 0 0 0.173056 0 0 0 0.06 0"/>
<feBlend mode="normal" in2="BackgroundImageFix" result="effect1_dropShadow_2_29"/>
<feBlend mode="normal" in="SourceGraphic" in2="effect1_dropShadow_2_29" result="shape"/>
</filter>
<linearGradient id="paint0_linear_2_29" x1="79" y1="28" x2="79" y2="118" gradientUnits="userSpaceOnUse">
<stop stop-color="white"/>
<stop offset="1" stop-color="white" stop-opacity="0"/>
</linearGradient>
</defs>
</svg>
