<svg width="24" height="24" viewBox="0 0 24 24" fill="none" xmlns="http://www.w3.org/2000/svg">
<path d="M8.9082 20.9999H18.0891C18.4836 20.9996 18.8688 20.8947 19.1944 20.6991C19.52 20.5034 19.7708 20.2261 19.9141 19.9033L22.9615 13.557C23.0545 13.3471 23.1017 13.1238 23.1006 12.8986V11.0892C23.1006 10.1005 22.1932 8.9988 21.0817 8.9988H14.7209L15.6819 5.17908L15.7142 4.89796C15.7141 4.54216 15.5551 4.20061 15.2712 3.9467L14.1931 3L7.46727 8.96891C7.0888 9.30802 6.87781 9.76447 6.88006 10.2393V19.2377C6.88081 19.4705 6.93394 19.7009 7.03639 19.9157C7.13884 20.1304 7.2886 20.3252 7.47706 20.489C7.66552 20.6527 7.88897 20.7822 8.13457 20.8698C8.38017 20.9575 8.64308 21.0017 8.9082 20.9999V20.9999Z" stroke="#15CE73" stroke-width="1.5" stroke-linejoin="round"/>
<path d="M0.899653 10.5012H4.31738V21H0.899653V10.5012Z" stroke="#15CE73" stroke-width="1.5" stroke-linejoin="round"/>
</svg>
