<svg width="40" height="40" viewBox="0 0 40 40" fill="none" xmlns="http://www.w3.org/2000/svg">
<path d="M30.0667 22.5836C29.3667 23.267 28.9667 24.2503 29.0667 25.3003C29.2167 27.1003 30.8667 28.417 32.6667 28.417H35.8334V30.4003C35.8334 33.8503 33.0167 36.667 29.5667 36.667H10.4334C6.98342 36.667 4.16675 33.8503 4.16675 30.4003V19.1837C4.16675 15.7337 6.98342 12.917 10.4334 12.917H29.5667C33.0167 12.917 35.8334 15.7337 35.8334 19.1837V21.5837H32.4667C31.5334 21.5837 30.6834 21.9503 30.0667 22.5836Z" stroke="#080696" stroke-width="2.5625" stroke-linecap="round" stroke-linejoin="round"/>
<path d="M4.16675 20.6832V13.0666C4.16675 11.0833 5.38341 9.31652 7.23341 8.61652L20.4667 3.61652C22.5334 2.83319 24.7501 4.36657 24.7501 6.58324V12.9166" stroke="#080696" stroke-width="2.5625" stroke-linecap="round" stroke-linejoin="round"/>
<path d="M37.5981 23.2834V26.7169C37.5981 27.6335 36.8648 28.3835 35.9314 28.4168H32.6648C30.8648 28.4168 29.2148 27.1001 29.0648 25.3001C28.9648 24.2501 29.3648 23.2668 30.0648 22.5835C30.6814 21.9501 31.5314 21.5835 32.4648 21.5835H35.9314C36.8648 21.6168 37.5981 22.3668 37.5981 23.2834Z" stroke="#080696" stroke-width="2.5625" stroke-linecap="round" stroke-linejoin="round"/>
<path d="M11.6667 20H23.3334" stroke="#080696" stroke-width="2.5625" stroke-linecap="round" stroke-linejoin="round"/>
</svg>
