<svg width="24" height="24" viewBox="0 0 24 24" fill="none" xmlns="http://www.w3.org/2000/svg">
<rect x="0.900146" y="0.899902" width="22.2" height="22.2" rx="4.5" stroke="#8A8A8A" stroke-width="1.5"/>
<path d="M19.1999 5.1001V8.7001H15.5999" stroke="#8A8A8A" stroke-width="1.5" stroke-linecap="round" stroke-linejoin="round"/>
<path d="M4.80015 18.8999L4.80015 15.2999L8.40015 15.2999" stroke="#8A8A8A" stroke-width="1.5" stroke-linecap="round" stroke-linejoin="round"/>
<path d="M4.5 12C4.5 10.4162 5.00141 8.87297 5.93237 7.59161C6.86333 6.31025 8.17605 5.35651 9.68237 4.86708C11.1887 4.37764 12.8113 4.37764 14.3176 4.86708C15.824 5.35651 17.1367 6.31026 18.0676 7.59161" stroke="#8A8A8A" stroke-width="1.5" stroke-linecap="round"/>
<path d="M19.5002 12C19.5002 13.5838 18.9988 15.127 18.0679 16.4084C17.1369 17.6897 15.8242 18.6435 14.3179 19.1329C12.8115 19.6224 11.1889 19.6224 9.68262 19.1329C8.17629 18.6435 6.86358 17.6897 5.93262 16.4084" stroke="#8A8A8A" stroke-width="1.5" stroke-linecap="round"/>
</svg>
