<svg width="180" height="74" viewBox="0 0 180 74" fill="none" xmlns="http://www.w3.org/2000/svg">
<rect width="179.517" height="73.0542" rx="8" fill="#15CE73"/>
<path d="M54.7973 35.8636C54.8081 35.0289 55.0298 34.2105 55.4418 33.4846C55.8538 32.7586 56.4428 32.1487 57.1539 31.7115C56.7021 31.0663 56.1062 30.5354 55.4134 30.1608C54.7205 29.7863 53.9499 29.5785 53.1627 29.5538C51.4835 29.3776 49.8555 30.5587 48.9998 30.5587C48.1275 30.5587 46.81 29.5713 45.3913 29.6005C44.4736 29.6302 43.5793 29.897 42.7954 30.3751C42.0115 30.8531 41.3649 31.5261 40.9184 32.3284C38.9844 35.6768 40.427 40.5979 42.2796 43.3045C43.2065 44.6298 44.2898 46.1103 45.7072 46.0578C47.0943 46.0002 47.6123 45.1733 49.2866 45.1733C50.9454 45.1733 51.4314 46.0578 52.8776 46.0244C54.366 46.0002 55.3038 44.6931 56.1981 43.3552C56.8641 42.4109 57.3766 41.3672 57.7166 40.2627C56.8518 39.897 56.1139 39.2848 55.5948 38.5025C55.0757 37.7202 54.7983 36.8024 54.7973 35.8636Z" fill="white"/>
<path d="M52.0649 27.7738C52.8764 26.7996 53.2763 25.5474 53.1794 24.2832C51.9396 24.4134 50.7943 25.006 49.9719 25.9428C49.5697 26.4005 49.2617 26.9329 49.0655 27.5097C48.8692 28.0865 48.7886 28.6962 48.8281 29.3042C49.4483 29.3106 50.0618 29.1762 50.6225 28.9111C51.1831 28.646 51.6763 28.2571 52.0649 27.7738Z" fill="white"/>
<path d="M72.3301 42.7027H67.5967L66.46 46.0591H64.4551L68.9385 33.6411H71.0215L75.5049 46.0591H73.4658L72.3301 42.7027ZM68.0869 41.1538H71.8389L69.9893 35.7066H69.9375L68.0869 41.1538Z" fill="white"/>
<path d="M85.1866 41.5327C85.1866 44.3462 83.6807 46.1538 81.4082 46.1538C80.8326 46.1839 80.2601 46.0513 79.7563 45.7711C79.2525 45.491 78.8378 45.0747 78.5596 44.5698H78.5166V49.0542H76.6582V37.0053H78.4571V38.5112H78.4912C78.7822 38.0087 79.2039 37.5945 79.7116 37.3127C80.2192 37.0308 80.7937 36.8919 81.3741 36.9106C83.6719 36.9106 85.1866 38.727 85.1866 41.5327ZM83.2764 41.5327C83.2764 39.6997 82.3291 38.4946 80.8838 38.4946C79.4639 38.4946 78.5088 39.7251 78.5088 41.5327C78.5088 43.3569 79.4639 44.5786 80.8838 44.5786C82.3291 44.5786 83.2764 43.3823 83.2764 41.5327Z" fill="white"/>
<path d="M95.1514 41.5327C95.1514 44.3462 93.6455 46.1538 91.3731 46.1538C90.7974 46.1839 90.2249 46.0513 89.7211 45.7711C89.2173 45.491 88.8026 45.0747 88.5244 44.5698H88.4814V49.0541H86.623V37.0053H88.4219V38.5112H88.456C88.747 38.0087 89.1687 37.5945 89.6764 37.3127C90.184 37.0308 90.7585 36.8919 91.3389 36.9106C93.6367 36.9106 95.1514 38.727 95.1514 41.5327ZM93.2412 41.5327C93.2412 39.6997 92.294 38.4946 90.8487 38.4946C89.4287 38.4946 88.4737 39.7251 88.4737 41.5327C88.4737 43.3569 89.4287 44.5786 90.8487 44.5786C92.294 44.5786 93.2412 43.3823 93.2412 41.5327H93.2412Z" fill="white"/>
<path d="M101.738 42.5992C101.876 43.8306 103.072 44.6392 104.707 44.6392C106.273 44.6392 107.4 43.8306 107.4 42.7202C107.4 41.7564 106.721 41.1792 105.111 40.7837L103.502 40.396C101.222 39.8452 100.163 38.7788 100.163 37.0483C100.163 34.9058 102.03 33.4341 104.682 33.4341C107.306 33.4341 109.105 34.9058 109.165 37.0483H107.289C107.177 35.8091 106.152 35.061 104.655 35.061C103.158 35.061 102.134 35.8179 102.134 36.9194C102.134 37.7974 102.788 38.314 104.389 38.7094L105.757 39.0454C108.305 39.6479 109.363 40.6714 109.363 42.4878C109.363 44.811 107.513 46.2661 104.569 46.2661C101.815 46.2661 99.9561 44.8452 99.8359 42.5991L101.738 42.5992Z" fill="white"/>
<path d="M113.375 34.8628V37.0054H115.097V38.4771H113.375V43.4683C113.375 44.2437 113.72 44.605 114.477 44.605C114.681 44.6014 114.885 44.5871 115.088 44.562V46.0249C114.748 46.0885 114.402 46.1172 114.056 46.1108C112.223 46.1108 111.508 45.4223 111.508 43.6665V38.4771H110.191V37.0054H111.508V34.8628H113.375Z" fill="white"/>
<path d="M116.094 41.5327C116.094 38.6841 117.771 36.894 120.388 36.894C123.013 36.894 124.683 38.684 124.683 41.5327C124.683 44.3892 123.021 46.1714 120.388 46.1714C117.755 46.1714 116.094 44.3892 116.094 41.5327ZM122.789 41.5327C122.789 39.5786 121.894 38.4253 120.388 38.4253C118.882 38.4253 117.987 39.5874 117.987 41.5327C117.987 43.4946 118.882 44.6392 120.388 44.6392C121.894 44.6392 122.789 43.4946 122.789 41.5327H122.789Z" fill="white"/>
<path d="M126.213 37.0055H127.985V38.5465H128.028C128.148 38.0652 128.43 37.6399 128.827 37.342C129.223 37.0441 129.71 36.8918 130.206 36.9108C130.42 36.91 130.634 36.9333 130.843 36.9801V38.7184C130.572 38.6358 130.29 38.5978 130.008 38.6061C129.738 38.5951 129.469 38.6427 129.219 38.7456C128.969 38.8485 128.744 39.0042 128.56 39.2021C128.376 39.4 128.237 39.6354 128.153 39.892C128.069 40.1487 128.041 40.4206 128.071 40.6891V46.0592H126.213L126.213 37.0055Z" fill="white"/>
<path d="M139.413 43.3999C139.163 45.0435 137.562 46.1714 135.515 46.1714C132.881 46.1714 131.246 44.4067 131.246 41.5757C131.246 38.7358 132.89 36.894 135.437 36.894C137.941 36.894 139.517 38.6147 139.517 41.3599V41.9966H133.122V42.1089C133.093 42.4421 133.134 42.7778 133.244 43.0936C133.355 43.4094 133.531 43.6982 133.761 43.9408C133.991 44.1833 134.271 44.3741 134.581 44.5004C134.89 44.6267 135.223 44.6856 135.558 44.6733C135.997 44.7145 136.437 44.6128 136.814 44.3833C137.191 44.1539 137.484 43.809 137.648 43.3999L139.413 43.3999ZM133.131 40.6978H137.657C137.674 40.3982 137.628 40.0983 137.524 39.8171C137.419 39.5359 137.257 39.2794 137.049 39.0636C136.84 38.8479 136.59 38.6775 136.312 38.5633C136.035 38.4491 135.737 38.3935 135.437 38.3999C135.134 38.3981 134.834 38.4562 134.554 38.571C134.274 38.6857 134.019 38.8548 133.805 39.0684C133.591 39.2821 133.421 39.536 133.305 39.8157C133.189 40.0953 133.13 40.3951 133.131 40.6978V40.6978Z" fill="white"/>
<path d="M67.8545 24.2939C68.2441 24.2659 68.6351 24.3248 68.9992 24.4662C69.3633 24.6076 69.6915 24.8281 69.9601 25.1118C70.2286 25.3954 70.4309 25.7351 70.5523 26.1063C70.6737 26.4776 70.7112 26.8712 70.6621 27.2587C70.6621 29.165 69.6318 30.2607 67.8545 30.2607H65.6992V24.2939H67.8545ZM66.626 29.4169H67.751C68.0294 29.4335 68.308 29.3879 68.5665 29.2833C68.8251 29.1786 69.057 29.0177 69.2455 28.8121C69.434 28.6066 69.5743 28.3616 69.6562 28.0949C69.738 27.8283 69.7594 27.5468 69.7187 27.2709C69.7564 26.996 69.7329 26.7163 69.6498 26.4516C69.5667 26.1869 69.426 25.9439 69.238 25.74C69.0499 25.5361 68.8191 25.3763 68.562 25.272C68.3049 25.1678 68.028 25.1217 67.751 25.1371H66.626V29.4169Z" fill="white"/>
<path d="M71.7093 28.0073C71.681 27.7114 71.7148 27.4128 71.8086 27.1307C71.9025 26.8487 72.0542 26.5893 72.2542 26.3693C72.4541 26.1493 72.6978 25.9736 72.9697 25.8533C73.2415 25.733 73.5355 25.6709 73.8328 25.6709C74.1301 25.6709 74.4241 25.733 74.6959 25.8533C74.9678 25.9736 75.2115 26.1493 75.4114 26.3693C75.6114 26.5893 75.7631 26.8487 75.857 27.1307C75.9508 27.4128 75.9846 27.7114 75.9563 28.0073C75.9852 28.3035 75.9517 28.6025 75.8581 28.885C75.7645 29.1675 75.6129 29.4273 75.4129 29.6478C75.2129 29.8682 74.969 30.0443 74.6969 30.1648C74.4248 30.2854 74.1304 30.3476 73.8328 30.3476C73.5352 30.3476 73.2408 30.2854 72.9687 30.1648C72.6966 30.0443 72.4527 29.8682 72.2527 29.6478C72.0527 29.4273 71.9011 29.1675 71.8075 28.885C71.7139 28.6025 71.6804 28.3035 71.7093 28.0073ZM75.0423 28.0073C75.0423 27.0312 74.6038 26.4604 73.8343 26.4604C73.0618 26.4604 72.6273 27.0312 72.6273 28.0073C72.6273 28.9912 73.0618 29.5576 73.8343 29.5576C74.6038 29.5576 75.0423 28.9873 75.0423 28.0073H75.0423Z" fill="white"/>
<path d="M81.6016 30.2607H80.6797L79.749 26.9443H79.6787L78.752 30.2607H77.8389L76.5977 25.7578H77.499L78.3057 29.1938H78.3721L79.2979 25.7578H80.1504L81.0762 29.1938H81.1465L81.9492 25.7578H82.8379L81.6016 30.2607Z" fill="white"/>
<path d="M83.8809 25.7579H84.7363V26.4732H84.8027C84.9154 26.2163 85.1054 26.0009 85.3463 25.8571C85.5871 25.7133 85.8669 25.6482 86.1465 25.6709C86.3656 25.6545 86.5856 25.6875 86.7902 25.7676C86.9948 25.8477 87.1787 25.9728 87.3284 26.1336C87.4781 26.2945 87.5897 26.4869 87.6549 26.6968C87.7201 26.9066 87.7372 27.1284 87.7051 27.3457V30.2607H86.8164V27.5689C86.8164 26.8453 86.502 26.4854 85.8447 26.4854C85.696 26.4785 85.5475 26.5038 85.4094 26.5596C85.2714 26.6154 85.147 26.7005 85.0449 26.8089C84.9428 26.9172 84.8653 27.0464 84.8177 27.1876C84.7702 27.3287 84.7538 27.4784 84.7695 27.6265V30.2608H83.8809L83.8809 25.7579Z" fill="white"/>
<path d="M89.1211 24H90.0098V30.2607H89.1211V24Z" fill="white"/>
<path d="M91.2463 28.0074C91.2181 27.7114 91.2519 27.4128 91.3458 27.1308C91.4397 26.8487 91.5914 26.5893 91.7914 26.3693C91.9914 26.1494 92.2351 25.9736 92.507 25.8533C92.7788 25.733 93.0728 25.6709 93.3701 25.6709C93.6674 25.6709 93.9614 25.733 94.2333 25.8533C94.5052 25.9736 94.7489 26.1494 94.9489 26.3693C95.1488 26.5893 95.3006 26.8487 95.3945 27.1308C95.4883 27.4128 95.5222 27.7114 95.4939 28.0074C95.5227 28.3036 95.4892 28.6026 95.3956 28.8851C95.302 29.1676 95.1503 29.4274 94.9503 29.6478C94.7503 29.8683 94.5064 30.0444 94.2342 30.1649C93.9621 30.2854 93.6678 30.3477 93.3701 30.3477C93.0725 30.3477 92.7782 30.2854 92.506 30.1649C92.2339 30.0444 91.99 29.8683 91.79 29.6478C91.59 29.4274 91.4383 29.1676 91.3446 28.8851C91.251 28.6026 91.2175 28.3036 91.2463 28.0074ZM94.5793 28.0074C94.5793 27.0313 94.1409 26.4605 93.3713 26.4605C92.5989 26.4605 92.1644 27.0313 92.1644 28.0074C92.1644 28.9913 92.5989 29.5577 93.3713 29.5577C94.1409 29.5577 94.5794 28.9873 94.5794 28.0074H94.5793Z" fill="white"/>
<path d="M96.4297 28.9873C96.4297 28.1767 97.0332 27.7095 98.1045 27.6431L99.3242 27.5727V27.1841C99.3242 26.7085 99.0098 26.4399 98.4023 26.4399C97.9063 26.4399 97.5625 26.6221 97.4639 26.9404H96.6035C96.6943 26.167 97.4219 25.6709 98.4434 25.6709C99.5723 25.6709 100.209 26.2329 100.209 27.1841V30.2607H99.3535V29.6279H99.2832C99.1405 29.8549 98.9401 30.04 98.7025 30.1642C98.4648 30.2884 98.1985 30.3473 97.9307 30.3349C97.7416 30.3546 97.5506 30.3344 97.3698 30.2757C97.1891 30.217 97.0226 30.1211 96.8812 29.9941C96.7398 29.8672 96.6265 29.712 96.5488 29.5386C96.471 29.3651 96.4304 29.1774 96.4297 28.9873ZM99.3242 28.6025V28.2261L98.2246 28.2964C97.6045 28.3379 97.3232 28.5488 97.3232 28.9458C97.3232 29.3511 97.6748 29.5869 98.1582 29.5869C98.2999 29.6012 98.443 29.5869 98.579 29.5448C98.715 29.5028 98.8411 29.4337 98.9499 29.3419C99.0587 29.2501 99.1479 29.1373 99.2122 29.0102C99.2765 28.8832 99.3146 28.7446 99.3242 28.6025Z" fill="white"/>
<path d="M101.377 28.0073C101.377 26.5845 102.108 25.6831 103.246 25.6831C103.528 25.6702 103.807 25.7376 104.051 25.8775C104.296 26.0173 104.496 26.224 104.627 26.4731H104.693V24H105.582V30.2607H104.73V29.5493H104.66C104.519 29.7968 104.312 30.0008 104.063 30.1393C103.813 30.2778 103.531 30.3455 103.246 30.3349C102.101 30.335 101.377 29.4336 101.377 28.0073ZM102.295 28.0073C102.295 28.9624 102.745 29.5371 103.498 29.5371C104.247 29.5371 104.71 28.9541 104.71 28.0112C104.71 27.0728 104.242 26.4815 103.498 26.4815C102.75 26.4815 102.295 27.0601 102.295 28.0073H102.295Z" fill="white"/>
<path d="M109.258 28.0073C109.23 27.7114 109.264 27.4128 109.357 27.1307C109.451 26.8487 109.603 26.5893 109.803 26.3693C110.003 26.1493 110.247 25.9736 110.519 25.8533C110.79 25.733 111.084 25.6709 111.382 25.6709C111.679 25.6709 111.973 25.733 112.245 25.8533C112.517 25.9736 112.76 26.1493 112.96 26.3693C113.16 26.5893 113.312 26.8487 113.406 27.1307C113.5 27.4128 113.533 27.7114 113.505 28.0073C113.534 28.3035 113.501 28.6025 113.407 28.885C113.313 29.1675 113.162 29.4273 112.962 29.6478C112.762 29.8682 112.518 30.0443 112.246 30.1648C111.974 30.2854 111.679 30.3476 111.382 30.3476C111.084 30.3476 110.79 30.2854 110.518 30.1648C110.245 30.0443 110.002 29.8682 109.802 29.6478C109.602 29.4273 109.45 29.1675 109.356 28.885C109.263 28.6025 109.229 28.3035 109.258 28.0073ZM112.591 28.0073C112.591 27.0312 112.153 26.4604 111.383 26.4604C110.611 26.4604 110.176 27.0312 110.176 28.0073C110.176 28.9912 110.611 29.5576 111.383 29.5576C112.153 29.5576 112.591 28.9873 112.591 28.0073Z" fill="white"/>
<path d="M114.697 25.7579H115.553V26.4732H115.619C115.732 26.2163 115.922 26.0009 116.163 25.8571C116.404 25.7133 116.683 25.6482 116.963 25.6709C117.182 25.6545 117.402 25.6875 117.607 25.7676C117.811 25.8477 117.995 25.9728 118.145 26.1336C118.295 26.2945 118.406 26.4869 118.471 26.6968C118.536 26.9066 118.554 27.1284 118.521 27.3457V30.2607H117.633V27.5689C117.633 26.8453 117.318 26.4854 116.661 26.4854C116.512 26.4785 116.364 26.5038 116.226 26.5596C116.088 26.6154 115.963 26.7005 115.861 26.8089C115.759 26.9172 115.682 27.0464 115.634 27.1876C115.587 27.3287 115.57 27.4784 115.586 27.6265V30.2608H114.697V25.7579Z" fill="white"/>
<path d="M123.544 24.6367V25.7783H124.52V26.5269H123.544V28.8423C123.544 29.314 123.738 29.5205 124.181 29.5205C124.294 29.5201 124.407 29.5133 124.52 29.5V30.2402C124.36 30.2688 124.198 30.284 124.036 30.2856C123.048 30.2856 122.654 29.938 122.654 29.0698V26.5268H121.939V25.7783H122.654V24.6367H123.544Z" fill="white"/>
<path d="M125.732 24H126.613V26.4815H126.684C126.802 26.2221 126.997 26.0055 127.243 25.8612C127.488 25.7168 127.773 25.6518 128.057 25.6748C128.275 25.6629 128.492 25.6993 128.695 25.7814C128.897 25.8634 129.079 25.9891 129.227 26.1494C129.375 26.3098 129.486 26.5008 129.552 26.709C129.617 26.9171 129.636 27.1372 129.607 27.3535V30.2607H128.718V27.5728C128.718 26.8535 128.383 26.4893 127.755 26.4893C127.602 26.4767 127.449 26.4977 127.305 26.5508C127.161 26.6038 127.031 26.6877 126.923 26.7964C126.815 26.9051 126.732 27.0362 126.68 27.1803C126.628 27.3244 126.608 27.4782 126.621 27.6308V30.2607H125.732L125.732 24Z" fill="white"/>
<path d="M134.789 29.045C134.668 29.4565 134.406 29.8125 134.05 30.0507C133.693 30.2888 133.264 30.394 132.838 30.3477C132.541 30.3556 132.246 30.2987 131.974 30.1812C131.701 30.0637 131.457 29.8883 131.26 29.6671C131.062 29.446 130.914 29.1844 130.827 28.9006C130.741 28.6168 130.717 28.3175 130.757 28.0235C130.718 27.7286 130.742 27.4287 130.829 27.144C130.915 26.8594 131.062 26.5966 131.259 26.3735C131.456 26.1504 131.698 25.9723 131.97 25.8511C132.242 25.7299 132.536 25.6684 132.834 25.671C134.087 25.671 134.842 26.527 134.842 27.941V28.2511H131.663V28.3009C131.649 28.4661 131.67 28.6324 131.724 28.7892C131.778 28.9459 131.864 29.0896 131.977 29.2111C132.09 29.3326 132.227 29.4291 132.379 29.4945C132.532 29.5599 132.696 29.5927 132.862 29.5909C133.075 29.6164 133.29 29.5781 133.481 29.4809C133.671 29.3837 133.829 29.2319 133.933 29.045L134.789 29.045ZM131.663 27.5938H133.937C133.948 27.4427 133.928 27.2909 133.877 27.1482C133.826 27.0055 133.746 26.875 133.641 26.7651C133.537 26.6553 133.411 26.5685 133.271 26.5103C133.131 26.4521 132.98 26.4239 132.829 26.4273C132.675 26.4254 132.523 26.4543 132.38 26.5122C132.238 26.5701 132.108 26.656 132 26.7647C131.891 26.8734 131.805 27.0028 131.747 27.1452C131.69 27.2876 131.661 27.4401 131.663 27.5938H131.663Z" fill="white"/>
</svg>
