<svg width="364" height="482" viewBox="0 0 364 482" fill="none" xmlns="http://www.w3.org/2000/svg">
<path opacity="0.4" d="M317.43 1.31794C328.938 1.12259 348.979 1.66957 337.082 5.42029C322.21 10.1087 311.587 21.8298 324.334 19.4856C334.532 17.6102 348.767 15.5786 354.609 14.7972C360.452 13.4297 368.631 13.1562 354.609 23.0019C337.082 35.3089 326.99 45.8578 333.895 46.4439C340.8 47.0299 344.518 42.9276 341.862 52.8904C339.206 62.8533 336.019 69.8859 350.891 80.4348" stroke="#15CE73" stroke-width="2"/>
<path opacity="0.3" d="M338.105 368.28C337.867 367.781 337.27 367.567 336.772 367.802C336.274 368.038 336.063 368.633 336.3 369.133L338.105 368.28ZM319.342 408.13L319.121 407.153L319.342 408.13ZM280.68 437.218C280.247 437.559 280.174 438.187 280.517 438.622L286.107 445.704C286.45 446.139 287.079 446.215 287.511 445.874C287.944 445.533 288.017 444.904 287.674 444.469L282.706 438.174L288.974 433.236C289.407 432.895 289.48 432.266 289.137 431.832C288.794 431.397 288.165 431.321 287.732 431.662L280.68 437.218ZM336.3 369.133C338.786 374.354 340.865 382.499 339.143 389.99C338.288 393.714 336.494 397.274 333.339 400.261C330.18 403.251 325.607 405.712 319.121 407.153L319.564 409.106C326.327 407.603 331.248 405.001 334.717 401.717C338.19 398.43 340.159 394.507 341.092 390.447C342.949 382.37 340.708 373.748 338.105 368.28L336.3 369.133ZM319.121 407.153C311.031 408.951 305.402 407.669 301.78 405.096C298.151 402.519 296.382 398.538 296.208 394.622C296.034 390.684 297.476 386.946 300.09 384.833C302.639 382.773 306.507 382.096 311.609 384.653L312.498 382.866C306.845 380.032 302.106 380.626 298.829 383.275C295.617 385.871 294.015 390.279 294.211 394.701C294.408 399.145 296.423 403.739 300.628 406.725C304.838 409.716 311.091 410.989 319.564 409.106L319.121 407.153ZM311.609 384.653C316.637 387.173 319.507 391.865 320.413 397.549C321.322 403.251 320.238 409.903 317.373 416.138C311.643 428.603 298.936 439.127 281.416 437.012L281.186 438.998C299.766 441.241 313.191 430.032 319.19 416.981C322.189 410.456 323.37 403.404 322.388 397.243C321.403 391.065 318.226 385.736 312.498 382.866L311.609 384.653Z" fill="#15CE73"/>
<path opacity="0.1" d="M2 462.435C11.2262 447.629 12.5717 423.365 12.0911 413.083C24.7772 426.655 45.2478 438.273 53.8973 442.386C42.3646 453.49 41.4035 471.688 42.3646 479.399C26.2188 465.827 8.72743 462.435 2 462.435Z" stroke="#15CE73" stroke-width="2"/>
</svg>
