<svg width="196" height="76" viewBox="0 0 196 76" fill="none" xmlns="http://www.w3.org/2000/svg">
<path d="M101.119 30.5205C100.218 30.5205 99.4577 30.2038 98.8567 29.5804C98.2606 28.9744 97.9278 28.139 97.9427 27.2861C97.9427 26.3759 98.2507 25.6053 98.8567 24.9943C99.4552 24.3709 100.215 24.0542 101.117 24.0542C102.008 24.0542 102.768 24.3709 103.379 24.9943C103.985 25.6253 104.293 26.3958 104.293 27.2861C104.283 28.1988 103.975 28.9694 103.379 29.5779C102.781 30.2063 102.021 30.5205 101.119 30.5205ZM74.2946 30.5205C73.413 30.5205 72.6481 30.2088 72.0222 29.5929C71.4013 28.9794 71.0859 28.2038 71.0859 27.2886C71.0859 26.3734 71.4013 25.5978 72.0222 24.9844C72.6357 24.3684 73.4006 24.0567 74.2946 24.0567C74.7317 24.0567 75.1564 24.144 75.5637 24.321C75.9636 24.4931 76.2889 24.7275 76.5298 25.0143L76.5894 25.0866L75.9164 25.75L75.8468 25.6677C75.4669 25.2138 74.9577 24.9919 74.2847 24.9919C73.6837 24.9919 73.1597 25.2063 72.7275 25.6303C72.2929 26.0567 72.0719 26.6153 72.0719 27.2911C72.0719 27.9669 72.2929 28.5255 72.7275 28.952C73.1597 29.3759 73.6837 29.5904 74.2847 29.5904C74.9255 29.5904 75.4644 29.3759 75.8841 28.952C76.1324 28.7026 76.2864 28.3535 76.3411 27.9121H74.1829V26.9794H77.2674L77.2798 27.0642C77.3022 27.2213 77.3245 27.3834 77.3245 27.533C77.3245 28.3934 77.0663 29.0891 76.5546 29.6028C75.9735 30.2113 75.2135 30.5205 74.2946 30.5205ZM109.96 30.3884H109.009L106.096 25.7076L106.121 26.5505V30.3859H105.17V24.1889H106.255L106.285 24.2362L109.024 28.6452L108.999 27.8048V24.1889H109.96V30.3884ZM93.9716 30.3884H93.008V25.1215H91.3366V24.1889H95.6405V25.1215H93.9691V30.3884H93.9716ZM90.5518 30.3884H89.5906V24.1889H90.5518V30.3884ZM85.1501 30.3884H84.189V25.1215H82.5176V24.1889H86.8215V25.1215H85.1501V30.3884ZM81.9091 30.3784H78.2236V24.1889H81.9091V25.1215H79.1872V26.8223H81.6434V27.745H79.1872V29.4457H81.9091V30.3784ZM99.562 28.9395C99.9916 29.3709 100.513 29.5879 101.119 29.5879C101.743 29.5879 102.252 29.3759 102.676 28.9395C103.099 28.5155 103.312 27.9594 103.312 27.2886C103.312 26.6178 103.099 26.0592 102.679 25.6377C102.249 25.2063 101.725 24.9894 101.122 24.9894C100.498 24.9894 99.9891 25.2013 99.5669 25.6377C99.1447 26.0617 98.9312 26.6178 98.9312 27.2886C98.9312 27.9594 99.1423 28.518 99.562 28.9395Z" fill="#15CE73"/>
<path fill-rule="evenodd" clip-rule="evenodd" d="M97.8528 39.044C95.5059 39.044 93.6035 40.832 93.6035 43.2984C93.6035 45.7422 95.5183 47.5527 97.8528 47.5527C100.2 47.5527 102.102 45.7522 102.102 43.2984C102.102 40.832 100.2 39.044 97.8528 39.044ZM97.8528 45.8669C96.5688 45.8669 95.4636 44.7996 95.4636 43.2884C95.4636 41.7547 96.5713 40.7098 97.8528 40.7098C99.1368 40.7098 100.242 41.7547 100.242 43.2884C100.244 44.8096 99.1368 45.8669 97.8528 45.8669ZM88.5818 39.044C86.2348 39.044 84.3324 40.832 84.3324 43.2984C84.3324 45.7422 86.2472 47.5527 88.5818 47.5527C90.9287 47.5527 92.8311 45.7522 92.8311 43.2984C92.8311 40.832 90.9262 39.044 88.5818 39.044ZM88.5818 45.8669C87.2978 45.8669 86.1926 44.7996 86.1926 43.2884C86.1926 41.7547 87.3003 40.7098 88.5818 40.7098C89.8658 40.7098 90.9709 41.7547 90.9709 43.2884C90.9709 44.8096 89.8658 45.8669 88.5818 45.8669ZM77.5499 40.3432V42.1437H81.8539C81.7222 43.1537 81.3894 43.8994 80.8803 44.4106C80.2495 45.044 79.2759 45.7323 77.5598 45.7323C74.9149 45.7323 72.8461 43.5876 72.8461 40.9318C72.8461 38.2759 74.9149 36.1313 77.5598 36.1313C78.9879 36.1313 80.0285 36.6974 80.8008 37.4206L82.0724 36.1437C80.9995 35.1113 79.5715 34.3208 77.5698 34.3208C73.9413 34.3208 70.8965 37.2884 70.8965 40.9218C70.8965 44.5652 73.9388 47.5228 77.5698 47.5228C79.5293 47.5228 80.9995 46.8794 82.1618 45.6674C83.3465 44.4779 83.7215 42.7996 83.7215 41.4455C83.7215 41.024 83.6892 40.645 83.6221 40.3233H77.5474C77.5499 40.3208 77.5499 40.3432 77.5499 40.3432ZM122.673 41.7447C122.318 40.7896 121.245 39.034 119.045 39.034C116.864 39.034 115.051 40.7572 115.051 43.2884C115.051 45.6774 116.844 47.5427 119.256 47.5427C121.193 47.5427 122.321 46.3532 122.785 45.655L121.347 44.6874C120.87 45.3981 120.207 45.8644 119.266 45.8644C118.315 45.8644 117.649 45.4305 117.207 44.5752L122.872 42.2186C122.872 42.221 122.673 41.7447 122.673 41.7447ZM116.897 43.1662C116.852 41.5228 118.168 40.6874 119.109 40.6874C119.852 40.6874 120.47 41.054 120.681 41.5876L116.897 43.1662ZM112.295 47.2884H114.155V34.7896H112.295V47.2884ZM109.24 39.9891H109.173C108.753 39.4879 107.956 39.034 106.938 39.034C104.824 39.034 102.877 40.9018 102.877 43.3008C102.877 45.6899 104.814 47.5353 106.938 47.5353C107.943 47.5353 108.753 47.0789 109.173 46.5677H109.24V47.1787C109.24 48.8021 108.376 49.6774 106.982 49.6774C105.842 49.6774 105.135 48.8545 104.846 48.1662L103.23 48.8445C103.694 49.9667 104.933 51.3557 106.98 51.3557C109.16 51.3557 111.008 50.0664 111.008 46.9218V39.2884H109.25V39.9891C109.252 39.9891 109.24 39.9891 109.24 39.9891ZM107.104 45.8669C105.82 45.8669 104.747 44.7896 104.747 43.3008C104.747 41.7996 105.82 40.7123 107.104 40.7123C108.376 40.7123 109.362 41.8121 109.362 43.3008C109.374 44.7896 108.378 45.8669 107.104 45.8669ZM131.383 34.7896H126.935V47.2884H128.795V42.5552H131.386C133.444 42.5552 135.468 41.0565 135.468 38.6774C135.468 36.2984 133.452 34.7896 131.383 34.7896ZM131.438 40.8096H128.793V36.5203H131.438C132.831 36.5203 133.618 37.6749 133.618 38.6649C133.618 39.645 132.821 40.8096 131.438 40.8096ZM142.924 39.0215C141.573 39.0215 140.18 39.6225 139.604 40.9318L141.253 41.6201C141.608 40.9318 142.258 40.6974 142.946 40.6974C143.91 40.6974 144.884 41.2759 144.906 42.3083V42.4405C144.573 42.251 143.843 41.9617 142.969 41.9617C141.188 41.9617 139.383 42.9393 139.383 44.7722C139.383 46.4505 140.843 47.5278 142.47 47.5278C143.719 47.5278 144.407 46.9617 144.836 46.3058H144.903V47.2734H146.697V42.4854C146.697 40.256 145.047 39.0215 142.924 39.0215ZM142.691 45.8669C142.082 45.8669 141.23 45.5677 141.23 44.7996C141.23 43.832 142.293 43.4654 143.2 43.4654C144.019 43.4654 144.407 43.6425 144.894 43.8869C144.759 45.0091 143.816 45.857 142.691 45.8669ZM153.238 39.2884L151.102 44.7098H151.035L148.822 39.2884H146.821L150.141 46.8669L148.249 51.0789H150.186L155.295 39.2884H153.238ZM136.494 47.2884H138.354V34.7896H136.494V47.2884Z" fill="#15CE73"/>
<path d="M56.5554 41.4047L53.069 37.8742L56.5527 34.3263C59.0409 35.7149 60.9514 36.7758 61.3185 36.9704C62.5041 37.6157 61.9016 38.4465 61.3185 38.7605C61.1924 38.824 60.1402 39.4095 58.5793 40.278L58.578 40.2788C58.3267 40.4186 58.0623 40.5658 57.7865 40.7194C57.3973 40.9362 56.9853 41.1656 56.5554 41.4047Z" fill="#15CE73"/>
<path d="M55.9206 41.7577L52.5788 38.3734L41.4116 49.7465C41.5462 49.7055 41.689 49.6433 41.8415 49.5585C41.9557 49.4952 42.2336 49.3415 42.642 49.1156L42.6663 49.1021C44.9648 47.8309 51.2755 44.3404 55.9206 41.7577Z" fill="#15CE73"/>
<path d="M40.4992 49.6771C40.1715 49.4535 40 48.9858 40 48.3953V27.4453C40 26.7923 40.2274 26.3905 40.5423 26.1844L52.0871 37.8756L40.4992 49.6771Z" fill="#15CE73"/>
<path d="M41.397 26.0542L52.5773 37.3763L55.9064 33.9858C53.8421 32.8457 42.5869 26.6301 41.8413 26.2286C41.6996 26.1434 41.5488 26.086 41.397 26.0542Z" fill="#15CE73"/>
<rect x="0.5" y="0.554199" width="194.295" height="74.3015" rx="7.5" stroke="#15CE73"/>
</svg>
