<svg width="616" height="286" viewBox="0 0 616 286" fill="none" xmlns="http://www.w3.org/2000/svg">
<path opacity="0.8" d="M615.997 255.951C615.997 272.346 478.101 285.637 307.997 285.637C137.894 285.637 0 272.346 0 255.951C0 239.557 137.896 226.266 307.997 226.266C478.099 226.266 615.997 239.557 615.997 255.951Z" fill="#AD9BF6"/>
<path d="M124.742 156.787L122.254 153.281C122.082 153.038 121.97 152.77 121.925 152.493C121.88 152.215 121.902 151.933 121.991 151.662C122.081 151.391 122.234 151.137 122.444 150.915C122.654 150.692 122.916 150.506 123.214 150.366L137.31 143.747C137.608 143.607 137.938 143.516 138.28 143.479C138.621 143.443 138.969 143.461 139.302 143.534C139.634 143.607 139.947 143.732 140.22 143.903C140.493 144.073 140.723 144.286 140.895 144.529L143.385 148.034C143.732 148.524 143.826 149.106 143.646 149.653C143.466 150.2 143.026 150.666 142.423 150.949L128.327 157.568C127.724 157.85 127.008 157.927 126.336 157.781C125.664 157.635 125.091 157.277 124.742 156.787Z" fill="#525252"/>
<path d="M127.032 155.198C126.548 154.983 126.109 154.706 125.733 154.377C125.733 154.377 125.226 153.671 124.831 153.187C124.731 153.062 124.622 152.941 124.505 152.826C123.77 152.261 123.152 151.604 122.674 150.88C121.962 148.997 121.384 147.081 120.942 145.143L123.925 143.906L126.515 142.423C129.154 143.78 131.667 145.294 134.033 146.952C134.097 147.034 134.155 147.119 134.207 147.206C134.498 147.837 134.709 148.49 134.835 149.155C134.904 149.314 135.473 150.927 135.124 151.341C134.95 151.581 134.703 151.781 134.407 151.922C134.112 152.063 133.776 152.14 133.434 152.147C132.897 152.735 132.168 153.189 131.33 153.458C131.058 153.758 130.704 154.003 130.296 154.174C129.889 154.345 129.439 154.437 128.98 154.444C128.98 154.444 127.934 155.405 127.032 155.198Z" fill="#EEA886"/>
<path d="M71.1293 166.879L57.6045 164.425C56.9441 164.304 56.3694 163.976 56.0066 163.511C55.6439 163.046 55.5227 162.484 55.6698 161.946L57.5733 155.01C57.7219 154.473 58.1261 154.006 58.6973 153.711C59.2686 153.416 59.9602 153.317 60.6208 153.436L74.1456 155.891C74.8057 156.012 75.38 156.341 75.7427 156.805C76.1053 157.27 76.2268 157.832 76.0804 158.37L74.1768 165.306C74.0288 165.843 73.6246 166.311 73.0532 166.606C72.4818 166.901 71.7899 166.999 71.1293 166.879ZM60.2454 154.797C60.1378 154.777 60.0265 154.775 59.9179 154.791C59.8093 154.806 59.7056 154.839 59.6126 154.887C59.5195 154.935 59.439 154.998 59.3757 155.071C59.3124 155.145 59.2676 155.228 59.2437 155.315L57.3401 162.25C57.2918 162.426 57.3315 162.611 57.4506 162.764C57.5697 162.917 57.7584 163.025 57.9754 163.064L71.5002 165.519C71.7173 165.558 71.9446 165.526 72.1324 165.429C72.3202 165.333 72.4532 165.179 72.502 165.003L74.4055 158.066C74.4294 157.979 74.4319 157.888 74.4128 157.8C74.3938 157.711 74.3534 157.627 74.2942 157.551C74.235 157.476 74.1581 157.41 74.0678 157.359C73.9775 157.307 73.8757 157.271 73.7681 157.252L60.2454 154.797Z" fill="#0E1E2B"/>
<path d="M61.5737 157.455C61.3941 157.049 61.2958 156.623 61.2827 156.191C61.2827 156.191 61.4738 155.418 61.5693 154.86C61.5965 154.717 61.6136 154.573 61.6204 154.428C61.5349 153.638 61.606 152.841 61.8313 152.069C62.8011 150.336 63.8928 148.651 65.1009 147.02L68.2328 147.681L71.2737 147.961C72.1104 150.318 72.7324 152.722 73.135 155.153C73.1158 155.245 73.0906 155.337 73.0594 155.427C72.7734 156.035 72.4109 156.616 71.9777 157.163C71.9022 157.313 71.0404 158.776 70.4629 158.893C70.1475 158.976 69.8116 158.992 69.4866 158.939C69.1616 158.887 68.8585 158.768 68.6059 158.594C67.7547 158.738 66.8707 158.686 66.0538 158.444C65.6204 158.519 65.1716 158.512 64.7422 158.423C64.3127 158.334 63.9141 158.166 63.5772 157.932C63.5772 157.932 62.0602 158.075 61.5737 157.455Z" fill="#EEA886"/>
<path d="M94.0476 100.503C93.4456 101.133 91.0579 104.748 88.5324 108.604L87.2774 110.521L86.2824 112.042L85.2338 113.638C83.8234 115.786 82.6329 117.575 82.0376 118.377C80.334 120.682 77.5641 129.072 76.8911 130.732C76.2181 132.392 72.893 148.825 72.893 148.825C72.893 148.825 62.2312 148.854 62.5644 148.2C62.8976 147.546 66.9446 129.811 67.7576 127.141C68.8304 123.633 72.944 114.199 73.3572 113.5C73.7703 112.8 82.4396 98.0893 83.6124 95.5604C85.018 91.808 87.4314 88.3566 90.6781 85.4556C91.8897 84.0634 93.6643 83.0616 95.6919 82.6254C97.7195 82.1893 99.871 82.3463 101.771 83.0693C106.58 85.8746 95.2803 99.2092 94.0476 100.503Z" fill="#FE6B03"/>
<path d="M90.5538 167.28L39.8127 158.072L31.6997 187.637L82.4408 196.846L90.5538 167.28Z" fill="#FE6B03"/>
<path d="M90.5538 167.28L39.8127 158.072L35.1099 175.21L85.851 184.418L90.5538 167.28Z" fill="#FE9D00"/>
<path d="M96.842 79.8631C97.2031 77.5651 97.2031 75.239 96.842 72.941C96.842 72.941 109.56 77.7225 107.359 79.0194C106.723 79.4844 106.287 80.103 106.115 80.7844C105.629 82.6022 105.447 84.465 105.573 86.3225L109.778 90.311C113.503 94.4675 96.5244 81.2395 96.842 79.8631Z" fill="#EEA886"/>
<path d="M54.6836 235.567C54.6836 235.567 55.8587 239.4 56.9204 244.139C57.9822 248.879 62.9176 252.357 63.6262 253.195C64.3347 254.033 67.551 257.393 64.7368 257.799C61.9225 258.206 50.4034 251.948 47.2493 248.354C47.2493 248.354 45.3657 244.951 45.1103 244.741C44.8549 244.531 43.2467 245.554 43.2467 245.554L40.2992 243.899C39.6963 243.536 39.1276 243.137 38.5977 242.705C38.1424 242.272 39.213 239.851 39.3774 239.622C39.564 239.358 44.7215 233.592 48.04 232.346C51.3585 231.099 54.6836 235.567 54.6836 235.567Z" fill="#34395C"/>
<path d="M150.95 246.087C150.95 246.087 154.997 248.074 159.735 250.753C164.473 253.432 170.761 253.101 171.951 253.282C173.142 253.462 178.171 254.004 176.616 255.834C175.061 257.664 161.956 259.712 156.774 258.979C156.774 258.979 152.614 257.675 152.267 257.678C151.921 257.682 151.696 259.266 151.696 259.266L148.298 259.754C147.581 259.836 146.857 259.875 146.132 259.869C145.466 259.823 144.191 257.608 144.042 257.317C143.893 257.026 142.538 250.22 143.733 247.527C144.928 244.833 150.95 246.087 150.95 246.087Z" fill="#3C4169"/>
<path d="M58.4152 229.508C56.9676 231.616 55.6625 233.787 54.5059 236.011C54.2837 236.988 48.8197 237.017 47.7513 232.844C47.7513 232.844 52.0204 225.868 51.8827 225.682C51.745 225.496 58.4152 229.508 58.4152 229.508Z" fill="#EEA886"/>
<path d="M96.6841 169.112C96.6841 169.112 96.271 170.257 95.6202 172.073C95.1959 173.25 94.665 174.714 94.0831 176.33C91.4176 183.706 87.555 194.286 86.8464 195.776C84.927 199.135 82.5876 202.324 79.8652 205.294C79.0967 205.682 59.0327 233.742 58.4152 235.068C58.4152 235.068 50.179 232.032 48.6753 229.804C48.6753 229.804 62.4089 198.881 67.9552 193.451C73.2994 188.213 73.004 156.999 77.8573 147.569C82.7106 138.14 99.6361 160.926 96.6841 169.112Z" fill="#34395C"/>
<path d="M148.334 239.851C149.145 242.103 150.105 244.318 151.21 246.486C151.876 247.286 148.216 250.314 143.956 248.032C143.956 248.032 140.924 240.877 140.673 240.825C140.422 240.772 148.334 239.851 148.334 239.851Z" fill="#EEA886"/>
<path d="M111.357 147.797C111.357 147.797 128.527 180.031 130.504 184.856C132.481 189.681 131.53 193.805 132.614 195.814C133.698 197.822 149.471 242.754 149.471 242.754C149.471 242.754 141.128 246.471 137.354 244.974C137.354 244.974 123.07 215.404 120.051 210.563C117.217 206.016 115.64 196.883 112.004 191.009C109.458 186.896 78.1861 155.512 77.9106 143.922C77.6352 132.332 111.357 147.797 111.357 147.797Z" fill="#393D63"/>
<path d="M96.9529 80.2209C99.877 81.2501 102.223 83.1305 103.53 85.4936C105.202 89.1479 104.496 93.9835 104.569 95.6562C104.643 97.3288 107.988 113.689 108.414 114.177C108.841 114.665 115.58 124.768 118.354 129.892C120.84 133.995 123.768 137.91 127.106 141.59L122.499 143.785C122.499 143.785 101.509 123.707 100.274 118.212C99.0386 112.717 90.8934 96.1746 90.8934 96.1746C90.8934 96.1746 86.8731 83.9221 96.9529 80.2209Z" fill="#EEA886"/>
<path d="M106.144 49.9716C109.869 49.8938 113.484 51.0002 116.221 53.0557C118.959 55.1113 120.603 57.9539 120.804 60.9795C120.538 62.4557 120.13 63.9125 119.582 65.3365C118.783 67.2476 120.711 72.981 120.147 73.2484C119.216 73.514 118.255 73.7058 117.279 73.821C117.279 73.821 114.6 79.9753 111.922 79.8615C108.259 79.5084 104.761 78.4197 101.744 76.6935C98.7277 74.9674 96.2865 72.658 94.6406 69.9734C90.1316 62.1392 89.0654 50.2461 106.144 49.9716Z" fill="#EEA886"/>
<path d="M120.808 60.9792C116.589 63.1197 111.895 64.5658 106.99 65.2352C100.16 65.8475 95.6134 71.4598 95.6134 71.4598C95.6134 71.4598 85.6181 60.6488 94.2697 52.2907C102.921 43.9327 122.657 50.4047 120.808 60.9792Z" fill="#3B3B40"/>
<path d="M116.013 111.971C113.912 113.778 115.638 117.932 115.347 120.304C115.271 120.936 115.027 123.014 114.68 125.763C114.332 128.606 113.878 132.17 113.412 135.608C113.228 136.98 113.039 138.333 112.852 139.612C112.546 142.362 112.04 145.095 111.34 147.797C110.307 150.167 87.2574 150.281 78.1394 142.253C78.1394 142.253 76.5335 139.612 86.9998 124.236C89.0988 121.153 87.0397 105.855 85.3493 101.803C83.659 97.7515 83.0572 83.9816 96.8219 79.8631C96.8219 79.8631 105.089 85.6724 107.91 88.2718C110.731 90.8712 119.942 100.273 120.793 103.102C121.644 105.931 118.301 110.024 116.013 111.971Z" fill="#FE6B03"/>
<path d="M107.357 79.0231C106.721 79.488 106.285 80.1067 106.113 80.788C103.058 79.2702 100.506 77.168 98.6787 74.6644C101.128 76.6329 104.096 78.1232 107.357 79.0231Z" fill="#A77860"/>
<path d="M115.353 120.304C115.278 120.936 115.033 123.014 114.687 125.763C112.579 127.389 98.25 104.878 105.007 98.4688C105.007 98.4688 109.782 113.584 110.302 114.348C110.822 115.112 115.353 120.304 115.353 120.304Z" fill="#AF4800"/>
<path d="M97.0707 80.7825C100.231 82.0173 102.777 84.0938 104.285 86.6676C106.033 90.4862 105.293 95.5423 105.369 97.2872C105.445 99.0322 108.941 116.135 109.385 116.644C112.941 121.021 116.132 125.587 118.936 130.311C121.643 134.751 124.796 139.002 128.363 143.021L120.513 146.599C120.513 146.599 101.755 127.324 99.9805 121.671C98.0813 115.629 91.0756 97.8273 91.0756 97.8273C91.0756 97.8273 85.0407 82.5871 97.0707 80.7825Z" fill="#FE6B03"/>
<path d="M87.2774 110.521L86.2823 112.042L85.2316 113.639C84.763 109.05 84.5454 97.8638 84.5454 97.8638C84.846 99.5695 85.2522 101.262 85.7625 102.934C86.3445 104.562 87.1574 109.741 87.2774 110.521Z" fill="#AF4800"/>
<path d="M104.225 48.4813C104.225 48.4813 86.4889 47.3649 87.2774 64.9191C88.0659 82.4734 84.4432 87.085 76.598 95.0366C68.7527 102.988 75.6318 112.905 83.2371 107.8C88.2221 104.111 92.2489 99.6475 95.0806 94.673C97.9122 89.6986 99.4913 84.3136 99.7249 78.8353C99.8893 66.4997 104.225 48.4813 104.225 48.4813Z" fill="#3B3B40"/>
<path d="M104.17 64.9172C104.204 64.5649 104.103 64.2126 103.881 63.9091C103.658 63.6055 103.325 63.3658 102.927 63.2231C102.53 63.0804 102.088 63.0418 101.662 63.1126C101.236 63.1835 100.848 63.3603 100.551 63.6185C98.3411 65.0328 101.069 70.1936 102.855 69.7348C104.641 69.276 104.17 66.0245 104.17 64.9172Z" fill="#EEA886"/>
<path d="M95.6202 172.071C95.196 173.249 94.6651 174.712 94.0831 176.329C92.0618 172.911 87.4374 162.046 87.2952 161.706C88.448 163.265 95.4492 171.869 95.6202 172.071Z" fill="#2B2D4A"/>
<path d="M599.784 129.627C599.784 129.627 601.561 132.943 603.283 132.528C604.939 132.227 606.645 132.152 608.332 132.306C609.398 132.401 612.867 131.739 612.663 132.793C612.459 133.848 606.999 134.098 605.857 134.327C604.716 134.556 608.82 136.917 609.107 137.826C609.393 138.735 603.663 143.993 601.111 142.111C598.559 140.228 597.49 136.84 596.953 136.581C595.903 135.654 594.937 134.666 594.065 133.624L599.784 129.627Z" fill="#EEA886"/>
<path d="M608.649 137.269C608.649 137.269 615.979 143.458 615.999 144.204C616.019 144.95 615.555 145.255 614.833 144.701C614.112 144.146 607.524 138.89 607.524 138.89C607.524 138.89 614.542 147.407 614.735 148.008C614.849 148.369 613.974 148.993 613.554 148.731C613.134 148.469 605.538 140.355 605.538 140.355C605.538 140.355 612.07 148.315 612.037 148.864C612.009 149 611.934 149.127 611.82 149.229C611.706 149.332 611.559 149.405 611.395 149.442C611.232 149.478 611.059 149.476 610.898 149.435C610.736 149.394 610.592 149.317 610.482 149.211C609.945 148.649 603.325 141.545 603.325 141.545C603.325 141.545 607.599 147.591 607.219 148.048C606.997 148.331 606.264 148.904 605.22 147.314C604.176 145.725 601.222 142.195 601.222 142.195L608.649 137.269Z" fill="#EEA886"/>
<path d="M509.013 245.903C509.013 245.903 506.206 247.528 504.651 248.674C502.408 250.018 500.685 251.856 499.682 253.97C499.339 254.54 499.185 255.173 499.236 255.807C499.287 256.44 499.54 257.052 499.971 257.582C500.402 258.111 500.996 258.539 501.693 258.825C502.39 259.11 503.167 259.242 503.947 259.208C507.458 259.389 512.831 257.221 513.362 254.613C513.893 252.004 518.005 252.33 518.542 250.489C518.83 249.124 518.769 247.726 518.362 246.381L509.013 245.903Z" fill="#353A3D"/>
<path d="M509.48 243.764L509.013 245.904C509.013 245.904 510.459 248.072 518.362 246.387L517.956 244.277L509.48 243.764Z" fill="#81807E"/>
<path d="M518.362 246.388C518.362 246.388 516.585 246.578 515.315 246.75C514.044 246.921 511.539 245.594 509.013 245.913L509.788 248.516C509.788 248.516 518.187 247.228 518.362 246.388Z" fill="#353A3D"/>
<path d="M559.494 245.478C559.494 245.478 562.302 247.104 563.859 248.249C566.101 249.595 567.824 251.433 568.825 253.547C569.168 254.117 569.322 254.751 569.271 255.384C569.22 256.018 568.967 256.629 568.536 257.159C568.105 257.688 567.512 258.117 566.814 258.402C566.117 258.687 565.34 258.82 564.561 258.786C561.051 258.966 555.676 256.799 555.145 254.19C554.614 251.582 550.503 251.907 549.965 250.064C549.678 248.7 549.74 247.301 550.147 245.957L559.494 245.478Z" fill="#353A3D"/>
<path d="M559.026 243.337L559.494 245.478C559.494 245.478 558.048 247.646 550.145 245.96L550.554 243.851L559.026 243.337Z" fill="#81807E"/>
<path d="M562.808 194.638C562.808 199.335 561.98 243.726 561.98 243.726C561.402 245.294 550.594 245.807 548.666 245.025C546.738 244.242 547.076 200.227 546.72 195.485C546.365 190.743 541.676 155.843 539.986 156C538.295 156.157 528.738 189.031 527.387 192.636C526.037 196.242 520.724 244.774 520.724 244.774C516.395 245.862 511.777 245.939 507.396 244.997C507.396 244.997 509.917 195.848 509.92 190.012C509.92 187.844 510.706 186.208 511.461 174.692C512.036 165.915 515.039 147.927 517.05 135.552C517.121 135.111 517.19 134.688 517.256 134.287C517.649 131.879 517.947 130.109 518.087 129.26C518.147 128.899 518.18 128.698 518.18 128.698C518.722 128.494 519.291 128.308 519.879 128.135C534.002 124.007 561.24 128.377 561.24 128.377C561.24 128.377 561.256 128.485 561.287 128.691C561.322 128.94 561.38 129.331 561.451 129.835C561.609 130.918 561.842 132.544 562.118 134.437C562.118 134.452 562.118 134.464 562.118 134.479C562.118 134.535 562.133 134.594 562.142 134.659C563.093 141.372 563.563 145.057 564.31 152.221C564.463 153.776 562.808 189.934 562.808 194.638Z" fill="#292C47"/>
<path d="M548.528 65.1268C548.528 65.1268 571.658 69.1206 573.586 74.3392C575.514 79.5578 579.256 91.843 584.469 105.196C587.579 113.183 603.416 131.375 603.416 131.375C603.416 131.375 594.358 136.805 594.358 136.072C594.358 135.339 573.035 112.192 572.77 109.368C572.506 106.545 566.049 92.1103 566.049 92.1103C566.049 92.1103 562.986 119.863 562.986 124.148C562.986 128.433 564.319 141.608 564.319 141.608C564.319 141.608 555.019 147.889 538.377 147.183C538.377 147.183 514.866 147.262 515.19 139.742C515.477 133.115 517.483 93.4126 516.967 93.2031C516.452 92.9936 507.221 102.399 508.12 104.209C509.02 106.019 532.916 112.519 532.916 112.519C532.916 112.519 533.613 114.612 529.901 119.354C529.901 119.354 494.209 110.864 494.08 109.094C493.951 107.323 508.927 72.8021 513.816 70.9957C520.857 68.3946 539.508 64.9244 539.508 64.9244L548.528 65.1268Z" fill="#15CE73"/>
<path d="M550.145 245.96C550.145 245.96 551.922 246.15 553.193 246.322C554.463 246.493 556.969 245.165 559.494 245.487L558.719 248.09C558.719 248.09 550.323 246.8 550.145 245.96Z" fill="#353A3D"/>
<path d="M549.35 65.5694C549.239 70.163 536.27 75.0004 536.27 75.0004C536.27 75.0004 533.115 66.4147 534.208 65.9686C534.637 65.7879 534.775 65.685 534.828 64.9046C534.862 64.21 534.841 63.5144 534.766 62.822C534.732 62.4968 534.701 62.28 534.701 62.28C534.701 62.28 536.256 60.9397 538.255 59.3411C541.729 56.5466 546.696 52.4117 546.709 53.8351C546.709 53.911 546.845 53.9489 546.816 54.0519C545.976 57.2618 549.35 65.5694 549.35 65.5694Z" fill="#EEA886"/>
<path d="M544.492 57.8274C544.47 57.8545 544.006 58.4199 543.215 59.2291C541.023 61.6418 538.146 63.5882 534.83 64.9029C534.864 64.2083 534.844 63.5125 534.768 62.82C534.403 62.8127 534.039 62.777 533.682 62.7135C534.401 61.7299 535.196 60.7839 536.061 59.8812L538.257 59.3392L544.492 57.8274Z" fill="#A77860"/>
<path d="M546.591 54.4583C545.645 56.1328 544.746 57.3485 544.492 57.8254C544.154 58.3414 543.724 58.8137 543.215 59.2271C541.087 61.2749 538.057 62.5635 534.775 62.8165C534.409 62.8092 534.045 62.7736 533.688 62.71C532.903 62.6161 532.155 62.3763 531.502 62.0094C530.85 61.6426 530.309 61.1586 529.924 60.5947C527.904 57.5999 526.691 54.2896 526.366 50.8841C526.042 47.4787 526.612 44.056 528.04 40.8437C528.04 40.8437 546.698 36.5537 549.619 41.1202C551.658 44.3265 548.815 50.5258 546.591 54.4583Z" fill="#EEA886"/>
<path d="M528.031 40.8474C528.031 40.8474 526.299 40.7698 525.87 38.0982C525.448 35.4591 529.646 33.6418 529.646 33.6418C531.887 32.7117 534.295 32.0777 536.781 31.7633C539.553 31.449 546.347 31.0948 547.942 32.5779C547.942 32.5779 551.815 31.8463 552.87 37.0757C554.545 45.3741 547.164 53.4289 547.164 53.4289C547.164 53.4289 547.226 48.0098 545.756 47.2872C544.286 46.5647 543.018 48.277 543.018 48.277L540.01 48.7161C540.01 48.7161 544.27 42.0162 538.793 41.7199C535.187 41.6116 531.592 41.3202 528.031 40.8474Z" fill="#223247"/>
<path d="M543.095 46.1166C543.382 43.7286 548.693 42.8181 548.337 45.3199C547.982 47.8217 545.367 50.2279 544.159 50.143C542.951 50.0581 542.878 47.9356 543.095 46.1166Z" fill="#EEA886"/>
<path d="M544.806 95.4846L536.112 131.883L507.387 127.345L514.957 90.77L544.806 95.4846Z" fill="#069668"/>
<path d="M542.649 97.2585L534.928 129.592L509.415 125.562L516.139 93.0786L542.649 97.2585Z" fill="#EDE6FD"/>
<path d="M534.561 96.8123L535.103 94.5436L524.788 92.9178L523.844 95.1233L534.561 96.8123Z" fill="#616161"/>
<path d="M539.179 112.231C539.179 112.231 541.376 112.183 542.049 112.103C542.722 112.024 542.271 113.187 541.496 113.406C540.721 113.624 539.179 112.231 539.179 112.231Z" fill="#C98462"/>
<path d="M540.463 120.763C539.997 120.86 539.515 120.895 539.035 120.868C539.035 120.868 538.195 120.662 537.589 120.546C537.433 120.514 537.275 120.49 537.116 120.472C536.234 120.466 535.36 120.343 534.526 120.111C533.44 119.766 529.753 118.228 529.753 118.228L530.808 115.441L531.6 113.232C533.98 112.669 536.422 112.293 538.891 112.11C538.992 112.131 539.091 112.157 539.188 112.188C539.835 112.448 540.447 112.762 541.014 113.126C541.176 113.192 542.718 113.946 542.791 114.379C542.855 114.616 542.844 114.863 542.759 115.096C542.673 115.329 542.516 115.541 542.302 115.711C542.39 116.345 542.257 116.987 541.918 117.564C541.964 117.887 541.918 118.214 541.783 118.52C541.649 118.827 541.43 119.104 541.143 119.33C541.143 119.33 541.19 120.458 540.463 120.763Z" fill="#EEA886"/>
<path d="M532.909 112.524C532.174 115.542 530.644 118.396 528.424 120.888C528.424 120.888 503.682 112.706 500.561 111.708C497.441 110.709 511.905 79.4476 511.905 79.4476L522.549 82.3938L516.832 91.1873C516.832 91.1873 514.002 96.1132 508.114 104.217C508.114 104.22 511.736 107.016 532.909 112.524Z" fill="#15CE73"/>
<path d="M547.678 85.1252C547.678 85.1252 547.025 94.8633 553.008 94.8633C558.992 94.8633 558.45 86.0988 558.562 85.1252H547.678Z" fill="#15CE73"/>
<path d="M548.744 85.1233H557.684V83.6457L548.744 85.1233Z" fill="white"/>
<path d="M362.381 120.586C362.381 120.586 359.66 122.011 358.097 121.214C356.73 120.691 355.24 120.418 353.73 120.412C352.774 120.373 349.896 119.359 349.822 120.34C349.749 121.321 354.467 122.194 355.413 122.539C356.36 122.884 352.199 124.526 351.73 125.324C351.262 126.122 355.016 131.56 357.71 130.158C360.404 128.756 362.153 125.812 362.677 125.642C363.366 125.355 364.033 125.036 364.676 124.685L362.381 120.586Z" fill="#EEA886"/>
<path d="M443.695 243.095C441.181 246.156 438.436 249.087 435.476 251.871C435.476 251.871 431.229 253.664 431.098 255.095C430.849 257.805 430.552 260.334 436.138 260.455C441.725 260.576 445.343 259.512 446.356 256.759C447.131 254.9 448.303 253.167 449.818 251.639V257.4H451.078C451.078 257.4 451.393 251.831 451.471 250.809C451.549 249.786 452.375 245.846 449.719 244.103C448.863 243.592 447.882 243.238 446.842 243.064C445.802 242.89 444.729 242.901 443.695 243.095Z" fill="#162D40"/>
<path d="M434.672 252.243C436.85 252.655 439.117 252.64 441.287 252.2C444.881 251.464 448.33 244.468 449.379 243.89L450.309 241.067H443.306C443.114 242.406 442.65 243.709 441.931 244.924C439.713 247.491 437.288 249.936 434.672 252.243Z" fill="#EEA886"/>
<path d="M404.17 240.388C403.462 241.66 402.578 242.862 401.534 243.971C400.27 245.312 396.341 250.819 394.608 251.197C392.876 251.574 387.525 252.349 387.056 254.781C386.588 257.212 386.348 258.935 391.621 259.132C396.894 259.329 400.357 259.58 402.875 256.573C404.682 254.56 406.89 252.808 409.408 251.388V259.237H411.454C411.729 256.3 412.228 253.379 412.949 250.492C413.5 249.916 414.917 243.644 410.037 240.377C405.157 237.109 404.17 240.388 404.17 240.388Z" fill="#162D40"/>
<path d="M394.611 251.21C394.611 251.21 399.333 252.169 401.143 251.21C402.953 250.25 409.106 241.791 411.139 241.284C411.139 241.284 409.164 238.032 404.166 240.393C404.173 240.393 395.948 249.801 394.611 251.21Z" fill="#EEA886"/>
<path d="M446.373 122.853C450.501 127.439 453.385 132.685 454.836 138.245C456.642 146.597 453.77 174.63 453.847 178.758C453.925 182.886 458.55 196.054 457.606 203.83C456.662 211.607 451.493 243.742 451.493 243.742L439.956 243.574C439.956 243.574 442.269 208.55 441.678 205.279C441.087 202.008 439.21 188.128 438.972 186.784C438.735 185.44 425.83 149.898 425.83 143.877C425.83 137.857 430.318 113.033 446.373 122.853Z" fill="#1D3B54"/>
<path d="M412.94 125.606C412.94 125.606 402.001 159.566 400.703 164.262C399.406 168.959 396.807 175.109 396.927 175.975C397.047 176.84 398.304 191.329 398.304 191.329L401.414 240.673H412.942C412.942 240.673 416.642 209.28 417.231 202.944C417.82 196.607 412.982 186.814 414.161 184.127C415.341 181.439 433.166 150.431 433.166 150.431C433.166 150.431 446.651 115.75 412.94 125.606Z" fill="#1D3B54"/>
<path d="M416.312 74.7892C412.927 74.9357 409.706 76.0192 407.183 77.8599C403.877 80.7411 402.225 85.4774 401.359 87.0128C400.492 88.5482 389.555 102.757 388.92 103.077C388.285 103.396 377.174 110.691 372.139 114.596C367.545 117.751 362.568 120.517 357.286 122.853L360.984 127.076C360.984 127.076 390.81 114.148 394.589 109.412C398.367 104.676 413.868 91.8105 413.868 91.8105C413.868 91.8105 426.227 80.0367 416.312 74.7892Z" fill="#EEA886"/>
<path d="M416.312 74.7892C412.927 74.9357 409.706 76.0192 407.183 77.8599C403.878 80.7411 402.225 85.4774 401.359 87.0128C400.492 88.5482 389.555 102.757 388.92 103.077C383.744 105.909 378.808 109.02 374.145 112.389C369.701 115.532 364.946 118.371 359.929 120.879L365.3 126.446C365.3 126.446 390.857 114.91 395.028 110.398C399.484 105.579 413.875 91.805 413.875 91.805C413.875 91.805 426.227 80.0367 416.312 74.7892Z" fill="#285173"/>
<path d="M423.946 72.2944C421.475 73.2691 418.924 74.1034 416.312 74.7909C414.344 75.1107 406.709 83.1743 405.372 86.1187C404.035 89.063 405.372 93.4777 408.127 98.6638C410.881 103.85 408.284 105.575 409.544 110.767C410.871 117.058 411.581 123.425 411.67 129.808C411.434 132.687 443.499 133.24 450.818 127.983C450.818 127.983 443.461 119.023 442.517 117.743C441.573 116.462 442.36 109.488 443.226 107.694C444.092 105.9 453.85 92.5203 453.85 92.5203C453.85 92.5203 454.568 78.9527 450.31 76.263C446.611 73.9256 436.538 73.0929 434.721 72.5817C431.178 71.9735 427.531 71.8762 423.946 72.2944Z" fill="#15CE73"/>
<path d="M422.136 82.5655L418.693 79.2869L421.683 70.6544C422.345 74.601 422.497 78.5932 422.136 82.5655Z" fill="#00B3FF"/>
<path d="M352.272 124.867C349.414 126.51 346.708 128.321 344.176 130.286C343.976 130.96 344.316 131.292 345.078 130.875C345.84 130.458 352.87 126.477 352.87 126.477C352.87 126.477 344.685 133.361 344.372 133.883C344.187 134.188 344.8 134.865 345.233 134.672C345.666 134.479 354.258 128.032 354.258 128.032C354.258 128.032 346.63 134.471 346.528 134.972C346.516 135.096 346.55 135.22 346.626 135.328C346.703 135.435 346.817 135.522 346.955 135.576C347.092 135.63 347.247 135.648 347.398 135.63C347.549 135.611 347.689 135.555 347.801 135.47C348.407 135.024 355.902 129.374 355.902 129.374C355.902 129.374 350.713 134.345 350.933 134.809C351.069 135.093 351.564 135.698 352.854 134.381C354.145 133.064 357.588 130.226 357.588 130.226L352.272 124.867Z" fill="#EEA886"/>
<path d="M431.096 39.5901C427.729 38.6273 415.357 36.2629 412.438 49.126C409.519 61.9892 418.262 71.1419 426.289 68.7105C434.317 66.2792 439.274 57.3828 439.745 50.5981C440.13 48.2285 439.474 45.8245 437.891 43.8103C436.309 41.7962 433.902 40.3015 431.096 39.5901Z" fill="#EEA886"/>
<path d="M412.442 49.1242C412.442 49.1242 411.836 38.1162 425.294 37.7314C438.753 37.3466 442.371 46.3586 441.269 52.9248C440.629 56.8181 438.259 60.3862 434.606 62.9555C434.606 62.9555 435.09 57.6412 432.478 56.263C429.866 54.8847 419.399 52.1317 414.835 45.73C413.766 46.7195 412.952 47.8738 412.442 49.1242Z" fill="#252E3B"/>
<path d="M429.224 47.9589C429.983 49.2323 431.178 50.3009 432.664 51.0369C434.151 51.7729 435.866 52.1454 437.606 52.1097C439.346 52.0739 441.036 51.6313 442.475 50.8352C443.914 50.039 445.041 48.9229 445.72 47.62C446.4 46.317 446.604 44.8824 446.307 43.4877C446.011 42.0931 445.227 40.7974 444.05 39.7553C442.872 38.7132 441.351 37.9687 439.667 37.6111C437.983 37.2535 436.208 37.2977 434.554 37.7385C432.188 38.526 430.3 40.0418 429.301 41.9561C428.303 43.8704 428.275 46.0279 429.224 47.9589Z" fill="#252E3B"/>
<path d="M443.719 74.7891C445.977 74.3825 448.339 74.6341 450.392 75.4998C452.445 76.3655 454.059 77.7903 454.952 79.5253C459.045 85.9253 458.021 89.3809 458.965 92.2621C459.909 95.1432 463.688 114.406 463.923 115.237C464.158 116.068 467.779 125.86 467.306 128.87C466.833 131.879 463.45 154.661 463.608 155.424C463.765 156.186 457.075 154.686 457.075 154.686C457.075 154.686 457.351 131.422 457.115 129.502C456.88 127.582 456.642 117.503 454.872 114.91C453.102 112.318 448.734 96.4855 447.788 94.8453C446.842 93.2051 437.698 76.8683 443.719 74.7891Z" fill="#EEA886"/>
<path d="M421.241 66.9764C421.771 70.6948 422.068 74.433 422.129 78.176C422.129 78.176 428.015 82.9735 434.714 72.5761C432.965 69.3839 432.717 65.7807 434.017 62.4497C436.143 56.6133 421.241 66.9764 421.241 66.9764Z" fill="#EEA886"/>
<path d="M449.117 168.687V160.851C449.117 160.244 449.414 159.663 449.941 159.233C450.469 158.804 451.184 158.562 451.931 158.561H467.212C467.959 158.562 468.675 158.804 469.202 159.233C469.73 159.663 470.026 160.244 470.027 160.851V168.687C470.026 169.294 469.729 169.876 469.202 170.305C468.674 170.734 467.959 170.976 467.212 170.976H451.931C451.185 170.975 450.47 170.734 449.942 170.305C449.415 169.876 449.118 169.294 449.117 168.687ZM451.931 160.098C451.685 160.098 451.45 160.178 451.276 160.319C451.102 160.46 451.004 160.652 451.004 160.851V168.687C451.004 168.887 451.102 169.079 451.276 169.22C451.45 169.361 451.685 169.441 451.931 169.441H467.212C467.458 169.441 467.694 169.361 467.868 169.22C468.041 169.079 468.139 168.887 468.139 168.687V160.851C468.139 160.652 468.041 160.46 467.868 160.319C467.694 160.178 467.458 160.098 467.212 160.098H451.931Z" fill="#0E1E2B"/>
<path d="M465 162.705C465.315 162.301 465.547 161.859 465.689 161.395C465.689 161.395 465.711 160.525 465.773 159.907C465.787 159.747 465.811 159.589 465.846 159.432C466.171 158.597 466.329 157.726 466.315 156.85C465.782 154.796 465.104 152.768 464.285 150.777L460.731 150.879L457.375 150.586C455.778 152.959 454.399 155.425 453.248 157.963C453.241 158.067 453.241 158.17 453.248 158.274C453.377 158.983 453.595 159.68 453.899 160.353C453.934 160.534 454.43 162.271 455.009 162.512C455.324 162.662 455.681 162.744 456.046 162.751C456.411 162.758 456.772 162.689 457.095 162.551C457.969 162.873 458.936 162.99 459.887 162.887C460.331 163.052 460.816 163.132 461.305 163.121C461.793 163.109 462.272 163.006 462.703 162.821C462.703 162.821 464.292 163.274 465 162.705Z" fill="#EEA886"/>
<path d="M422.136 78.1813V82.5653L428.913 78.447L422.136 78.1813Z" fill="#EEA886"/>
<path d="M422.136 82.5655L424.95 79.7331L434.426 72.0525L437.491 74.4531L422.136 82.5655Z" fill="#00B3FF"/>
<path d="M435.741 72.7877C435.741 72.7877 427.787 82.6034 427.409 86.9225C427.031 91.2415 430.365 123.557 433.035 133.946C435.705 144.334 455.007 132.775 455.007 132.775C455.007 132.775 442.038 115.703 447.011 102.033C451.984 88.3621 454.785 79.2868 454.785 79.2868C452.763 76.7465 449.624 74.9312 446.009 74.2128C440.636 73.5391 435.741 72.7877 435.741 72.7877Z" fill="#285173"/>
<path d="M404.171 87.3234C404.789 92.303 406.036 97.2177 407.893 101.989C407.893 101.989 408.917 112.358 408.76 116.005C408.602 119.652 407.54 133.445 407.54 133.445L413.066 136.077C413.317 136.198 413.604 136.26 413.895 136.254C414.187 136.249 414.47 136.177 414.714 136.047C414.957 135.918 415.151 135.735 415.273 135.52C415.395 135.304 415.44 135.066 415.403 134.831C413.848 124.332 408.74 84.5108 419.746 73.8063L415.332 74.8649C415.332 74.8649 406.245 81.7562 404.171 87.3234Z" fill="#285173"/>
<path d="M431.118 53.938C431.24 53.7104 431.422 53.5075 431.651 53.3436C431.88 53.1796 432.151 53.0589 432.444 52.9899C432.737 52.9209 433.046 52.9052 433.347 52.9442C433.648 52.9832 433.935 53.076 434.188 53.2157C435.132 53.7919 435.683 55.5206 434.188 57.7605C432.693 60.0003 427.42 61.5681 431.118 53.938Z" fill="#EEA886"/>
<path d="M418.693 79.2868L414.355 80.2623L421.685 70.6561L418.693 79.2868Z" fill="#15CE73"/>
<path d="M424.95 79.7331L428.913 83.9564L437.042 72.981L434.428 72.0525L424.95 79.7331Z" fill="#15CE73"/>
<path d="M443.728 74.789C445.986 74.3819 448.349 74.6332 450.402 75.499C452.456 76.3647 454.07 77.7897 454.963 79.5252C457.6 83.2818 459.178 87.4681 459.583 91.7814C460.1 94.733 465.089 112.262 465.325 113.097C465.56 113.931 467.204 124.885 467.324 128.873C467.41 131.905 466.537 151.785 466.695 152.553C466.853 153.321 455.393 151.209 455.393 151.209C455.393 151.209 456.662 132.873 456.426 130.953C456.191 129.032 455.687 119.462 454.534 116.648C453.179 113.344 447.828 96.6948 446.884 95.0618C445.94 93.4289 437.699 76.8681 443.728 74.789Z" fill="#285173"/>
<path d="M421.463 68.8371L421.671 70.5026C421.671 70.5026 426.336 71.2449 432.462 65.1719C431.104 66.4352 429.403 67.4242 427.494 68.0603C425.585 68.6965 423.52 68.9624 421.463 68.8371Z" fill="#A77860"/>
<path d="M430.905 201.025H488.238V167.618H430.905V201.025Z" fill="#00B3FF"/>
<path d="M430.905 186.982H488.238V167.618H430.905V186.982Z" fill="#15CE73"/>
<path d="M404.946 100.447C403.759 96.2335 404.045 91.8344 405.77 87.7462C404.543 91.4083 404.846 95.2983 406.634 98.8046L404.946 100.447Z" fill="#1D3B54"/>
<path d="M448.641 99.7115C448.641 99.7115 444.865 89.0143 444.623 88.4363C444.909 93.2735 445.617 98.0881 446.742 102.844C447.232 101.746 447.869 100.696 448.641 99.7115Z" fill="#1D3B54"/>
<path d="M264.931 267.778C255.698 267.779 246.556 266.301 238.026 263.429C229.496 260.557 221.745 256.346 215.217 251.038C208.688 245.729 203.509 239.427 199.975 232.491C196.442 225.554 194.623 218.12 194.623 210.611L194.623 59.5468C194.623 52.0394 196.441 44.6055 199.974 37.6696C203.507 30.7337 208.685 24.4316 215.213 19.123C221.74 13.8145 229.49 9.60355 238.018 6.73059C246.547 3.85764 255.688 2.37894 264.92 2.37894C274.152 2.37799 283.294 3.85599 291.824 6.72852C300.353 9.60104 308.104 13.8118 314.632 19.1205C321.161 24.4291 326.34 30.7316 329.873 37.668C333.406 44.6044 335.225 52.0388 335.225 59.5468L335.225 210.611C335.225 225.773 327.819 240.313 314.636 251.034C301.453 261.755 283.574 267.778 264.931 267.778Z" fill="#587AA3"/>
<path d="M206.762 269.815H337.339C347.153 269.815 355.109 263.345 355.109 255.364L355.109 14.451C355.109 6.47 347.153 9.15527e-05 337.339 9.15527e-05H206.762C196.948 9.15527e-05 188.993 6.47 188.993 14.451L188.993 255.364C188.993 263.345 196.948 269.815 206.762 269.815Z" fill="#069668"/>
<path d="M282.414 92.8292L288.495 100.624L294.108 107.817C294.095 107.779 293.722 106.688 293.086 103.534C292.967 102.936 292.836 102.269 292.698 101.507C292.657 101.283 292.598 101.062 292.522 100.844C290.119 96.3408 282.693 92.9449 282.42 92.8329L282.414 92.8292Z" fill="#EDDAD3"/>
<path d="M292.498 100.79C292.849 101.678 293.047 102.602 293.089 103.534L290.89 100.835C290.89 100.835 286.963 96.256 285.617 95.0656C284.641 94.2411 283.571 93.4934 282.422 92.8328C282.422 92.8328 290.139 95.8495 292.498 100.79Z" fill="#FFCA55"/>
<path opacity="0.73" d="M341.258 14.1403V256.013C341.258 257.557 340.883 259.087 340.156 260.514C339.429 261.94 338.364 263.237 337.021 264.329C335.677 265.421 334.083 266.287 332.328 266.877C330.573 267.468 328.692 267.771 326.793 267.771H215.127C211.292 267.771 207.613 266.533 204.901 264.328C202.188 262.123 200.664 259.132 200.663 256.013V14.1403C200.663 11.0206 202.187 8.02858 204.899 5.82258C207.612 3.61658 211.291 2.37732 215.127 2.37732H326.793C328.693 2.37685 330.574 2.6807 332.329 3.27168C334.084 3.86266 335.679 4.72919 337.022 5.82159C338.366 6.91398 339.431 8.21091 340.158 9.63829C340.885 11.0657 341.258 12.5954 341.258 14.1403Z" fill="#6BB0FF"/>
<path d="M251.808 243.809C251.808 243.809 254.136 249.047 258.027 251.258C261.919 253.469 265.952 256.645 264.891 258.861C263.829 261.078 250.806 259.904 245.36 253.467C241.919 249.401 238.421 248.495 238.43 246.569C238.439 244.643 242.428 240.789 242.65 240.247C242.903 239.575 251.808 243.809 251.808 243.809Z" fill="#353A3D"/>
<path d="M252.774 241.912C252.495 242.558 252.174 243.191 251.812 243.809C251.71 243.82 241.757 241.65 242.652 240.249C243.237 239.418 243.933 238.643 244.729 237.938L252.774 241.912Z" fill="#81807E"/>
<path d="M227.515 153.987C227.515 153.987 230.402 148.431 232.623 148.084C234.845 147.737 233.021 149.182 233.021 149.182C233.021 149.182 230.189 152.999 229.234 154.601C228.64 154.437 228.065 154.231 227.515 153.987Z" fill="#434343"/>
<path d="M241.621 143.68C241.247 145.473 241.009 147.283 240.909 149.099C240.786 151.823 241.319 152.856 240.326 154.157C239.578 155.134 237.757 155.505 237.532 155.06C237.308 154.616 238.925 150.44 236.815 149.853C234.705 149.265 235.218 155.138 234.132 154.405C233.045 153.671 229.165 150.14 230.373 148.149C231.582 146.159 234.16 145.212 235.391 142.073C235.795 140.636 236.741 139.337 238.097 138.359L241.621 143.68Z" fill="#EEA886"/>
<path d="M237.097 149.73C237.097 149.73 239.64 151.117 236.122 158.762L233.143 157.42C234.149 155.221 234.812 152.928 235.118 150.595C235.118 150.595 235.933 149.136 237.097 149.73Z" fill="#545554"/>
<path d="M244.345 163.088L222.164 150.29L211.471 175.012L230.795 194.047L244.345 163.088Z" fill="#545554"/>
<path d="M352.674 200.169V248.701C346.566 233.626 333.221 201.032 330.007 195.698C327.211 191.031 301.825 164.098 299.961 166.02C298.098 167.942 287.696 190.521 286.312 196.078C284.928 201.634 253.823 242.882 253.823 242.882C253.823 242.882 253.276 242.79 252.439 242.608C249.214 241.966 246.288 240.576 244.016 238.607C243.772 238.353 243.557 238.082 243.374 237.797C243.374 237.797 266.235 197.436 268.387 189.802C269.142 187.136 269.995 174.099 273.003 160.503C274.261 154.473 276.118 148.535 278.556 142.748C279.504 140.617 282.269 139.728 285.965 139.638C286.592 139.61 287.252 139.625 287.927 139.65C289.053 139.703 290.241 139.807 291.481 139.95C294.467 140.342 297.42 140.885 300.323 141.576C302.862 142.177 305.403 142.84 307.767 143.525C310.516 144.323 313.055 145.133 315.161 145.826C315.852 146.048 316.493 146.271 317.089 146.466C317.755 146.688 318.326 146.897 318.826 147.067C320.143 147.537 320.916 147.826 320.916 147.826C320.916 147.826 324.914 153.617 329.887 160.978C336.72 171.094 345.385 184.145 348.039 189.157C349.86 192.747 351.408 196.425 352.674 200.169Z" fill="#353A3D"/>
<path d="M343.286 115.044L352.674 123.581V137.714C345.955 132.522 338.046 125.895 335.103 123.79C334.785 123.537 334.429 123.317 334.043 123.136C333.156 122.513 332.443 121.741 331.953 120.875C331.698 120.513 331.407 120.116 331.118 119.699C330.674 119.057 330.229 118.366 329.767 117.632C329.463 117.148 329.141 116.651 328.819 116.142C328.497 115.633 328.192 115.109 327.87 114.599C327.244 113.566 326.618 112.533 326.053 111.567C325.609 110.835 325.218 110.141 324.847 109.515C324.605 109.083 324.365 108.691 324.157 108.326C323.948 107.961 323.754 107.632 323.592 107.332C323.19 106.626 322.926 106.169 322.868 106.068C323.059 108.084 323.033 110.109 322.788 112.121C322.614 113.656 322.292 115.178 321.824 116.671C321.202 118.987 320.869 121.347 320.829 123.716V123.796C320.829 123.861 320.814 123.913 320.814 123.976V124.054C320.654 128.864 321.056 134.056 321.231 136.814C321.568 138.981 321.032 141.179 319.703 143.077C319.703 143.077 319.461 143.052 319.037 142.997L317.88 142.867L316.56 142.723L314.783 142.513L307.853 141.729L305.33 141.442L304.752 141.377L300.363 140.868L291.505 139.861L287.969 139.457L286.054 139.235L281.39 138.693L279.3 138.445H279.266C279.266 138.445 277.465 128.104 277.338 122.52C277.209 117.304 273.72 106.624 273.254 105.223C273.237 105.189 273.225 105.154 273.22 105.118V105.105C273.22 105.092 273.22 105.093 273.205 105.093V105.065C273.205 105.065 263.094 113.707 261.132 117.473C260.65 118.402 259.356 120.611 257.643 123.434C257.612 123.499 257.578 123.565 257.547 123.615C252.883 131.29 245.233 143.279 242.275 146.09C241.921 146.451 241.608 146.664 241.406 146.691C241.311 146.708 241.214 146.717 241.117 146.718C239.269 146.731 236.166 144.639 234.638 143.516C234.076 143.111 233.738 142.837 233.738 142.837C233.738 142.837 233.867 142.587 234.123 142.143C236.277 138.129 247.192 117.938 249.942 113.196C250.2 112.751 250.386 112.437 250.488 112.293C250.549 112.213 250.602 112.13 250.648 112.044C252.707 108.814 266.692 84.09 268.831 82.849C269.194 82.6519 269.57 82.4709 269.957 82.307C270.146 82.2436 270.328 82.1693 270.504 82.0848C270.532 82.0799 270.559 82.0715 270.584 82.0596C270.937 81.9296 271.306 81.7851 271.725 81.6279C271.854 81.5755 271.999 81.5231 272.143 81.4707C272.432 81.3659 272.723 81.2611 273.031 81.1437C274.72 80.5422 276.712 79.863 278.642 79.2218C279.189 79.0411 279.719 78.8605 280.217 78.7124C280.972 78.4631 281.712 78.241 282.387 78.0332C282.485 78.0062 282.565 77.9807 282.645 77.9554C284.055 77.4722 285.505 77.0704 286.985 76.7526H287.274C287.418 76.7526 287.611 76.765 287.836 76.7795C290.632 76.9095 298.977 77.5382 301.66 77.7459C302.207 77.7857 302.513 77.811 302.513 77.811C302.513 77.811 303.799 78.295 305.73 78.9995L305.745 79.0123L305.905 79.0645C307.031 79.4836 308.348 79.9787 309.748 80.5097C312.673 81.608 315.985 82.858 318.606 83.8695C321.113 84.8504 324.907 86.5104 325.198 86.6929L343.286 115.044Z" fill="#DECBC4"/>
<path d="M319.708 143.077C319.708 143.077 320.64 143.98 320.909 147.82C320.909 147.82 282.602 144.186 278.551 142.763C278.551 142.763 278.393 138.534 279.253 138.46C280.197 138.369 319.708 143.077 319.708 143.077Z" fill="#495055"/>
<path d="M287.04 75.6921C287.16 80.582 298.799 83.2554 298.799 83.2554C298.799 83.2554 303.668 78.2915 302.507 77.8164C302.049 77.6358 301.862 76.888 301.807 76.057C301.771 75.3172 301.793 74.5763 301.874 73.8388C301.909 73.492 301.942 73.2699 301.942 73.2699C301.942 73.2699 300.279 71.8427 298.166 70.1429C294.468 67.1696 289.386 63.3599 289.377 64.8773C289.379 64.974 289.394 65.0705 289.422 65.1646C290.31 68.584 287.04 75.6921 287.04 75.6921Z" fill="#EEA886"/>
<path d="M288.007 139.2C288.007 139.2 287.169 143.489 287.098 144.607L285.321 144.32C285.321 144.32 285.81 139.784 286.096 139.023L288.007 139.2Z" fill="#5D676C"/>
<path d="M316.511 142.577C316.511 142.577 317.178 146.475 317.2 147.947L315.325 147.748C315.325 147.748 314.941 142.882 314.728 142.372L316.511 142.577Z" fill="#353A3D"/>
<path d="M291.523 68.5371C291.545 68.566 292.04 69.1659 292.882 70.0275C295.215 72.5946 298.276 74.6655 301.805 76.0643C301.768 75.3251 301.791 74.5848 301.871 73.848C302.26 73.8398 302.647 73.8017 303.026 73.7342C302.261 72.6873 301.416 71.6802 300.496 70.7192L298.16 70.1503L291.523 68.5371Z" fill="#A77860"/>
<path d="M289.29 64.9516C290.297 66.7327 291.254 68.0225 291.525 68.5355C291.885 69.0847 292.343 69.5876 292.884 70.0276C295.151 72.2082 298.378 73.5797 301.874 73.8481C302.263 73.8404 302.65 73.8023 303.031 73.7343C303.865 73.6337 304.659 73.3784 305.353 72.9881C306.046 72.5978 306.62 72.0829 307.029 71.4834C309.178 68.296 310.467 64.7731 310.812 61.149C311.156 57.5249 310.548 53.8827 309.028 50.4645C309.028 50.4645 289.17 45.8982 286.063 50.7591C283.897 54.1713 286.925 60.7663 289.29 64.9516Z" fill="#EEA886"/>
<path d="M309.039 50.4662C309.039 50.4662 310.883 50.3831 311.34 47.5399C311.784 44.731 310.88 43.9525 310.88 43.9525C307.264 42.6852 303.541 41.6313 299.739 40.7987C296.796 40.4374 289.557 40.087 287.86 41.6639C287.86 41.6639 283.737 40.8854 282.613 46.4508C280.836 55.2804 288.686 63.8532 288.686 63.8532C288.686 63.8532 288.62 58.0855 290.183 57.3214C291.747 56.5574 293.097 58.3746 293.097 58.3746L296.298 58.8407C296.298 58.8407 291.438 50.3074 297.269 49.9895C303.1 49.6716 305.703 50.9612 309.039 50.4662Z" fill="#E2D2CA"/>
<path d="M293.007 56.075C292.702 53.5335 287.052 52.5635 287.429 55.2279C287.807 57.8922 290.59 60.4501 291.872 60.3616C293.153 60.2731 293.24 58.0169 293.007 56.075Z" fill="#EEA886"/>
<path d="M261.135 117.475C258.914 121.148 245.06 145.705 242.632 146.068C240.204 146.431 233.732 141.881 233.732 141.881C233.732 141.881 249.194 114.164 250.491 112.302C251.788 110.439 266.623 84.1386 268.826 82.8579C272.505 81.2754 276.311 79.8961 280.217 78.7287C281.063 78.456 281.88 78.1993 282.638 77.9645C283.62 78.8532 299.393 93.3494 297.911 106.202C297.467 110.064 296.869 116.361 295.554 122.992C294.195 129.881 292 137.669 290.581 143.546C288.712 150.676 285.959 157.633 282.363 164.311L267.592 158.299C266.468 157.842 265.589 157.066 265.12 156.118C264.651 155.17 264.626 154.115 265.048 153.153C268.38 145.586 275.006 130.3 275.01 123.66C275.01 123.66 274.486 108.667 273.216 105.094C273.2 105.084 263.671 113.263 261.135 117.475Z" fill="#3C4145"/>
<path d="M352.675 123.295V138.2C346.1 132.983 338.061 125.989 335.103 123.792C334.785 123.538 334.428 123.318 334.041 123.138C333.153 122.515 332.44 121.743 331.951 120.877C331.678 120.515 331.404 120.118 331.116 119.701C330.671 119.059 330.227 118.367 329.765 117.636C329.461 117.152 329.139 116.655 328.817 116.146C328.495 115.636 328.19 115.112 327.868 114.603C327.242 113.57 326.613 112.537 326.051 111.57C325.607 110.839 325.198 110.145 324.845 109.518C324.603 109.087 324.363 108.694 324.154 108.328C323.946 107.961 323.752 107.634 323.593 107.334C323.191 106.628 322.926 106.171 322.868 106.07C323.356 108.07 323.329 110.131 322.788 112.123C322.002 115.77 320.441 119.614 320.827 123.72V123.797C322.049 136.261 328.495 153.893 330.407 158.888C330.543 159.245 330.566 159.624 330.473 159.989C330.38 160.355 330.175 160.696 329.876 160.98C329.804 161.072 329.718 161.156 329.619 161.229L325.021 164.681C325.021 164.681 321.023 154.692 318.977 147.645C318.93 147.448 318.864 147.253 318.817 147.071C318.405 145.687 318.088 144.287 317.868 142.874V142.862C317.498 140.064 316.758 136.796 315.956 133.317C315.154 129.838 314.348 126.139 313.85 122.492C312.564 113.234 311.245 104.058 310.297 98.671C309.992 96.9188 309.686 95.2985 309.397 93.8082C308.549 88.8697 307.347 83.9757 305.796 79.1514L305.892 79.0863C307.018 79.5054 308.335 80.0022 309.735 80.5315C312.66 81.6298 315.974 82.8797 318.593 83.8913C321.1 84.8722 324.894 86.5322 325.185 86.7146L343.288 115.06L352.675 123.295Z" fill="#3C4145"/>
<path d="M285.861 90.0907L291.525 92.6882L289.106 94.6953L295.548 122.983C296.863 116.352 297.46 110.057 297.904 106.193C299.386 93.3405 283.613 78.8442 282.631 77.9555C281.874 78.1885 281.057 78.447 280.21 78.7198L285.861 90.0907Z" fill="#51565C"/>
<path d="M305.714 79.0141C307.781 85.4725 309.312 92.0365 310.296 98.6619C311.243 104.05 312.569 113.223 313.85 122.479L315.17 95.9867L312.471 93.6095L314.87 91.1709L309.739 80.5133C308.337 79.9858 307.018 79.4926 305.901 79.0681L305.714 79.0141Z" fill="#51565C"/>
<path d="M280.208 78.7251C275.584 80.2081 268.698 82.1354 267.425 82.8796C265.224 84.1621 251.783 110.44 250.484 112.302L280.208 78.7251Z" fill="#3C4145"/>
<path d="M230.802 194.053L227.51 193.626L208.901 174.672L220.067 149.818L222.166 150.295L230.802 194.053Z" fill="#545554"/>
<path d="M282.345 78.0188L287.04 75.6993C287.04 75.6993 287.171 77.7929 298.799 83.2626L295.497 90.8277L282.345 78.0188Z" fill="#F5E2D9"/>
<path d="M301.894 76.7543C301.4 79.0666 300.348 81.2767 298.8 83.2571L305.241 90.0888L305.712 79.0067L301.894 76.7543Z" fill="#F5E2D9"/>
<path d="M298.782 83.2644C298.202 84.9564 297.932 86.7089 297.982 88.465C298.746 88.6883 299.557 88.7851 300.367 88.7501C301.178 88.715 301.971 88.5487 302.702 88.2608C301.746 86.4294 300.422 84.7407 298.782 83.2644Z" fill="#464157"/>
<path d="M305.239 141.861C305.611 137.927 305.611 133.975 305.239 130.04L304.641 130.071C304.998 133.964 304.998 137.873 304.641 141.765L305.239 141.861Z" fill="#AD9F99"/>
<path d="M300.348 140.539C300.348 140.539 305.985 141.081 307.848 141.464L307.604 146.601L300.223 145.962L300.348 140.539Z" fill="#69737A"/>
<path d="M301.583 87.896C305.151 96.6812 307.252 105.816 307.831 115.057C308.53 129.52 306.651 133.259 306.651 133.259L299.708 138.341L297.385 131.735C301.245 120.464 302.236 108.671 300.297 97.0777C299.688 93.7089 298.784 87.3235 298.784 87.3235L301.583 87.896Z" fill="#464157"/>
<path opacity="0.98" d="M338.25 2.47296H212.886C205.526 2.47296 199.559 7.32539 199.559 13.3112V257.041C199.559 263.026 205.526 267.879 212.886 267.879H338.25C345.61 267.879 351.577 263.026 351.577 257.041V13.3112C351.577 7.32539 345.61 2.47296 338.25 2.47296Z" fill="#DEF4FF"/>
<path d="M365.375 136.579C365.375 136.579 367.634 139.255 368.818 139.345C370.151 139.654 371.45 140.052 372.701 140.537C373.736 140.783 376.881 140.64 377.81 141.202C378.185 141.431 379.78 143.581 380.608 143.98C381.437 144.379 383.24 145.021 382.778 145.593C382.316 146.166 380.495 145.954 380.495 145.954C380.692 146.062 380.846 146.215 380.936 146.393C381.027 146.571 381.05 146.768 381.004 146.957C380.584 148.126 379.655 148.274 379.655 148.274C379.655 148.274 380.055 149.076 379.729 149.529C379.569 149.798 379.343 150.037 379.064 150.23C378.784 150.424 378.459 150.567 378.107 150.653C378.07 151.114 377.834 151.55 377.441 151.885C377.179 152.1 376.855 152.258 376.499 152.345C376.143 152.431 375.766 152.444 375.402 152.381C375.402 152.381 374.6 153.503 373.72 153.397C372.977 153.22 372.272 152.951 371.63 152.598C368.556 150.653 366.025 148.199 364.203 145.4C362.948 143.264 361.144 141.373 358.914 139.853L365.375 136.579Z" fill="#EEA886"/>
<path d="M380.188 145.51C380.188 145.51 376.057 142.605 374.211 142.865C372.365 143.126 373.78 144.242 373.78 144.242C373.78 144.242 372.403 143.12 371.164 143.924C369.924 144.728 371.67 145.963 371.67 145.963C371.485 145.878 371.281 145.824 371.07 145.804C370.859 145.785 370.646 145.8 370.442 145.849C370.238 145.898 370.049 145.98 369.885 146.09C369.721 146.2 369.587 146.336 369.489 146.489C368.641 147.636 370.377 148.391 370.377 148.391C370.377 148.391 367.885 148.364 368.6 149.908C369.106 150.746 369.821 151.487 370.701 152.085C371.581 152.683 372.606 153.123 373.709 153.378C373.709 153.378 374.669 153.512 375.393 152.363C375.714 152.427 376.05 152.43 376.373 152.373C376.696 152.315 377 152.199 377.26 152.033C377.52 151.866 377.73 151.654 377.875 151.412C378.019 151.17 378.094 150.904 378.094 150.635C378.094 150.635 380.704 149.878 379.649 148.257C379.99 148.173 380.295 148.012 380.529 147.794C380.763 147.575 380.917 147.307 380.974 147.021C381.03 146.735 380.986 146.441 380.847 146.174C380.709 145.907 380.48 145.677 380.188 145.51Z" fill="#DB9C7C"/>
<path d="M367.514 257.256C367.514 257.256 373.141 260.933 378.15 261.192C383.158 261.45 388.922 262.508 389.46 264.985C389.997 267.461 374.251 270.594 368.223 268.838C359.229 266.217 358.619 267.453 357.328 265.713C356.038 263.974 357.039 258.724 356.859 258.139C356.639 257.411 367.514 257.256 367.514 257.256Z" fill="#353A3D"/>
<path d="M366.553 255.263C366.918 255.91 367.236 256.573 367.506 257.25C367.421 257.306 356.844 259.793 356.844 258.128C356.844 256.777 356.93 255.297 356.93 255.297L366.553 255.263Z" fill="#81807E"/>
<path d="M368.774 255.186C368.903 255.695 368.196 256.022 367.07 256.219C363.702 256.582 360.295 256.643 356.91 256.399L355.769 256.334C355.769 256.334 334.223 202.685 330.014 195.697C327.218 191.029 301.832 164.096 299.968 166.018C296.695 159.247 294.496 152.164 293.424 144.941C293.167 143.399 292.958 141.791 292.782 140.131C295.324 140.506 297.841 140.988 300.321 141.576C302.86 142.177 305.401 142.84 307.764 143.523C310.514 144.322 313.053 145.131 315.159 145.825C315.85 146.047 316.491 146.269 317.087 146.464C317.753 146.686 318.324 146.896 318.824 147.066C320.143 147.537 320.914 147.824 320.914 147.824C320.914 147.824 324.912 153.615 329.885 160.976C336.718 171.092 345.382 184.143 348.034 189.156C352.456 198.207 355.548 207.651 357.246 217.292C357.981 224.409 368.254 253.106 368.774 255.186Z" fill="#353A3D"/>
<path d="M369.491 138.877C369.491 138.877 369.298 139.058 368.976 139.374C367.865 140.432 365.182 142.943 363.478 144.264C363.421 144.3 363.367 144.339 363.316 144.381C363.123 144.526 362.739 144.459 362.174 144.224C357.303 142.172 339.827 127.163 335.103 123.788C334.781 123.566 334.507 123.384 334.314 123.266C334.283 123.241 334.243 123.223 334.201 123.214C334.152 123.181 334.098 123.154 334.039 123.135C333.151 122.511 332.438 121.74 331.948 120.873C331.691 120.512 331.402 120.114 331.113 119.695C330.905 119.368 330.669 119.041 330.447 118.702C330.225 118.362 330.003 117.996 329.756 117.629C329.45 117.145 329.13 116.648 328.808 116.138C327.697 114.361 326.573 112.49 325.609 110.842C325.387 110.438 325.143 110.046 324.943 109.666C324.572 109.038 324.252 108.476 323.961 107.979C323.832 107.757 323.721 107.547 323.608 107.351C323.528 107.193 323.448 107.063 323.366 106.933C323.311 106.817 323.246 106.703 323.173 106.594C323.028 106.332 322.931 106.149 322.884 106.072C322.884 106.07 322.883 106.068 322.883 106.066C322.882 106.065 322.88 106.063 322.878 106.062C322.877 106.061 322.875 106.06 322.873 106.059C322.871 106.059 322.868 106.059 322.866 106.059C323.058 108.075 323.031 110.1 322.786 112.112V112.125C322.612 113.655 322.29 115.173 321.822 116.662C321.2 118.977 320.867 121.338 320.827 123.707V123.796C320.827 123.861 320.812 123.913 320.812 123.976V124.056C320.652 128.866 321.054 134.058 321.229 136.816C321.567 138.983 321.032 141.181 319.703 143.079C319.703 143.079 319.461 143.053 319.037 143.001C318.748 142.961 318.346 142.921 317.879 142.869L316.56 142.726L314.783 142.517L307.853 141.733L305.33 141.446L304.752 141.381L300.363 140.871L292.773 140.008V139.916C292.645 138.66 292.551 137.367 292.485 136.046V136.034C292.389 134.099 292.371 132.098 292.436 130.046C292.629 125.271 293.122 120.509 293.915 115.776C294.944 109.473 296.15 103.673 296.567 97.2095C296.758 94.2697 296.763 91.3239 296.583 88.3837V88.3711C296.454 86.4889 296.261 84.5144 295.954 82.4479C295.923 82.2402 295.89 82.0288 295.841 81.821C295.619 80.3561 295.343 78.8407 295.006 77.2709C297.707 77.466 300.359 77.663 301.669 77.7677H301.685C302.216 77.8075 302.52 77.8328 302.52 77.8328C302.52 77.8328 303.806 78.3168 305.734 79.0231L305.75 79.0356L305.91 79.0881C307.036 79.5072 308.353 80.004 309.752 80.5333C312.68 81.6316 315.989 82.8815 318.61 83.8931C321.118 84.874 324.912 86.534 325.201 86.7164L343.303 115.062L368.88 138.321L369.491 138.877Z" fill="#DECBC4"/>
<path d="M320.909 147.828C320.909 147.828 320.201 147.762 318.979 147.647C318.466 147.594 317.853 147.529 317.162 147.466C316.598 147.414 315.956 147.349 315.281 147.286C313.126 147.063 310.49 146.802 307.613 146.502C305.25 146.267 302.742 146.005 300.219 145.718C297.92 145.468 295.621 145.221 293.418 144.959C293.16 143.416 292.951 141.809 292.776 140.147C292.778 140.103 292.772 140.059 292.758 140.017V139.925C295.201 140.212 297.789 140.499 300.348 140.801C301.843 140.982 303.322 141.162 304.752 141.323C304.946 141.348 305.139 141.363 305.33 141.388C306.183 141.493 307.034 141.583 307.838 141.688C310.441 141.989 312.837 142.277 314.765 142.499C315.407 142.576 316.003 142.641 316.542 142.708C317.04 142.773 317.475 142.826 317.862 142.864V142.876C318.328 142.929 318.73 142.968 319.019 143.008C319.463 143.06 319.685 143.086 319.685 143.086C319.685 143.086 320.634 143.976 320.909 147.828Z" fill="#495055"/>
<path d="M298.802 83.2609H298.784L298.768 83.2483C297.806 83.0235 296.861 82.7527 295.939 82.4373C295.907 82.2277 295.874 82.0181 295.825 81.8104C295.603 80.3454 295.328 78.8298 294.99 77.2601C294.732 76.0444 294.444 74.8017 294.102 73.521C293.844 72.5148 293.604 71.5339 293.435 70.5783V70.5658C293.227 70.3851 293.049 70.2044 292.889 70.0238C293.049 70.1683 293.227 70.311 293.402 70.4555C293.29 69.9329 293.193 69.4228 293.113 68.9254V68.9129C292.936 67.9194 292.807 66.9656 292.696 66.0353C294.368 67.1588 296.425 68.745 298.162 70.1413C300.283 71.8411 301.938 73.2788 301.938 73.2788C301.938 73.2788 301.907 73.5011 301.874 73.8407C301.8 74.5797 301.779 75.3215 301.809 76.0625C301.818 76.29 301.845 76.5168 301.889 76.7416C301.987 77.2637 302.178 77.6828 302.5 77.8129C303.673 78.306 298.802 83.2609 298.802 83.2609Z" fill="#EEA886"/>
<path d="M316.514 142.575C316.514 142.575 317.18 146.473 317.202 147.945L315.327 147.746C315.327 147.746 314.943 142.88 314.73 142.37L316.514 142.575Z" fill="#353A3D"/>
<path d="M301.873 73.8461C301.8 74.5851 301.779 75.3269 301.809 76.0679C298.53 74.7922 295.662 72.9118 293.433 70.5765V70.5639C293.224 70.3832 293.046 70.2025 292.886 70.0219C293.046 70.1664 293.224 70.3091 293.402 70.4536C293.289 69.9298 293.193 69.4199 293.113 68.9238L298.16 70.1394L300.507 70.7138C301.426 71.6722 302.268 72.6768 303.031 73.7215C302.651 73.7951 302.263 73.8368 301.873 73.8461Z" fill="#A77860"/>
<path d="M307.036 71.4815C306.627 72.0814 306.054 72.5964 305.36 72.9865C304.667 73.3765 303.872 73.6311 303.037 73.7304C302.658 73.8015 302.27 73.8407 301.88 73.8478C298.634 73.6249 295.609 72.4166 293.409 70.4628C293.296 69.9402 293.2 69.4301 293.12 68.9327V68.9202C292.942 67.9267 292.813 66.9728 292.702 66.0443C292.467 64.0762 292.387 62.0977 292.46 60.1212C292.476 59.3372 292.525 58.5786 292.605 57.8597C292.669 57.0884 292.765 56.3424 292.911 55.6379C293.301 53.2068 294.068 50.8257 295.194 48.5516C299.88 48.8198 304.522 49.4635 309.052 50.4735C310.57 53.8908 311.175 57.5319 310.828 61.1542C310.48 64.7766 309.187 68.2972 307.036 71.4815Z" fill="#EEA886"/>
<path d="M311.343 47.5417C310.898 50.3795 309.044 50.4697 309.044 50.4697C305.701 50.9539 303.095 49.6732 297.26 49.9857C291.425 50.2982 296.296 58.837 296.296 58.837L293.098 58.3799L293.082 58.3673C292.945 58.1835 292.783 58.0126 292.6 57.858C292.664 57.0866 292.76 56.3405 292.905 55.6342C293.294 53.203 294.061 50.822 295.188 48.5478C296.462 45.6573 298.68 43.1034 301.603 41.1599H301.607C305.208 42.0233 310.867 43.9453 310.867 43.9453C310.867 43.9453 311.793 44.731 311.343 47.5417Z" fill="#171359"/>
<path d="M293.08 58.3672C293.093 58.989 292.874 59.5994 292.451 60.1176C292.467 59.3336 292.516 58.5751 292.596 57.8561C292.66 57.0848 292.756 56.3406 292.902 55.6343C292.964 55.7777 293.002 55.9271 293.016 56.0787C293.117 56.8387 293.138 57.6043 293.08 58.3672Z" fill="#EEA886"/>
<path d="M297.904 106.193C297.46 110.064 296.858 116.352 295.557 122.992C294.721 127.215 293.557 131.765 292.469 136.027C292.373 134.092 292.356 132.09 292.42 130.038C292.613 125.264 293.107 120.501 293.899 115.768C294.928 109.466 296.134 103.666 296.552 97.2023C297.711 100.1 298.17 103.153 297.904 106.193Z" fill="#3C4145"/>
<path d="M321.271 123.863C320.656 117.403 324.443 111.42 322.866 106.032V106.043C323.202 106.641 332.129 122.56 334.032 123.127C335.971 123.707 360.149 145.747 362.179 144.208C364.343 142.564 369.287 137.885 369.287 137.885L343.27 115.042L325.174 86.6984C324.881 86.5178 321.089 84.8504 318.577 83.8786C315.963 82.867 312.655 81.6189 309.721 80.517C308.319 79.9914 307 79.4963 305.885 79.0809L305.794 79.1386C307.807 85.561 309.309 92.0825 310.29 98.662C311.236 104.05 312.562 113.223 313.844 122.479C314.85 129.775 317.144 137.264 317.875 142.853C318.63 148.633 325.03 164.668 325.03 164.668L329.63 161.215C330.017 160.924 330.296 160.55 330.432 160.136C330.569 159.722 330.559 159.285 330.403 158.875C328.495 153.877 322.462 136.314 321.271 123.863Z" fill="#3C4145"/>
<path d="M297.902 106.193C297.458 110.064 296.856 116.352 295.554 122.992L293.9 115.766C294.928 109.464 296.134 103.664 296.552 97.2006C297.711 100.099 298.17 103.153 297.902 106.193Z" fill="#51565C"/>
<path d="M305.716 79.0141C307.783 85.4725 309.314 92.0365 310.299 98.6619C311.245 104.05 312.571 113.223 313.853 122.479L315.172 95.9867L312.473 93.6095L314.872 91.1709L309.741 80.5133C308.34 79.9858 307.02 79.4926 305.903 79.0681L305.716 79.0141Z" fill="#51565C"/>
<path d="M298.804 83.259V83.2718L298.755 83.3494V83.3891L296.569 88.3566C296.441 86.4744 296.247 84.5001 295.943 82.4337C295.912 82.2241 295.879 82.0145 295.83 81.8068C296.718 82.2638 297.695 82.7353 298.773 83.2519L298.788 83.2645L298.804 83.259Z" fill="#F5E2D9"/>
<path d="M301.894 76.7543C301.4 79.0666 300.348 81.2767 298.8 83.2571L305.241 90.0888L305.712 79.0067L301.894 76.7543Z" fill="#F5E2D9"/>
<path d="M298.784 83.2626C298.204 84.9546 297.934 86.7071 297.984 88.4631C298.748 88.6864 299.559 88.7833 300.37 88.7483C301.18 88.7132 301.974 88.5469 302.704 88.259C301.749 86.4276 300.424 84.7389 298.784 83.2626Z" fill="#00B3FF"/>
<path d="M305.241 141.861C305.614 137.927 305.614 133.975 305.241 130.04L304.643 130.071C305 133.964 305 137.873 304.643 141.765L305.241 141.861Z" fill="#AD9F99"/>
<path d="M300.35 140.539C300.35 140.539 305.987 141.081 307.851 141.464L307.607 146.601L300.225 145.962L300.35 140.539Z" fill="#69737A"/>
<path d="M301.583 87.896C305.151 96.6812 307.252 105.816 307.831 115.057C308.53 129.52 306.651 133.259 306.651 133.259L299.708 138.341L297.385 131.735C301.245 120.464 302.236 108.671 300.297 97.0777C299.688 93.7089 298.784 87.3235 298.784 87.3235L301.583 87.896Z" fill="#15CE73"/>
</svg>
