<svg width="148" height="504" viewBox="0 0 148 504" fill="none" xmlns="http://www.w3.org/2000/svg">
<path d="M118.649 405.933C118.583 406.729 118.583 407.529 118.649 408.325C118.649 409.87 118.814 412.123 118.966 414.858C119.269 420.365 119.826 427.961 120.459 436.38C121.092 444.799 121.649 452.369 122.004 457.902C122.181 460.548 122.32 462.751 122.434 464.409C122.447 465.212 122.528 466.012 122.675 466.802C122.737 466.005 122.737 465.205 122.675 464.409C122.675 462.864 122.599 460.611 122.485 457.876C122.257 452.357 121.789 444.748 121.156 436.355C120.523 427.961 119.89 420.504 119.447 414.833C119.219 412.174 119.029 409.984 118.89 408.325C118.876 407.523 118.795 406.722 118.649 405.933Z" fill="#455A64"/>
<path d="M118.649 405.933C118.583 406.729 118.583 407.529 118.649 408.325C118.649 409.87 118.814 412.123 118.966 414.858C119.269 420.365 119.826 427.961 120.459 436.38C121.092 444.799 121.649 452.369 122.004 457.902C122.181 460.548 122.32 462.751 122.434 464.409C122.447 465.212 122.528 466.012 122.675 466.802C122.737 466.005 122.737 465.205 122.675 464.409C122.675 462.864 122.599 460.611 122.485 457.876C122.257 452.357 121.789 444.748 121.156 436.355C120.523 427.961 119.89 420.504 119.447 414.833C119.219 412.174 119.029 409.984 118.89 408.325C118.876 407.523 118.795 406.722 118.649 405.933Z" fill="#455A64"/>
<path d="M57.9573 445.622L58.413 471.334C58.413 471.334 32.4221 480.436 32.0676 485.197L81.9479 486.095L82.8847 446.014L57.9573 445.622Z" fill="#263238"/>
<path d="M73.8455 469.448C74.322 469.605 74.7243 469.931 74.9762 470.365C75.2282 470.799 75.3124 471.311 75.2128 471.802C75.0788 472.287 74.7631 472.7 74.3314 472.957C73.8998 473.215 73.3855 473.295 72.896 473.182C72.3823 473.018 71.9496 472.666 71.6844 472.197C71.4191 471.727 71.3409 471.175 71.4654 470.65C71.6582 470.169 72.0282 469.78 72.4993 469.563C72.9703 469.347 73.5065 469.319 73.9974 469.486" fill="#E0E0E0"/>
<path d="M81.9352 486.095V482.057L34.1311 482.702C34.1311 482.702 31.8903 483.626 32.1182 485.234L81.9352 486.095Z" fill="#455A64"/>
<path d="M57.6028 471.068C57.6028 471.309 58.8689 471.448 60.0083 472.245C61.1477 473.043 61.8186 474.094 62.0465 473.993C62.2744 473.891 61.9326 472.486 60.4767 471.536C59.0208 470.587 57.5522 470.84 57.6028 471.068Z" fill="white"/>
<path d="M52.3235 473.132C52.3235 473.372 53.3109 473.803 54.1212 474.853C54.9314 475.904 55.1466 476.993 55.3872 476.98C55.6277 476.968 55.8176 475.6 54.7795 474.322C53.7414 473.043 52.3235 472.916 52.3235 473.132Z" fill="white"/>
<path d="M49.2472 479.348C49.4751 479.348 49.8295 478.183 49.2472 476.816C48.6648 475.448 47.5127 474.917 47.3988 475.119C47.2849 475.322 47.9939 476.043 48.4623 477.158C48.9307 478.272 49.0067 479.31 49.2472 479.348Z" fill="white"/>
<path d="M58.1597 465.194C58.2483 465.422 59.4257 465.105 60.6917 465.194C61.9577 465.282 63.1224 465.763 63.2237 465.561C63.3249 465.358 62.3375 464.472 60.6917 464.295C59.0459 464.118 58.0331 465.004 58.1597 465.194Z" fill="white"/>
<path d="M118.826 444.052L121.523 475.043L116.598 500.173C116.507 500.603 116.507 501.048 116.597 501.478C116.687 501.908 116.866 502.315 117.122 502.672C117.378 503.03 117.706 503.33 118.084 503.553C118.463 503.777 118.884 503.919 119.32 503.971C119.825 504.04 120.339 503.985 120.817 503.811C121.296 503.636 121.725 503.348 122.067 502.971C126.511 498.135 142.779 480.183 142.45 477.955C142.083 475.347 141.779 445.039 141.779 445.039L118.826 444.052Z" fill="#263238"/>
<path d="M119.32 503.946L142.323 475.828L142.399 477.094C142.477 478.231 142.145 479.359 141.462 480.272C139.639 482.715 134.461 489.362 122.156 502.895C121.802 503.282 121.358 503.576 120.863 503.75C120.368 503.925 119.838 503.975 119.32 503.895V503.946Z" fill="#455A64"/>
<g opacity="0.6">
<path d="M135.31 466.232C134.949 466.535 134.712 466.961 134.644 467.428C134.577 467.895 134.683 468.37 134.942 468.764C135.234 469.142 135.66 469.392 136.132 469.463C136.604 469.534 137.085 469.419 137.474 469.143C137.86 468.82 138.11 468.364 138.178 467.866C138.246 467.367 138.126 466.862 137.842 466.447C137.498 466.089 137.03 465.877 136.535 465.856C136.04 465.835 135.556 466.006 135.183 466.333" fill="white"/>
</g>
<path d="M125.549 489.932C124.736 489.015 123.762 488.255 122.675 487.691C121.507 487.314 120.279 487.16 119.054 487.235C119.054 487.159 119.396 486.893 120.118 486.741C121.073 486.567 122.059 486.671 122.956 487.042C123.854 487.412 124.627 488.033 125.182 488.83C125.549 489.45 125.625 489.906 125.549 489.932Z" fill="white"/>
<path d="M123.599 494.236C122.679 493.788 121.732 493.399 120.763 493.072C119.143 492.679 117.776 493.072 117.712 492.869C118.171 492.543 118.701 492.331 119.257 492.249C119.814 492.168 120.382 492.22 120.915 492.401C122.776 492.818 123.764 494.135 123.599 494.236Z" fill="white"/>
<path d="M129.321 484.31C126.687 482.512 123.586 481.518 120.396 481.449C121.983 480.905 123.713 480.95 125.27 481.576C126.901 481.981 128.336 482.95 129.321 484.31Z" fill="white"/>
<path d="M129.283 474.841C129.283 475.044 127.46 474.436 125.22 474.499C122.979 474.562 121.244 475.208 121.168 475.018C122.321 474.129 123.753 473.68 125.207 473.752C126.651 473.63 128.093 474.015 129.283 474.841Z" fill="white"/>
<path d="M128.726 465.725C127.367 465.268 125.926 465.105 124.498 465.247C123.071 465.389 121.69 465.832 120.447 466.548C120.447 466.485 120.713 466.067 121.396 465.611C122.313 465.031 123.354 464.675 124.435 464.573C125.513 464.454 126.604 464.602 127.612 465.004C128.385 465.32 128.764 465.649 128.726 465.725Z" fill="white"/>
<path d="M124.485 463.51C124.358 463.132 124.314 462.73 124.359 462.333C124.402 461.253 124.651 460.192 125.093 459.206C125.362 458.454 125.869 457.809 126.536 457.37C126.771 457.245 127.04 457.198 127.303 457.234C127.567 457.27 127.812 457.389 128.005 457.573C128.356 457.943 128.559 458.43 128.574 458.94C128.574 459.988 128.206 461.002 127.536 461.807C126.865 462.612 125.934 463.156 124.903 463.346C123.883 463.518 122.835 463.383 121.892 462.956C120.95 462.53 120.156 461.833 119.611 460.953C119.473 460.73 119.385 460.48 119.352 460.22C119.319 459.96 119.343 459.696 119.421 459.446C119.528 459.206 119.708 459.004 119.935 458.87C120.162 458.737 120.425 458.677 120.687 458.699C121.463 458.818 122.193 459.141 122.802 459.636C123.684 460.258 124.451 461.029 125.068 461.915C125.498 462.535 125.65 462.928 125.612 462.953C124.734 461.834 123.692 460.852 122.523 460.041C121.975 459.636 121.336 459.371 120.662 459.269C120.518 459.254 120.373 459.285 120.248 459.358C120.123 459.431 120.024 459.542 119.966 459.674C119.928 459.84 119.925 460.012 119.955 460.18C119.986 460.347 120.049 460.507 120.143 460.649C120.64 461.393 121.339 461.978 122.157 462.337C122.976 462.696 123.881 462.813 124.764 462.675C125.635 462.511 126.424 462.056 127.002 461.384C127.579 460.712 127.911 459.864 127.941 458.978C127.934 458.621 127.804 458.277 127.574 458.003C127.47 457.899 127.334 457.832 127.188 457.812C127.042 457.791 126.893 457.818 126.764 457.889C126.195 458.253 125.753 458.783 125.498 459.408C124.92 460.705 124.577 462.094 124.485 463.51Z" fill="white"/>
<path d="M33.7134 230.909C31.3064 241.563 30.4916 252.514 31.2954 263.407C31.8271 270.307 55.1341 461.333 55.1341 461.333H86.5941L77.7321 281.789L80.2641 282.359C80.2641 282.359 97.431 358.926 98.8363 371.321C100.102 382.461 114.585 463.422 114.585 463.422L143.349 463.751L134.158 356.673L123.536 253.899L119.51 223.984L33.7134 230.909Z" fill="#455A64"/>
<path d="M82.7075 263.483C82.3164 263.777 81.8913 264.024 81.4415 264.217C80.2155 264.85 78.9074 265.311 77.5548 265.584C76.5961 265.756 75.6145 265.756 74.6557 265.584C73.523 265.405 72.4671 264.899 71.6173 264.128C70.7385 263.237 70.106 262.134 69.7816 260.925C69.4145 259.659 69.1993 258.393 68.9461 257.127C67.9333 251.937 67.2623 247.215 66.8572 243.771C66.6673 242.062 66.528 240.669 66.4647 239.707C66.3983 239.207 66.3983 238.701 66.4647 238.201C66.6099 238.679 66.7075 239.171 66.7559 239.669L67.3636 243.72C67.8827 247.126 68.6296 251.835 69.6297 257.001C70.1361 259.533 70.4906 262.153 72.0857 263.673C72.8287 264.298 73.7018 264.749 74.6413 264.995C75.5808 265.24 76.5632 265.273 77.5169 265.09C78.8219 264.855 80.0961 264.473 81.3149 263.951C81.7593 263.741 82.2267 263.584 82.7075 263.483Z" fill="#263238"/>
<path d="M73.2378 239.125C73.2378 239.125 73.4404 238.96 73.8835 238.935C74.5171 238.924 75.1363 239.124 75.6432 239.505C76.0373 239.78 76.3624 240.142 76.593 240.564C76.8236 240.986 76.9535 241.455 76.9725 241.935C76.9275 242.531 76.7131 243.101 76.3546 243.578C75.9961 244.055 75.5085 244.42 74.9493 244.629C74.3901 244.838 73.7828 244.883 73.1991 244.757C72.6154 244.632 72.0798 244.343 71.6554 243.923C71.3589 243.548 71.1513 243.11 71.0482 242.643C70.9452 242.176 70.9493 241.692 71.0603 241.226C71.1906 240.607 71.525 240.05 72.0098 239.644C72.3643 239.365 72.6175 239.327 72.6301 239.353C72.0618 239.872 71.6756 240.56 71.5287 241.315C71.4626 241.703 71.4815 242.102 71.5843 242.482C71.687 242.862 71.8711 243.216 72.1238 243.518C72.4681 243.834 72.8933 244.049 73.3522 244.138C73.8111 244.227 74.2857 244.188 74.7235 244.024C75.1613 243.86 75.5453 243.578 75.8327 243.21C76.1202 242.841 76.2999 242.4 76.3521 241.935C76.3465 241.539 76.254 241.149 76.0812 240.793C75.9084 240.436 75.6595 240.122 75.352 239.872C74.7433 239.407 74.0036 239.146 73.2378 239.125Z" fill="#263238"/>
<path d="M123.093 252.076C122.745 252.19 122.382 252.245 122.017 252.241C121.035 252.316 120.049 252.316 119.067 252.241C112.475 251.888 106.21 249.257 101.343 244.797C100.614 244.137 99.9327 243.426 99.3046 242.67C98.8742 242.125 98.6463 241.809 98.6843 241.784C98.7222 241.758 99.773 242.86 101.659 244.442C104.106 246.506 106.85 248.187 109.8 249.43C112.748 250.663 115.862 251.452 119.042 251.772C121.548 252.051 123.093 251.962 123.093 252.076Z" fill="#263238"/>
<path d="M46.6139 239.708C46.2195 240.845 45.6699 241.923 44.9808 242.911C41.8927 247.865 37.6483 251.997 32.612 254.95C31.5989 255.604 30.5052 256.123 29.3584 256.495C30.3194 255.786 31.3213 255.135 32.3588 254.545C34.7622 252.984 37.0092 251.195 39.0686 249.203C41.1121 247.201 42.9603 245.009 44.5884 242.657C45.8417 240.847 46.5253 239.657 46.6139 239.708Z" fill="#263238"/>
<path d="M48.5255 28.362C47.1125 28.4103 45.7302 27.9429 44.6364 27.047C43.5426 26.1511 42.8121 24.8879 42.5811 23.493C42.3502 22.0981 42.6346 20.6669 43.3813 19.4663C44.128 18.2656 45.286 17.3777 46.6392 16.968C45.7936 16.0099 45.2723 14.809 45.1497 13.5369C45.0272 12.2648 45.3096 10.9865 45.9568 9.88453C46.6039 8.78253 47.5827 7.91316 48.7534 7.40053C49.924 6.88789 51.2267 6.7582 52.4755 7.02997C52.5776 5.77223 53.0061 4.56291 53.7187 3.52143C54.4312 2.47996 55.4031 1.64236 56.5383 1.09136C57.6736 0.540366 58.9328 0.295028 60.1919 0.379587C61.4509 0.464145 62.6661 0.875679 63.7175 1.57353C65.1889 0.499087 66.9769 -0.0532835 68.7979 0.00405309C70.6189 0.0613897 72.3686 0.72515 73.7695 1.89003C75.011 1.70984 76.2773 1.93713 77.3787 2.53779C78.48 3.13846 79.3568 4.08008 79.8775 5.22137C80.3982 6.36266 80.5348 7.64204 80.2666 8.86751C79.9985 10.093 79.3402 11.1984 78.3904 12.018" fill="#263238"/>
<path d="M47.6773 29.1342C48.4783 22.9644 51.5747 17.323 56.3494 13.3343C61.1241 9.34564 67.2265 7.30255 73.4403 7.61223H74.7063C88.4677 9.10611 94.8863 21.6141 93.0126 35.3249L88.7336 81.1793L88.5057 83.4074L56.3494 88.2055L56.9697 76.4951C56.9697 76.4951 43.8034 73.7732 44.3098 60.5056C44.5503 54.1882 46.1201 41.0219 47.6773 29.1342Z" fill="#FFBE9D"/>
<path d="M56.8685 76.5581C63.0295 76.8721 69.151 75.4088 74.5039 72.3423C74.5039 72.3423 69.9463 81.6727 56.7799 79.8243L56.8685 76.5581Z" fill="#FFBE9D"/>
<path d="M49.8802 39.5531C49.8487 40.0475 50.013 40.5344 50.3375 40.9086C50.662 41.2829 51.1207 41.5145 51.6146 41.5534C51.8499 41.5779 52.0877 41.5557 52.3145 41.4881C52.5412 41.4205 52.7523 41.3089 52.9358 41.1595C53.1193 41.0101 53.2715 40.826 53.3837 40.6177C53.4958 40.4094 53.5658 40.181 53.5895 39.9456C53.6211 39.4532 53.4586 38.9681 53.1367 38.5942C52.8149 38.2203 52.3593 37.9873 51.8678 37.9453C51.3911 37.8956 50.9142 38.037 50.5417 38.3384C50.1691 38.6398 49.9312 39.0766 49.8802 39.5531Z" fill="#263238"/>
<path d="M50.2093 35.7681C50.4245 36.0213 51.9184 35.0338 54.0073 35.1351C56.0962 35.2364 57.4888 36.4011 57.7167 36.0973C57.9446 35.7934 57.6154 35.5402 56.9824 35.0338C56.138 34.3717 55.105 33.9948 54.0326 33.9577C52.9708 33.8932 51.9172 34.1777 51.0322 34.768C50.3359 35.2111 50.0954 35.6542 50.2093 35.7681Z" fill="#263238"/>
<path d="M69.1234 41.3893C69.092 41.8837 69.2562 42.3706 69.5807 42.7448C69.9052 43.1191 70.364 43.3507 70.8578 43.3896C71.0975 43.4196 71.3408 43.4016 71.5734 43.3368C71.8061 43.272 72.0236 43.1616 72.2132 43.012C72.4029 42.8624 72.5609 42.6766 72.6781 42.4654C72.7953 42.2542 72.8694 42.0218 72.8961 41.7818C72.9212 41.2876 72.7551 40.8027 72.4321 40.4279C72.1091 40.053 71.6541 39.817 71.1617 39.7688C70.921 39.7389 70.6769 39.7573 70.4434 39.8229C70.21 39.8885 69.992 40 69.8022 40.1509C69.6124 40.3018 69.4546 40.4891 69.338 40.7017C69.2215 40.9144 69.1485 41.1481 69.1234 41.3893Z" fill="#263238"/>
<path d="M70.2247 37.1353C70.4399 37.4011 71.9338 36.4136 74.0227 36.5149C76.1116 36.6162 77.5042 37.7176 77.732 37.4771C77.9599 37.2365 77.6307 36.9074 76.9977 36.401C76.148 35.7501 75.1175 35.3786 74.048 35.3375C72.9883 35.2757 71.9366 35.5552 71.0475 36.1351C70.3512 36.5909 70.1108 37.0213 70.2247 37.1353Z" fill="#263238"/>
<path d="M62.0718 51.8846C61.0136 51.4997 59.9125 51.2447 58.7929 51.125C58.2738 51.049 57.7928 50.9224 57.7168 50.5553C57.6998 50.0165 57.8502 49.4858 58.1472 49.0361C58.6916 47.7701 59.2739 46.5041 59.8816 45.1495C62.2997 39.6044 64.0721 35.0215 63.8442 35.0215C63.6163 35.0215 61.4895 39.3259 59.0714 44.8709C58.4764 46.2382 57.9193 47.5295 57.3876 48.7829C57.0353 49.3955 56.9056 50.1111 57.0205 50.8085C57.0853 50.9967 57.1936 51.1671 57.3366 51.3057C57.4795 51.4443 57.6531 51.5472 57.8434 51.606C58.1263 51.7002 58.4196 51.7598 58.7169 51.7833C59.8262 51.9614 60.9538 51.9955 62.0718 51.8846Z" fill="#263238"/>
<path d="M67.9966 53.5933C67.6674 53.5933 67.5534 55.7708 65.5785 57.252C63.6035 58.7332 61.2741 58.3661 61.2361 58.6699C61.1981 58.9737 61.7425 59.1257 62.73 59.2016C64.0284 59.2844 65.3146 58.9079 66.3635 58.1382C67.3651 57.4017 68.0378 56.3017 68.2371 55.0745C68.3764 54.1503 68.1485 53.5933 67.9966 53.5933Z" fill="#263238"/>
<path d="M70.0475 29.1216C70.2247 29.6913 72.2757 29.5267 74.6557 29.9318C77.0358 30.3369 78.9347 31.0965 79.2766 30.6154C79.4285 30.3749 79.112 29.8432 78.3651 29.2608C77.3545 28.5558 76.1976 28.0883 74.9809 27.8932C73.7642 27.6981 72.5192 27.7804 71.3388 28.1341C70.4779 28.4506 70.0475 28.8557 70.0475 29.1216Z" fill="#263238"/>
<path d="M51.2474 29.9066C51.5892 30.3877 53.0071 29.9699 54.7036 30.0332C56.4 30.0965 57.8052 30.5016 58.1597 30.0332C58.3116 29.8053 58.1598 29.3242 57.5015 28.8558C56.6983 28.2746 55.7329 27.9602 54.7415 27.957C53.7491 27.9293 52.7724 28.2078 51.9437 28.7545C51.3234 29.1976 51.0575 29.666 51.2474 29.9066Z" fill="#263238"/>
<path d="M49.2599 23.1209C49.2599 23.1209 53.1718 14.9806 57.261 13.2462C62.2364 11.1446 64.0593 16.5631 68.7435 15.4996C73.4277 14.4362 78.1625 12.4233 82.6695 16.2213C87.6448 20.3864 85.0876 23.0197 85.1129 28.8812C85.2268 52.7959 89.24 59.7589 91.0378 48.5801C91.2403 47.3141 94.7091 46.5545 95.4687 41.3766C96.4562 34.6668 97.1272 26.4885 95.8612 21.6271C94.7851 17.5252 92.6329 14.6261 88.6577 11.3472C82.3277 6.16926 73.4657 5.62487 67.3383 5.92871C61.2109 6.23255 49.2219 12.6891 49.2599 23.1209Z" fill="#263238"/>
<path d="M90.3034 48.2256C90.3421 47.7385 90.4797 47.2643 90.7077 46.8321C90.9358 46.3999 91.2495 46.0187 91.6299 45.7118C92.0102 45.4049 92.4491 45.1788 92.9197 45.0473C93.3904 44.9157 93.883 44.8815 94.3673 44.9467C96.8234 45.3012 99.5072 46.8457 99.0895 51.9477C98.3552 60.9995 89.4172 58.3916 89.4172 58.1257C89.4172 57.8599 89.911 52.011 90.3034 48.2256Z" fill="#FFBE9D"/>
<path d="M91.5693 54.8849C91.5693 54.8849 91.7086 55.0115 91.9745 55.1508C92.3371 55.3408 92.7595 55.3817 93.1518 55.2647C93.7647 54.9424 94.2809 54.4631 94.6479 53.8759C95.0149 53.2887 95.2195 52.6146 95.2408 51.9225C95.3216 51.1452 95.2352 50.3596 94.9875 49.6184C94.9181 49.3367 94.7834 49.0754 94.5942 48.8554C94.4051 48.6355 94.1669 48.4632 93.8988 48.3524C93.7203 48.2906 93.526 48.2921 93.3485 48.3567C93.171 48.4212 93.0211 48.5449 92.924 48.7069C92.7847 48.9601 92.8354 49.1373 92.7847 49.15C92.7341 49.1626 92.5948 48.9854 92.6961 48.6182C92.7712 48.3991 92.9129 48.2088 93.1012 48.0739C93.3716 47.9134 93.6919 47.8592 94 47.9219C94.364 48.027 94.6955 48.2226 94.9634 48.4905C95.2313 48.7583 95.4269 49.0898 95.5319 49.4538C95.8428 50.2593 95.9599 51.1267 95.8738 51.9858C95.6585 53.8088 94.6077 55.442 93.2531 55.7078C93.0033 55.7565 92.7457 55.7501 92.4986 55.6888C92.2515 55.6276 92.0208 55.5131 91.8226 55.3533C91.5694 55.1381 91.5693 54.8976 91.5693 54.8849Z" fill="#FFBE9D"/>
<path d="M90.9492 30.6409C89.7943 31.4891 88.4447 32.0333 87.0245 32.2234C86.3132 32.2986 85.5988 32.1129 85.0143 31.7006C84.4297 31.2884 84.0149 30.6778 83.8469 29.9826C83.771 29.3496 83.9608 28.628 83.5684 28.1089C83.1759 27.5898 82.1758 27.6405 81.4162 27.6911C80.0849 27.7272 78.7819 27.3038 77.726 26.4923C76.6701 25.6808 75.9257 24.5305 75.618 23.2348C75.1893 23.6653 74.6149 23.9197 74.008 23.9478C73.4011 23.9759 72.8057 23.7758 72.339 23.3867C71.4363 22.5776 70.6484 21.6491 69.9969 20.6269C69.6711 20.115 69.2251 19.6905 68.6977 19.3904C68.1704 19.0903 67.5777 18.9237 66.9712 18.9051C66.3188 19.0914 65.6481 19.206 64.9709 19.2469C63.7809 19.0823 63.2745 17.6518 63.1479 16.4617C63.0213 15.2717 62.958 13.9297 61.9832 13.1955C60.9644 12.7396 59.8194 12.6502 58.7422 12.9423C57.6408 13.0562 56.2102 12.727 56.0076 11.6763C55.9753 11.3868 56.0024 11.0937 56.0873 10.8151C56.1722 10.5364 56.3131 10.2781 56.5014 10.0558C57.2913 8.99527 58.4166 8.23301 59.6945 7.89286C60.9724 7.5527 62.3277 7.65465 63.5403 8.18212C64.0595 6.69347 65.0089 5.39243 66.2682 4.44386C67.5275 3.49529 69.04 2.94189 70.6142 2.85376C72.1883 2.76563 73.7531 3.14674 75.1104 3.94882C76.4678 4.75089 77.5564 5.93783 78.2385 7.35922C79.2458 6.53512 80.4369 5.96579 81.7108 5.69942C82.9847 5.43306 84.304 5.47749 85.5572 5.82896C86.8103 6.18042 87.9603 6.82859 88.9098 7.71859C89.8594 8.60859 90.5806 9.71424 91.0124 10.942C92.1403 10.7017 93.3139 10.7993 94.3865 11.2228C95.4591 11.6463 96.383 12.3767 97.0425 13.3227C97.7019 14.2686 98.0678 15.3881 98.0941 16.541C98.1204 17.6939 97.8061 18.8289 97.1905 19.804C98.0131 20.2646 98.705 20.927 99.2011 21.7287C99.6972 22.5304 99.9812 23.4451 100.026 24.3869C100.026 26.2605 98.0387 28.0456 96.2283 27.4506C96.5839 28.2101 96.6311 29.078 96.3602 29.8717C96.0892 30.6654 95.5211 31.3231 94.7753 31.7067C94.0294 32.0902 93.164 32.1698 92.3608 31.9285C91.5576 31.6873 90.8791 31.144 90.4681 30.413" fill="#263238"/>
<path d="M62.73 10.8276V10.9922C62.7152 11.1522 62.7152 11.3133 62.73 11.4733C62.8165 12.0965 63.0092 12.7002 63.2997 13.2583C63.7482 14.1438 64.3988 14.9115 65.1987 15.4992C66.2444 16.3146 67.5313 16.7599 68.8574 16.7652L68.7182 16.5626C68.549 16.9632 68.4617 17.3937 68.4617 17.8286C68.4617 18.2635 68.549 18.694 68.7182 19.0946C69.0754 19.9307 69.5578 20.7077 70.1488 21.3987C70.4338 21.7956 70.7559 22.1644 71.111 22.5001C71.5272 22.8125 72.0144 23.0169 72.5289 23.0951C73.0604 23.2008 73.6098 23.1741 74.1287 23.0173C74.6475 22.8606 75.1198 22.5786 75.5039 22.1963L75.1621 22.0823C75.24 23.0305 75.5158 23.9519 75.9715 24.787C76.4272 25.6221 77.0528 26.3525 77.808 26.9311C78.6395 27.6145 79.67 28.0098 80.7452 28.0578C81.7532 28.0587 82.7543 27.8918 83.7076 27.5641L83.467 27.4375C83.8858 28.5602 84.5777 29.5609 85.48 30.3493C85.8906 30.7398 86.3835 31.0334 86.9224 31.2086C87.4613 31.3839 88.0326 31.4363 88.5944 31.3621C89.5585 31.2065 90.4556 30.7707 91.1737 30.1088C91.8919 29.4469 92.3993 28.5884 92.6329 27.6401L92.4303 27.7287C93.3574 28.2859 94.4489 28.5051 95.5193 28.349C96.3157 28.2419 97.0751 27.9468 97.7348 27.4881C98.1515 27.1976 98.5154 26.8379 98.8109 26.4247C98.903 26.2772 98.9876 26.1251 99.0641 25.9689C98.6778 26.5093 98.2026 26.9801 97.6588 27.3615C97.0048 27.777 96.2642 28.0369 95.494 28.1211C94.477 28.2531 93.4454 28.0343 92.5695 27.5008L92.4049 27.3869V27.5768C92.1721 28.4563 91.6896 29.2495 91.0156 29.8606C90.3416 30.4717 89.505 30.8745 88.6069 31.0203C88.0954 31.0816 87.5766 31.0282 87.0883 30.864C86.5999 30.6997 86.1543 30.4288 85.7838 30.0708C84.9395 29.3183 84.2919 28.3709 83.8975 27.3109L83.8342 27.1337H83.6569C82.7431 27.4418 81.7855 27.6 80.8211 27.6021C79.8314 27.5569 78.8839 27.1877 78.1245 26.5513C77.4088 26.0094 76.814 25.3242 76.3781 24.5394C75.9421 23.7547 75.6746 22.8877 75.5925 21.9937V21.5506L75.2887 21.8798C74.9478 22.2125 74.5313 22.4577 74.0749 22.5944C73.6185 22.7311 73.1358 22.7552 72.6681 22.6647C72.2107 22.5952 71.7766 22.4172 71.4021 22.1456C71.0663 21.8336 70.7611 21.4902 70.4905 21.1202C69.9213 20.4554 69.4482 19.7138 69.0853 18.9174C68.9214 18.562 68.8292 18.1778 68.814 17.7868C68.7988 17.3957 68.8609 17.0056 68.9967 16.6386L69.0853 16.4233H68.8574C67.5939 16.4344 66.3602 16.0394 65.338 15.2966C64.5547 14.7362 63.9094 14.0045 63.4516 13.1571C63.0859 12.425 62.8422 11.6382 62.73 10.8276Z" fill="#455A64"/>
<path d="M106.888 147.29L118.928 158.899L115.041 136.706L139.475 128.983C139.475 128.983 145.957 159.367 147.071 166.634C149.096 179.56 146.615 197.917 134.575 199.221C121.548 200.613 111.711 187.764 105.457 179.332C100.647 172.875 92.8354 161.482 92.8354 161.482L106.85 147.252" fill="#E0E0E0"/>
<path d="M13.8119 127.565C9.90002 139.909 4.41829 141.77 2.25344 177.129C1.823 184.029 7.00092 192.865 13.1663 195.993C19.3317 199.12 30.0673 195.284 33.5615 189.321L37.0177 163.165L13.8119 127.565Z" fill="#E0E0E0"/>
<path d="M30.0167 179.205C29.8774 179.205 29.2065 176.737 27.6113 174.002C26.5885 172.389 25.4769 170.833 24.2817 169.343C24.7625 169.652 25.19 170.037 25.5477 170.483C26.479 171.49 27.2944 172.598 27.9784 173.787C28.6715 174.989 29.2319 176.262 29.6495 177.585C29.8553 178.103 29.9792 178.649 30.0167 179.205Z" fill="#263238"/>
<path d="M7.91235 141.795C8.11491 141.061 20.1798 108.246 24.0285 101.055C28.624 92.4594 38.2962 88.6614 44.2844 88.2943C50.2725 87.9271 114.547 93.0417 114.547 93.0417C114.547 93.0417 132.55 97.5613 136.196 113.855C140.766 134.275 144.437 154.367 144.437 154.367L112.23 161.33L108.432 151.784L47.9431 165.279L33.1563 143.428L7.91235 141.795Z" fill="#E0E0E0"/>
<path d="M118.459 192.6L117.624 163.482L118.826 94.9028L93.7216 83.8379L90.9111 73.0137L61.6033 86.8637L55.4632 80.0779L52.9312 87.6739L46.5126 89.7755L33.8527 114.69L33.3336 158.443C33.3336 158.443 28.9912 219.54 30.8016 233.263C30.8016 233.263 36.7011 235.441 51.2601 235.795C80.7704 236.504 120.978 234.643 120.978 234.643L121.384 233.377C122.535 229.774 122.877 225.962 122.384 222.211L118.497 192.625" fill="#E0E0E0"/>
<path d="M93.6963 143.353C92.4276 143.422 91.1551 143.363 89.8983 143.175L80.6693 142.416L71.4275 141.719C70.1503 141.703 68.878 141.559 67.6295 141.289C68.8849 141.087 70.16 141.036 71.4275 141.137C73.8076 141.137 77.0865 141.289 80.7072 141.58C84.3279 141.871 87.5816 142.251 89.9364 142.593C91.2153 142.697 92.4774 142.952 93.6963 143.353Z" fill="white"/>
<path d="M93.2912 147.847C92.0229 147.917 90.7507 147.862 89.4932 147.682L80.2641 146.91L71.0224 146.214C69.7453 146.194 68.4733 146.05 67.2244 145.783C68.4799 145.583 69.7548 145.532 71.0224 145.631C73.4024 145.631 76.6813 145.796 80.302 146.074C83.9228 146.353 87.1765 146.745 89.5312 147.087C90.8101 147.191 92.0722 147.446 93.2912 147.847Z" fill="white"/>
<path d="M92.8355 152.341C91.5671 152.412 90.2949 152.356 89.0375 152.176L79.7957 151.354L70.554 150.657C69.2769 150.638 68.0048 150.494 66.756 150.227C68.0122 150.034 69.2863 149.983 70.554 150.075C72.9214 150.075 76.2129 150.239 79.821 150.518C83.4291 150.796 86.7081 151.189 89.0628 151.531C90.3476 151.653 91.6136 151.925 92.8355 152.341Z" fill="white"/>
<path d="M92.4683 156.835C91.1999 156.906 89.9277 156.851 88.6703 156.671L79.4411 155.898L70.1994 155.215C68.922 155.19 67.6501 155.041 66.4014 154.772C67.6575 154.577 68.9317 154.526 70.1994 154.62C72.5794 154.62 75.8584 154.784 79.4791 155.063C83.0999 155.341 86.3661 155.734 88.7082 156.076C89.9861 156.187 91.2474 156.442 92.4683 156.835Z" fill="white"/>
<path d="M51.3108 233.263C51.2967 233.146 51.2967 233.027 51.3108 232.909C51.3108 232.63 51.3108 232.289 51.2348 231.871C51.2348 230.883 51.1082 229.541 51.0069 227.858C50.855 224.288 50.6271 219.262 50.3486 213.083C49.8928 200.601 49.2978 183.358 49.5003 164.292C49.6143 154.746 49.9308 145.657 50.8423 137.415C51.7538 129.173 53.2098 121.881 54.4884 115.766C55.7671 109.652 57.0204 104.74 57.78 101.347C58.1978 99.7136 58.5269 98.4096 58.7675 97.4474C58.8688 97.055 58.97 96.7132 59.0333 96.4473C59.0633 96.3292 59.1058 96.2146 59.1599 96.1055C59.1795 96.2228 59.1795 96.3426 59.1599 96.4599L58.97 97.4854C58.7548 98.4602 58.4763 99.7642 58.1345 101.423C57.4002 104.828 56.2987 109.766 55.0707 115.88C53.8427 121.995 52.5387 129.313 51.6019 137.504C50.6651 145.695 50.4372 154.772 50.3359 164.292C50.1334 183.282 50.6397 200.575 50.9689 213.058C51.1335 219.236 51.2728 224.275 51.374 227.832C51.374 229.52 51.3994 230.862 51.45 231.858V232.909C51.4238 233.034 51.3767 233.154 51.3108 233.263Z" fill="#263238"/>
<path d="M70.1994 126.034C70.7643 125.997 71.331 125.997 71.8959 126.034L76.8586 126.338L94.9244 127.604H95.2661V127.946C94.6458 136.225 93.8989 146.138 93.0886 156.836V157.025L92.9367 157.139C92.0885 157.76 91.177 158.405 90.2275 158.988C88.5942 160.062 86.9037 161.047 85.1635 161.938C83.459 162.875 81.5887 163.473 79.6564 163.697C77.7584 163.758 75.8775 163.321 74.2 162.431C72.6213 161.612 71.1392 160.618 69.7816 159.469C69.1106 158.924 68.5157 158.367 67.8574 157.785C67.5165 157.496 67.2293 157.149 67.0091 156.76C66.7939 156.361 66.6321 155.935 66.528 155.494C66.1726 153.929 66.0237 152.324 66.0849 150.721C66.1585 147.897 66.4122 145.081 66.8445 142.289C67.5914 137.225 68.4777 133.086 69.1107 130.275C69.4398 128.87 69.7057 127.743 69.9083 127.047C69.983 126.664 70.0975 126.291 70.25 125.933C70.2239 126.321 70.1647 126.706 70.0728 127.085C69.9083 127.908 69.693 128.984 69.4272 130.338C68.8955 133.174 68.0979 137.263 67.4269 142.365C67.0512 145.14 66.8313 147.934 66.7685 150.733C66.7361 152.266 66.8935 153.797 67.237 155.291C67.4017 156.031 67.8014 156.697 68.3764 157.19C68.9841 157.747 69.6424 158.291 70.2627 158.823C71.5821 159.921 73.0168 160.872 74.5418 161.659C76.1016 162.476 77.8457 162.877 79.6058 162.824C81.428 162.593 83.1897 162.017 84.7964 161.127C86.511 160.246 88.1799 159.278 89.797 158.228C90.7212 157.62 91.6327 156.962 92.4556 156.405L92.2784 156.709C93.1393 146.011 93.9369 136.111 94.6079 127.832L94.9244 128.199L77.0738 126.642L72.0098 126.161L70.7438 126.009L70.1994 126.034Z" fill="#263238"/>
<path d="M90.911 73.0264C90.911 73.0264 87.6321 73.9759 79.2132 78.4575C70.7944 82.9391 61.6033 86.8764 61.6033 86.8764L62.3122 100.106L93.4937 84.4583" fill="#E0E0E0"/>
<path d="M55.4632 80.0903L61.6033 86.8761L58.3243 101.055L52.8552 88.2433" fill="#E0E0E0"/>
<path d="M94.7091 135.389C94.7091 135.617 88.8223 135.389 81.6187 134.781C74.4152 134.174 68.5663 133.579 68.579 133.351C68.5917 133.123 74.4659 133.351 81.682 133.959C88.8982 134.566 94.7218 135.161 94.7091 135.389Z" fill="#263238"/>
<g opacity="0.3">
<path d="M67.3257 156.671C68.7436 158.988 70.0603 162.178 71.9846 164.102C73.8602 166.105 76.3955 167.364 79.1248 167.647C81.5372 167.7 83.9057 166.996 85.8979 165.634C89.0348 163.475 91.3991 160.37 92.6456 156.772C92.8482 156.506 87.9614 159.773 85.3028 161.19C83.0439 162.546 80.3984 163.111 77.7828 162.798C73.8456 162.482 70.3134 159.241 67.3257 156.658" fill="black"/>
</g>
<g opacity="0.3">
<path d="M61.4894 88.3445C61.2235 88.5471 59.5144 104.701 59.5144 104.701L90.7718 85.8252L62.3123 100.106L61.4894 88.3445Z" fill="black"/>
</g>
<path d="M56.1216 104.106C50.9355 126.559 47.44 149.369 45.6644 172.344C44.4618 188.283 43.5756 209.412 43.5756 209.412L50.6778 218.274L61.578 208.627C61.578 208.627 61.1096 163.748 61.6793 148.72C62.1477 136.351 60.1981 104.815 60.1981 104.815L56.1216 104.106Z" fill="#15CE73"/>
<path d="M111.395 124.071C111.54 124.481 111.638 124.906 111.686 125.337C111.851 126.249 112.066 127.426 112.319 128.857C112.851 131.895 113.585 135.959 114.319 140.441C115.054 144.922 115.775 149.075 116.218 152.05C116.446 153.544 116.611 154.746 116.725 155.582C116.803 155.999 116.841 156.423 116.839 156.848C116.709 156.434 116.611 156.011 116.548 155.582C116.383 154.683 116.18 153.506 115.915 152.075L113.889 140.491C113.104 135.959 112.458 131.857 112.015 128.869C111.825 127.439 111.648 126.249 111.522 125.35C111.451 124.927 111.409 124.5 111.395 124.071Z" fill="#263238"/>
<path d="M120.687 96.8271C120.687 96.8271 119.839 97.5868 118.573 98.8907C116.937 100.595 115.536 102.511 114.408 104.588C113.293 106.673 112.467 108.901 111.952 111.209C111.56 112.994 111.471 114.121 111.395 114.108C111.362 113.843 111.362 113.575 111.395 113.31C111.432 112.588 111.517 111.869 111.648 111.158C112.526 106.399 114.872 102.033 118.358 98.6755C118.882 98.1701 119.436 97.6966 120.016 97.2576C120.223 97.0885 120.448 96.9441 120.687 96.8271Z" fill="#263238"/>
<path d="M61.7045 93.2064L58.9067 92.1177L56.2608 96.6499L55.7924 104.107L59.5144 104.702L62.3123 100.106L61.7045 93.2064Z" fill="#15CE73"/>
<path d="M31.5106 115.374C31.6372 115.374 31.7385 133.756 31.7385 156.405C31.7385 179.054 31.6372 197.449 31.5106 197.449C31.384 197.449 31.2954 179.079 31.2954 156.405C31.2954 133.731 31.3967 115.374 31.5106 115.374Z" fill="#263238"/>
<path d="M61.8945 86.7876C61.4145 87.7135 60.8863 88.6137 60.312 89.4842C59.0135 91.6375 57.8261 93.8559 56.7545 96.1307L56.4634 96.7637L56.2734 97.1814L56.0709 96.7637C55.0493 94.6283 54.1779 92.4244 53.463 90.1678C53.1844 89.3069 52.9945 88.598 52.8806 88.1169C52.7943 87.8683 52.7473 87.6077 52.7413 87.3446C52.7413 87.3446 53.1338 88.3827 53.7414 90.0665C54.3491 91.7503 55.2607 94.0797 56.4634 96.5864H56.1215L56.4127 95.9407C57.4726 93.654 58.6865 91.4419 60.0461 89.3196C60.5778 88.5094 61.0336 87.8637 61.3121 87.4332C61.4783 87.1945 61.674 86.9775 61.8945 86.7876Z" fill="#263238"/>
<path d="M93.7215 83.8506C93.5876 83.9502 93.4433 84.0352 93.2911 84.1038L92.0251 84.7621L87.3662 87.1802C83.4416 89.2311 78.0611 92.1429 72.0856 95.3205C68.4649 97.2575 65.0214 99.0552 61.9577 100.549L61.6919 100.688V100.385C61.6919 96.4979 61.6286 93.2316 61.6032 90.8642V88.1803C61.5735 87.8645 61.5735 87.5466 61.6032 87.2308C61.6524 87.545 61.6778 87.8624 61.6792 88.1803C61.6792 88.8513 61.6791 89.7501 61.7804 90.8642C61.8437 93.219 61.9324 96.4979 62.0336 100.372L61.7551 100.207C64.7302 98.6881 68.1611 96.8777 71.7818 94.9407C77.7447 91.7504 83.1758 88.8893 87.1257 86.9016C89.1133 85.9142 90.7211 85.1419 91.8478 84.6102L93.1138 84.0278C93.3075 83.9418 93.512 83.8822 93.7215 83.8506Z" fill="#263238"/>
<path d="M35.2833 94.0416C35.2833 94.0416 34.8528 94.9151 34.2325 96.3331C33.411 98.1722 32.8076 100.101 32.4348 102.081C32.0818 104.064 31.9586 106.082 32.0677 108.094C32.1563 109.639 32.3082 110.626 32.2449 110.626C32.1816 110.626 32.1436 110.398 32.0424 109.968C31.91 109.367 31.817 108.758 31.7638 108.145C31.3577 104.043 32.1168 99.9092 33.954 96.2191C34.2297 95.6677 34.5339 95.131 34.8655 94.6113C35.1187 94.2188 35.258 94.0289 35.2833 94.0416Z" fill="#263238"/>
<path d="M58.8307 105.183C58.8307 105.296 58.0584 104.955 57.2482 104.448C56.438 103.942 55.8303 103.435 55.8936 103.334C55.9569 103.233 56.6785 103.562 57.4887 104.081C58.299 104.6 58.894 105.081 58.8307 105.183Z" fill="#263238"/>
<path d="M60.1728 103.372C59.4121 102.174 58.7758 100.901 58.2738 99.5739C57.6419 98.3119 57.1413 96.9883 56.7799 95.624C58.1777 98.0726 59.3148 100.661 60.1728 103.347V103.372Z" fill="#263238"/>
<path d="M138.411 178.585L138.297 178.395C138.297 178.256 138.133 178.066 138.006 177.826L137.538 176.901L136.753 175.711C134.915 173.23 132.818 170.951 130.499 168.913C127.574 166.242 123.878 163.216 119.725 159.772C117.662 158.038 115.459 156.215 113.243 154.177C110.917 152.093 108.75 149.837 106.761 147.429H107.078L94.5318 160.557L92.8354 162.317V162.039C97.5829 168.976 101.887 175.699 106.432 181.32C108.56 183.979 110.839 186.515 113.256 188.916C115.311 191.055 117.529 193.032 119.89 194.828C124.232 198.107 128.587 199.512 131.613 199.436C131.993 199.436 132.347 199.436 132.689 199.436L133.613 199.335L134.423 199.246L135.069 199.107L135.955 198.917C136.158 198.917 136.259 198.917 136.259 198.917L135.968 199.006L135.082 199.233L134.436 199.411L133.638 199.512L132.689 199.639H131.613C128.549 199.765 124.105 198.373 119.712 195.106C117.324 193.32 115.08 191.347 113.003 189.207C110.565 186.808 108.265 184.271 106.116 181.611C101.545 175.977 97.2537 169.255 92.4809 162.33L92.3796 162.178L92.4935 162.051L94.1773 160.304L106.761 147.15L106.926 146.986L107.078 147.163C109.049 149.567 111.199 151.818 113.509 153.898C115.699 155.924 117.889 157.759 119.953 159.507C124.093 162.963 127.777 166.014 130.676 168.723C132.989 170.791 135.065 173.109 136.867 175.635L137.639 176.901C137.804 177.268 137.955 177.585 138.069 177.851C138.183 178.117 138.272 178.281 138.335 178.433C138.399 178.585 138.411 178.585 138.411 178.585Z" fill="#263238"/>
<g opacity="0.3">
<path d="M77.8335 169.381C77.7507 168.672 77.4024 168.021 76.8586 167.558C75.8205 166.887 74.5292 167.774 73.4658 168.407C70.6806 170.065 67.2244 170.002 63.9708 169.862C54.1749 169.541 44.4081 168.615 34.7263 167.09C29.9577 166.474 25.3195 165.093 20.9902 163.001C16.6256 160.858 13.2854 157.076 11.6978 152.48L9.44434 151.214C11.1914 155.012 11.0142 165.545 11.6472 169.635C12.2802 173.724 14.0779 176.623 17.9771 177.889C19.5889 178.299 21.2607 178.419 22.9145 178.243C39.0306 177.446 55.2861 178.167 71.4022 177.37C73.7063 177.256 76.3775 176.939 77.6182 175.002C78.6943 173.407 78.2766 171.268 77.8335 169.381Z" fill="black"/>
</g>
<path d="M87.9993 132.794C87.9993 132.794 80.4034 124.058 78.9981 125.021C77.5928 125.983 75.6432 126.514 77.5548 130.085C79.4665 133.655 82.6188 135.617 83.2392 138.617C83.8595 141.618 83.1632 148.821 86.5054 151.353C89.8477 153.885 94.5445 160.215 94.5445 160.215L106.192 148.049L101.583 144.568C101.583 144.568 104.369 137.592 104.343 133.946C104.318 130.3 101.811 125.755 101.811 125.755C101.504 123.94 100.615 122.274 99.2794 121.007C99.0703 119.442 98.7658 117.89 98.3678 116.361C97.7348 114.057 89.3666 105.98 89.3666 105.98C88.6067 106.51 88.0828 107.315 87.9057 108.225C87.7285 109.134 87.9119 110.077 88.4171 110.854C89.5556 112.714 90.8248 114.491 92.2151 116.171L84.6191 115.26C84.4879 115.795 84.4684 116.352 84.562 116.896C84.6556 117.44 84.8603 117.958 85.1633 118.419C85.4662 118.88 85.8609 119.273 86.3227 119.575C86.7845 119.877 87.3036 120.08 87.8474 120.172C92.0632 121.261 93.0633 122.792 93.0633 122.792L87.8474 124.527C87.8474 124.527 88.0879 127.603 90.3794 127.666L92.6582 127.742L87.9993 132.794Z" fill="#FFBE9D"/>
<path d="M89.9869 127.565L95.0509 127.401H95.1268C96.1353 128.544 96.8252 129.932 97.1271 131.427C97.3994 133.252 97.0374 135.115 96.1017 136.706C94.9909 138.311 93.6418 139.737 92.1011 140.934C90.8891 141.91 89.8749 143.109 89.1133 144.466C88.6164 145.385 88.3842 146.424 88.4424 147.467C88.4859 147.85 88.5492 148.23 88.6322 148.606C88.5715 148.526 88.5244 148.436 88.493 148.34C88.3805 148.065 88.3081 147.775 88.2778 147.48C88.1526 146.397 88.3462 145.301 88.8348 144.327C89.5843 142.915 90.6037 141.663 91.8353 140.643C93.3276 139.457 94.6371 138.058 95.7219 136.491C96.6088 134.984 96.9653 133.223 96.7347 131.49C96.4466 130.06 95.8069 128.724 94.8736 127.603L95.0002 127.667C93.3295 127.784 91.6515 127.75 89.9869 127.565Z" fill="#FFBE9D"/>
<path d="M100.647 125.578C100.571 125.578 100.355 125.172 99.8744 124.577C99.2205 123.832 98.3621 123.295 97.4057 123.033C96.4296 122.789 95.4228 122.691 94.418 122.742C93.9978 122.797 93.5722 122.797 93.152 122.742C93.5479 122.552 93.9793 122.449 94.418 122.438C95.4616 122.285 96.5253 122.345 97.5449 122.615C98.1134 122.772 98.6493 123.03 99.1274 123.375C99.5204 123.657 99.8629 124.004 100.14 124.4C100.407 124.743 100.582 125.148 100.647 125.578Z" fill="#FFBE9D"/>
<path d="M98.5577 119.83C98.4691 119.919 97.2917 118.78 95.6459 117.792C94.0001 116.805 92.4176 116.361 92.4556 116.235C94.8855 116.578 97.08 117.871 98.5577 119.83Z" fill="#FFBE9D"/>
<path d="M5.20321 131.389L15.2552 169.369C15.5246 170.389 16.1291 171.29 16.9716 171.926C17.8142 172.562 18.846 172.896 19.9014 172.876L71.9212 171.85C72.6152 171.837 73.2978 171.671 73.9203 171.363C74.5428 171.056 75.09 170.615 75.5227 170.073C75.9555 169.53 76.2633 168.898 76.4242 168.223C76.585 167.548 76.595 166.845 76.4535 166.166L68.7815 129.832C68.5681 128.762 67.9914 127.8 67.1491 127.108C66.3068 126.415 65.2509 126.036 64.1606 126.034H9.27972C8.62993 126.039 7.98988 126.192 7.40874 126.483C6.82759 126.774 6.32079 127.194 5.92719 127.711C5.5336 128.228 5.26369 128.828 5.13819 129.466C5.01269 130.103 5.03494 130.761 5.20321 131.389Z" fill="#263238"/>
<path d="M0.82289 139.959C0.293036 139.289 0.00479076 138.459 0.00479076 137.605C0.00479076 136.75 0.293036 135.92 0.82289 135.25C1.36399 134.591 2.04406 134.06 2.81445 133.694C3.58484 133.329 4.42649 133.138 5.27918 133.136C6.98649 133.144 8.67459 133.497 10.2419 134.174C12.2098 134.918 14.0973 135.86 15.8756 136.984C16.5464 137.305 17.1429 137.763 17.6269 138.327C18.1109 138.892 18.4716 139.551 18.6861 140.263C18.9266 141.719 17.3441 143.39 16.0528 142.656C16.957 143.04 17.7575 143.633 18.3889 144.385C19.0204 145.137 19.4649 146.029 19.6862 146.986C19.9521 148.847 18.9646 149.834 17.1542 150.366C17.8263 150.63 18.3703 151.144 18.6723 151.8C18.9743 152.456 19.011 153.203 18.7747 153.885C18.3695 154.543 17.7409 155.034 17.0039 155.266C16.267 155.499 15.4709 155.458 14.7615 155.151C13.364 154.483 12.1578 153.473 11.2547 152.214C12.2797 153.994 12.6345 156.082 12.2548 158.101C10.2766 157.395 8.52974 156.16 7.20398 154.531C5.87822 152.901 5.02426 150.94 4.73481 148.859C3.77869 148.103 3.11288 147.04 2.84992 145.85C2.58696 144.66 2.74296 143.415 3.29156 142.327C2.38023 141.924 1.59391 141.284 1.01483 140.473C0.435752 139.663 0.0852496 138.711 0 137.719" fill="#FFBE9D"/>
<path d="M17.1162 150.391C16.5198 150.007 15.9489 149.584 15.4071 149.125C14.0937 148.033 12.5544 147.246 10.9002 146.821C9.99548 146.62 9.05764 146.62 8.15295 146.821C7.41782 147.006 6.73121 147.347 6.14002 147.821C5.63249 148.299 5.20503 148.854 4.87402 149.467C4.87912 149.268 4.9312 149.073 5.02598 148.897C5.25757 148.418 5.58004 147.988 5.97547 147.632C6.57734 147.083 7.30255 146.688 8.08966 146.479C9.05453 146.244 10.0619 146.244 11.0268 146.479C12.7502 146.925 14.3344 147.796 15.635 149.011C16.1852 149.407 16.6829 149.871 17.1162 150.391Z" fill="#FFBE9D"/>
<path d="M16.6857 142.833C15.9591 142.638 15.2611 142.348 14.6095 141.972C13.9765 141.669 13.2422 141.314 12.394 140.998C11.4631 140.686 10.5112 140.44 9.54548 140.263C8.58662 140.093 7.60523 140.093 6.64637 140.263C5.87338 140.409 5.14247 140.724 4.50684 141.187C3.93528 141.649 3.45812 142.216 3.10156 142.859C3.11895 142.654 3.17937 142.456 3.27882 142.276C3.51661 141.758 3.87207 141.303 4.31691 140.947C4.9712 140.413 5.74397 140.044 6.57038 139.871C7.57423 139.68 8.60495 139.68 9.6088 139.871C10.6055 140.049 11.5842 140.316 12.5332 140.668C13.2936 140.976 14.0335 141.331 14.7487 141.732C15.4175 142.057 16.0645 142.425 16.6857 142.833Z" fill="#FFBE9D"/>
<g opacity="0.3">
<path d="M118.345 195.334C117.94 193.828 118.485 193.828 117.282 192.802C112.881 188.969 108.85 184.73 105.242 180.142C101.533 175.509 95.7599 166.09 95.7599 166.09L94.3926 165.685C95.57 172.458 98.9882 178.61 102.343 184.675C104.059 188.019 106.13 191.168 108.521 194.068C110.945 196.98 114.244 199.031 117.927 199.917C118.308 199.223 118.541 198.457 118.613 197.669C118.685 196.881 118.594 196.086 118.345 195.334Z" fill="black"/>
</g>
</svg>
