<svg width="332" height="211" viewBox="0 0 332 211" fill="none" xmlns="http://www.w3.org/2000/svg">
<path d="M301.26 210.218C301.26 210.324 235.086 210.408 153.484 210.408C71.8826 210.408 5.68811 210.338 5.68811 210.218C5.68811 210.098 71.848 210.021 153.484 210.021C235.12 210.021 301.26 210.126 301.26 210.218Z" fill="#263238"/>
<path d="M78.8425 165.397L57.9561 143.992L68.4581 124.316C78.9601 110.597 101.196 111.479 101.196 111.479C112.165 110.718 123.185 111.409 133.982 113.533C151.644 117.061 150.219 128.96 150.219 128.96L152.585 173.118L155.124 209.075L89.9879 210.416L78.8425 165.425" fill="#15CE73"/>
<path d="M113.932 208.313L55.59 209.018C52.376 209.056 49.2053 208.261 46.3756 206.706C43.546 205.15 41.1502 202.887 39.4134 200.128C37.6765 197.37 36.6556 194.206 36.4465 190.934C36.2375 187.662 36.8471 184.39 38.2181 181.424L63.1655 134.232L85.8922 149.899L70.3883 182.695L117.613 183.556L113.932 208.313Z" fill="#15CE73"/>
<path d="M148.157 121.761L194.973 195.496L167.66 197.317C167.66 197.317 151.346 171.099 151.713 171.635C152.363 172.624 148.157 121.761 148.157 121.761Z" fill="#15CE73"/>
<path d="M84.7161 154.14C84.7178 154.011 84.7388 153.882 84.7784 153.759C84.8476 153.477 84.9237 153.124 85.0275 152.687C85.2419 151.762 85.5602 150.421 85.8853 148.756C86.2105 147.09 86.5772 145.086 86.8055 142.856C87.0865 140.439 87.0865 137.996 86.8055 135.58C86.4301 133.183 85.6107 130.881 84.391 128.798C83.4107 127.082 82.2509 125.48 80.9318 124.02C80.0427 123.022 79.0955 122.079 78.0953 121.197C77.714 120.892 77.3491 120.567 77.0022 120.223C77.1148 120.28 77.2214 120.348 77.3204 120.428C77.5142 120.576 77.8255 120.78 78.1852 121.084C79.2256 121.922 80.2059 122.835 81.1186 123.815C82.4822 125.264 83.6799 126.867 84.6885 128.593C85.951 130.709 86.797 133.056 87.1791 135.502C87.453 137.949 87.4344 140.421 87.1237 142.863C86.8901 144.85 86.5575 146.824 86.1275 148.777C85.7677 150.449 85.4356 151.783 85.152 152.701C85.0275 153.159 84.9168 153.512 84.8407 153.752C84.8115 153.885 84.7698 154.015 84.7161 154.14Z" fill="#263238"/>
<path d="M82.8343 156.681C82.7344 157.048 82.6 157.405 82.433 157.747C82.1563 158.452 81.7412 159.398 81.2084 160.569C80.1499 162.962 78.6487 166.251 76.9191 169.85C75.1895 173.449 73.5568 176.674 72.3461 179.024C71.7373 180.182 71.2391 181.142 70.8863 181.756C70.7178 182.097 70.5235 182.425 70.3052 182.736C70.4294 182.376 70.5821 182.027 70.7618 181.692C71.1146 180.986 71.5712 180.041 72.1455 178.904L76.6216 169.73C78.3166 166.152 79.8594 162.92 81.0078 160.499C81.5475 159.363 81.9902 158.417 82.3361 157.676C82.4746 157.331 82.6412 156.998 82.8343 156.681Z" fill="#263238"/>
<path d="M113.932 208.313C113.932 208.313 113.932 208.27 113.932 208.193C113.932 208.115 113.932 207.974 113.932 207.826C113.967 207.487 114.015 207.014 114.071 206.414C114.209 205.158 114.403 203.372 114.645 201.121C115.157 196.555 115.89 190.133 116.72 182.56L116.886 182.744H99.6528L69.5512 182.695L60.419 182.638L57.9353 182.603H57.285H57.0636C57.1371 182.594 57.2115 182.594 57.285 182.603H57.9353L60.419 182.568L69.5512 182.511L99.7012 182.462H116.935H117.122V182.645C116.208 190.211 115.44 196.633 114.887 201.192C114.61 203.436 114.382 205.222 114.195 206.478C114.121 207.071 114.059 207.541 114.008 207.889L113.953 208.249C113.946 208.27 113.939 208.313 113.932 208.313Z" fill="#263238"/>
<path d="M70.7964 183.217C70.3786 182.746 69.9904 182.249 69.6342 181.728C67.7696 179.34 65.4608 177.352 62.8404 175.877C62.2807 175.601 61.7357 175.295 61.2076 174.96C61.8218 175.106 62.4115 175.344 62.958 175.665C65.6872 177.041 68.0473 179.073 69.8348 181.587C70.2276 182.082 70.5512 182.631 70.7964 183.217Z" fill="#263238"/>
<path d="M153.553 187.889C153.503 187.688 153.47 187.482 153.457 187.275C153.408 186.844 153.346 186.259 153.263 185.517C153.104 183.993 152.889 181.784 152.661 179.053C152.184 173.584 151.637 166.018 151.153 157.662C150.668 149.306 150.329 141.727 150.136 136.243C150.039 133.498 149.97 131.303 149.942 129.744C149.942 129.003 149.942 128.417 149.907 127.979C149.897 127.775 149.897 127.57 149.907 127.365C149.946 127.568 149.967 127.773 149.97 127.979C149.97 128.41 150.025 129.003 150.067 129.744C150.143 131.31 150.246 133.519 150.378 136.229C150.634 141.713 151.014 149.278 151.499 157.641C151.983 166.004 152.495 173.555 152.882 179.032C153.09 181.735 153.256 183.972 153.374 185.51C153.429 186.216 153.47 186.837 153.505 187.268C153.539 187.473 153.556 187.681 153.553 187.889Z" fill="#263238"/>
<path d="M101.413 160.656C101.416 160.119 101.441 159.583 101.489 159.052C101.572 157.94 101.675 156.453 101.807 154.627C102.111 150.763 102.498 145.472 103.009 139.337L103.272 139.618L98.801 144.921L94.2544 150.283L93.9297 150.67L93.985 150.002C94.5377 143.926 95.0076 138.681 95.3669 134.782C95.5466 132.991 95.6848 131.516 95.7953 130.416C95.8324 129.888 95.8972 129.367 95.9888 128.858C95.9892 129.392 95.9615 129.925 95.9059 130.451C95.823 131.551 95.7193 133.026 95.5811 134.841C95.2702 138.681 94.8349 143.938 94.3374 150.061L94.0748 149.78L98.6145 144.394L103.092 139.114L103.417 138.728L103.361 139.395C102.829 145.507 102.366 150.799 102.035 154.615C101.862 156.43 101.724 157.917 101.62 159.017C101.58 159.573 101.511 160.122 101.413 160.656Z" fill="#E0E0E0"/>
<path d="M127.513 150.626C127.264 150.424 127.032 150.199 126.821 149.956C126.371 149.462 125.763 148.805 125.015 148.001L118.837 141.169L119.135 141.063C118.989 142.792 118.837 144.67 118.678 146.618C118.519 148.565 118.353 150.499 118.208 152.263L118.173 152.673L117.91 152.369L111.898 145.453L110.182 143.435C109.964 143.204 109.769 142.951 109.601 142.68C109.85 142.895 110.081 143.131 110.293 143.385L112.078 145.333L118.18 152.158L117.883 152.263C118.028 150.506 118.18 148.601 118.346 146.618C118.512 144.634 118.664 142.792 118.81 141.063L118.844 140.661L119.107 140.958L125.195 147.881L126.932 149.906C127.144 150.13 127.338 150.371 127.513 150.626Z" fill="#E0E0E0"/>
<path d="M140.616 149.68C140.487 149.978 140.33 150.261 140.146 150.527L138.762 152.8L133.822 160.619L133.656 160.351L139.025 159.405L144.49 158.467L144.885 158.396L144.698 158.699L139.648 166.364L138.126 168.58C137.957 168.851 137.767 169.108 137.558 169.349C137.695 169.06 137.852 168.782 138.029 168.516L139.412 166.258L144.359 158.495L144.532 158.763L139.066 159.73L133.677 160.661L133.283 160.725L133.504 160.393L138.548 152.63L140.028 150.407C140.21 150.153 140.406 149.91 140.616 149.68Z" fill="#E0E0E0"/>
<path d="M123.189 163.357C123.059 163.652 122.901 163.933 122.718 164.197L121.335 166.477L116.402 174.289L116.229 174.021L121.611 173.075L127.084 172.13L127.478 172.066L127.25 172.398L122.2 180.069L120.712 182.271C120.547 182.543 120.357 182.798 120.145 183.033C120.283 182.745 120.44 182.467 120.615 182.2C120.975 181.636 121.445 180.881 121.999 179.949L126.945 172.186L127.118 172.454L121.653 173.421L116.264 174.346L115.869 174.416L116.091 174.077L121.134 166.314C121.743 165.397 122.241 164.649 122.622 164.091C122.793 163.833 122.983 163.588 123.189 163.357Z" fill="#E0E0E0"/>
<path d="M160.845 149.525C160.708 149.816 160.551 150.096 160.375 150.365L158.991 152.644L154.058 160.457L153.885 160.188L159.268 159.243L164.74 158.297L165.135 158.234L164.913 158.565L159.856 166.237C159.247 167.14 158.749 167.881 158.369 168.431C158.205 168.706 158.015 168.964 157.801 169.201C157.941 168.912 158.1 168.634 158.279 168.368L159.662 166.117L164.609 158.354L164.782 158.622L159.316 159.582L153.927 160.513L153.54 160.584L153.754 160.245L158.797 152.482L160.285 150.259C160.448 149.996 160.636 149.75 160.845 149.525Z" fill="#E0E0E0"/>
<path d="M182.569 185.051C182.322 184.859 182.09 184.647 181.877 184.416L179.981 182.553L173.471 176.046L173.762 175.926C173.706 177.662 173.651 179.54 173.589 181.494C173.527 183.449 173.451 185.39 173.388 187.14V187.55L173.105 187.26L166.767 180.662L164.955 178.735C164.73 178.517 164.521 178.281 164.332 178.029C164.579 178.222 164.81 178.435 165.024 178.664L166.906 180.521L173.34 187.027L173.042 187.147C173.098 185.383 173.16 183.478 173.222 181.501C173.284 179.525 173.361 177.669 173.423 175.933V175.531L173.7 175.813L180.113 182.419L181.946 184.353C182.173 184.567 182.381 184.801 182.569 185.051Z" fill="#E0E0E0"/>
<path d="M72.6713 138.191C72.536 138.483 72.3787 138.764 72.2009 139.031L70.8172 141.31L65.8845 149.13L65.7115 148.862L71.094 147.909L76.5664 146.97L76.9607 146.9L76.7393 147.239L71.682 154.903L70.2015 157.105C70.0335 157.374 69.8437 157.629 69.6342 157.867C69.7668 157.578 69.9242 157.302 70.1046 157.041L71.4883 154.783C72.7405 152.828 74.4563 150.146 76.4349 147.02L76.6079 147.288L71.1424 148.255L65.753 149.186L65.3656 149.25L65.5801 148.918C67.6071 145.813 69.3505 143.131 70.6235 141.155L72.111 138.932C72.2783 138.671 72.4657 138.423 72.6713 138.191Z" fill="#E0E0E0"/>
<path d="M45.3163 190.966C45.5494 191.18 45.7625 191.416 45.9528 191.671L47.6408 193.739L53.3761 200.959L53.0717 201.043C53.3208 199.328 53.5837 197.465 53.8673 195.525C54.151 193.584 54.4277 191.671 54.6837 189.928L54.739 189.526L54.9881 189.851L60.5643 197.134L62.1486 199.251C62.3499 199.496 62.5304 199.758 62.6882 200.034C62.461 199.816 62.2505 199.58 62.0586 199.328L60.3982 197.268L54.7598 190.062L55.0642 189.985C54.8151 191.728 54.5453 193.619 54.2617 195.581C53.978 197.543 53.7082 199.378 53.4522 201.093L53.3969 201.495L53.1478 201.178L47.5025 193.88L45.8905 191.763C45.6817 191.511 45.4899 191.244 45.3163 190.966Z" fill="#E0E0E0"/>
<path d="M107.483 175.876C107.178 175.991 106.869 176.062 106.558 176.091L103.975 176.485L95.0419 177.68L95.1507 177.178L99.0665 183.629L103.03 190.199L103.315 190.677H102.921L94.0358 191.537L91.4661 191.728C91.1585 191.775 90.8491 191.775 90.5415 191.728C90.8442 191.621 91.151 191.553 91.4593 191.525L94.0222 191.166L102.901 190.091L102.799 190.593L98.8217 184.047L94.9196 177.572L94.634 177.094H95.0215L103.961 176.151L106.545 175.924C106.856 175.866 107.17 175.85 107.483 175.876Z" fill="#E0E0E0"/>
<path d="M92.4576 192.363C92.6885 192.584 92.9057 192.82 93.108 193.068L94.8306 195.101L100.718 202.201L100.414 202.285C100.628 200.563 100.863 198.7 101.106 196.759C101.348 194.819 101.597 192.892 101.797 191.149L101.853 190.74L102.102 191.057L107.83 198.22L109.456 200.337C109.658 200.583 109.842 200.842 110.009 201.114C109.776 200.897 109.561 200.661 109.366 200.408L107.664 198.383L101.853 191.325L102.15 191.234C101.936 192.984 101.701 194.875 101.458 196.844C101.216 198.813 100.974 200.655 100.767 202.377L100.711 202.779L100.462 202.469L94.6715 195.284L93.0249 193.167C92.8103 192.919 92.6203 192.649 92.4576 192.363Z" fill="#E0E0E0"/>
<path d="M65.0542 166.279C64.7447 166.348 64.4299 166.391 64.1133 166.406L61.4913 166.632L52.4006 167.338L52.5044 167.034L56.4963 170.852L60.5296 174.734L60.8202 175.016H60.4189L51.3767 175.524L48.7616 175.637C48.4554 175.664 48.1476 175.664 47.8414 175.637C48.1488 175.57 48.4613 175.529 48.7754 175.517L51.3836 175.305L60.4189 174.663L60.3152 174.967L56.2679 171.099L52.2899 167.274L52.0063 166.992H52.4006L61.4982 166.427L64.1272 166.3C64.4352 166.269 64.7451 166.262 65.0542 166.279Z" fill="#E0E0E0"/>
<path d="M88.5973 191.565C88.2875 191.632 87.9728 191.673 87.6564 191.685L85.0274 191.918L75.9367 192.624L76.0474 192.321L80.0324 196.139L84.0658 200.02L84.3563 200.302H83.962L74.9128 200.803L72.2977 200.923C71.9847 200.951 71.6699 200.951 71.3568 200.923C71.6641 200.856 71.9766 200.816 72.2908 200.803L74.899 200.592L83.9343 199.95L83.8305 200.253L79.7833 196.386L75.8122 192.575L75.5216 192.299H75.916L85.0136 191.735L87.6495 191.608C87.9635 191.564 88.2807 191.55 88.5973 191.565Z" fill="#E0E0E0"/>
<path d="M141.737 127.231C141.427 127.298 141.112 127.341 140.796 127.358L138.167 127.584L129.083 128.289L129.187 127.993L133.172 131.804L137.205 135.685L137.496 135.968H137.102L128.052 136.476L125.437 136.589C125.124 136.616 124.81 136.616 124.496 136.589C124.804 136.521 125.116 136.481 125.43 136.469L128.039 136.257L137.081 135.622L136.97 135.918L132.937 132.058L128.966 128.233L128.675 127.951H129.069L138.167 127.386L140.803 127.259C141.113 127.226 141.425 127.216 141.737 127.231Z" fill="#E0E0E0"/>
<path d="M115.89 191.566C115.89 191.566 127.527 188.143 131.38 187.141C132.881 186.752 139.309 190.211 143.75 193.09C143.75 193.09 149.866 196.788 149.375 197.924C148.828 199.18 146.607 198.926 142.975 197.218C142.975 197.218 144.234 200.938 141.765 200.853C141.765 200.853 142.989 204.876 140.678 205.292C138.368 205.708 137.828 200.578 135.794 200.302C133.76 200.027 129.568 199.745 129.568 199.745C129.568 199.745 126.06 205.673 123.341 206.097C120.622 206.52 114.347 205.765 114.347 205.765L115.89 191.566Z" fill="#FFBE9D"/>
<path d="M135.753 192.384C136.892 192.902 137.98 193.528 139.004 194.254C140.09 194.881 141.114 195.614 142.062 196.442C139.834 195.303 137.72 193.944 135.753 192.384Z" fill="#EB996E"/>
<path d="M135.068 194.692C136.397 195.119 137.688 195.659 138.928 196.308C140.21 196.839 141.445 197.479 142.622 198.221C141.293 197.798 140.001 197.26 138.762 196.611C137.478 196.083 136.242 195.441 135.068 194.692Z" fill="#EB996E"/>
<path d="M136.313 200.204C138.071 200.197 139.821 200.434 141.516 200.908C139.758 200.913 138.008 200.676 136.313 200.204Z" fill="#EB996E"/>
<path d="M100.746 69.0716C100.883 69.5289 100.885 70.0172 100.751 70.4757C100.618 70.9341 100.355 71.3424 99.996 71.6495C99.6367 71.9566 99.1966 72.1489 98.7308 72.2025C98.265 72.2562 97.794 72.1687 97.3766 71.951C95.7992 71.1394 95.5986 68.9163 95.9099 67.1449C96.2212 65.3735 96.8093 63.4751 96.0829 61.8308C95.5225 60.5746 94.3118 59.7771 93.3709 58.7891C92.5406 57.9303 91.9167 56.8869 91.5482 55.7408C91.1797 54.5947 91.0766 53.377 91.247 52.1834C91.4464 50.9934 91.964 49.8826 92.7429 48.9736C93.5217 48.0645 94.5315 47.3925 95.6609 47.0316C97.9785 46.3753 100.836 47.1022 102.579 45.3872C103.831 44.1451 103.908 42.1197 104.876 40.6377C106.377 38.337 109.553 37.97 112.237 38.344C114.921 38.7181 117.647 39.6002 120.276 38.9298C122.469 38.3723 124.268 36.8126 126.33 35.8528C128.577 34.8051 131.089 34.4998 133.514 34.9799C135.939 35.4599 138.157 36.7011 139.857 38.5299C141.557 40.3588 142.654 42.6839 142.994 45.18C143.335 47.6761 142.903 50.2185 141.758 52.4516C140.994 54.0858 139.695 55.3964 138.084 56.1567" fill="#263238"/>
<path d="M114.098 127.372C115.863 127.368 117.609 127.008 119.235 126.311C120.862 125.614 122.336 124.594 123.574 123.312C124.811 122.029 125.787 120.508 126.444 118.838C127.101 117.168 127.427 115.381 127.402 113.582L127.229 100.611C127.229 100.611 137.911 99.5167 138.617 88.7191C139.322 77.9214 138.817 53.002 138.817 53.002C132.94 50.0276 126.391 48.7061 119.846 49.1738C113.301 49.6415 106.997 51.8814 101.583 55.6626L99.9503 56.813L100.746 113.935C100.788 117.517 102.214 120.938 104.714 123.454C107.214 125.97 110.586 127.378 114.098 127.372Z" fill="#FFBE9D"/>
<path d="M136.022 72.6003C135.636 72.555 135.28 72.3663 135.021 72.0702C134.762 71.7742 134.619 71.3914 134.619 70.9948C134.619 70.5981 134.762 70.2153 135.021 69.9192C135.28 69.6232 135.636 69.4345 136.022 69.3892C136.106 69.368 136.194 69.368 136.278 69.3892C136.665 69.4345 137.021 69.6232 137.28 69.9192C137.539 70.2153 137.682 70.5981 137.682 70.9948C137.682 71.3914 137.539 71.7742 137.28 72.0702C137.021 72.3663 136.665 72.555 136.278 72.6003C136.194 72.6144 136.107 72.6144 136.022 72.6003Z" fill="#263238"/>
<path d="M138.098 69.1141C137.925 69.2976 136.929 68.4084 135.469 68.3307C134.009 68.2531 132.909 68.9518 132.764 68.7542C132.619 68.5566 132.868 68.3378 133.352 68.0061C133.999 67.5825 134.762 67.382 135.53 67.4341C136.297 67.4862 137.027 67.7881 137.614 68.2955C138.049 68.6907 138.188 69.0718 138.098 69.1141Z" fill="#263238"/>
<path d="M121.224 69.4808C121.475 69.6581 121.669 69.9073 121.781 70.197C121.893 70.4866 121.918 70.8037 121.854 71.1081C121.789 71.4124 121.637 71.6903 121.418 71.9067C121.198 72.123 120.921 72.2681 120.62 72.3234C120.32 72.3788 120.01 72.342 119.73 72.2177C119.45 72.0934 119.213 71.8872 119.048 71.6251C118.883 71.3631 118.798 71.057 118.803 70.7457C118.809 70.4343 118.905 70.1316 119.079 69.876C119.313 69.5339 119.67 69.3001 120.072 69.226C120.474 69.1519 120.888 69.2435 121.224 69.4808Z" fill="#263238"/>
<path d="M122.186 69.5443C122.006 69.7278 121.01 68.8385 119.557 68.7609C118.104 68.6833 116.997 69.382 116.845 69.1844C116.769 69.0926 116.955 68.768 117.433 68.4363C118.08 68.0127 118.843 67.8122 119.61 67.8643C120.378 67.9164 121.108 68.2183 121.695 68.7256C122.13 69.1208 122.269 69.4666 122.186 69.5443Z" fill="#263238"/>
<path d="M127.402 82.1489C127.402 82.0359 128.308 81.8948 129.789 81.7678C130.169 81.7678 130.481 81.676 130.515 81.4714C130.543 81.0822 130.469 80.6925 130.301 80.3422C129.976 79.333 129.651 78.3167 129.305 77.2511C127.921 72.8544 127.015 69.234 127.229 69.1634C127.444 69.0928 128.73 72.6003 130.093 76.997C130.412 78.0697 130.723 79.1142 131.02 80.1022C131.24 80.616 131.284 81.1902 131.145 81.7325C131.083 81.8789 130.988 82.0083 130.868 82.1101C130.748 82.212 130.606 82.2833 130.453 82.3182C130.238 82.3673 130.016 82.384 129.796 82.3676C128.301 82.3394 127.402 82.2688 127.402 82.1489Z" fill="#263238"/>
<path d="M122.559 83.5322C124.783 84.6967 127.153 85.5444 129.602 86.0517C129.065 86.8042 128.294 87.3492 127.415 87.5978C126.535 87.8464 125.599 87.784 124.759 87.4208C121.639 86.0587 122.559 83.5322 122.559 83.5322Z" fill="white"/>
<path d="M127.271 100.455C122.373 100.277 117.639 98.6164 113.669 95.6846C113.669 95.6846 116.52 103.638 127.139 103.257L127.271 100.455Z" fill="#EB996E"/>
<path d="M138.907 55.7331C138.907 55.7331 132.508 59.05 124.033 54.9427C118.498 52.2468 112.016 50.9976 110.618 52.1621C109.221 53.3265 109.034 59.1135 103.61 60.9131C103.61 60.9131 104.198 71.9649 99.8672 71.6544C95.5363 71.3439 97.9162 54.1734 97.9162 54.1734L108.384 48.6969L119.875 46.248L130.771 47.596L139.226 49.7767L138.907 55.7331Z" fill="#263238"/>
<path d="M100.656 68.1047C100.483 68.013 93.4954 65.5005 93.3363 72.9037C93.1772 80.3068 100.49 78.9447 100.504 78.733C100.518 78.5213 100.656 68.1047 100.656 68.1047Z" fill="#FFBE9D"/>
<path d="M98.3452 75.8748C98.3452 75.8748 98.2137 75.9665 97.9992 76.0583C97.6954 76.1842 97.3553 76.1842 97.0514 76.0583C96.2904 75.7548 95.6678 74.4986 95.6678 73.1648C95.6669 72.5289 95.8014 71.9004 96.0621 71.3228C96.1366 71.0936 96.2642 70.886 96.434 70.7177C96.6038 70.5494 96.8108 70.4253 97.0376 70.356C97.184 70.3288 97.3351 70.3505 97.4685 70.4179C97.6018 70.4853 97.7103 70.5947 97.7779 70.73C97.8678 70.9347 97.8194 71.0829 97.854 71.097C97.8885 71.1111 98.0131 70.977 97.9647 70.6735C97.9266 70.4889 97.8292 70.3225 97.6879 70.2007C97.492 70.0436 97.244 69.9702 96.9961 69.996C96.6965 70.0488 96.4152 70.1789 96.179 70.3741C95.9429 70.5694 95.7597 70.8231 95.647 71.1111C95.3275 71.7465 95.1614 72.4506 95.1627 73.1648C95.1627 74.6539 95.8961 76.0724 96.9338 76.4041C97.1279 76.4645 97.3326 76.4806 97.5334 76.4514C97.7343 76.4221 97.9264 76.3481 98.0961 76.2347C98.3452 76.0583 98.3452 75.8889 98.3452 75.8748Z" fill="#EB996E"/>
<path d="M96.9615 44.9354C97.7894 44.6877 98.6736 44.7202 99.4818 45.0281C100.29 45.336 100.979 45.9027 101.445 46.6433C100.8 46.1449 100.104 45.719 99.3691 45.373C98.5837 45.1422 97.7768 44.9955 96.9615 44.9354Z" fill="#263238"/>
<path d="M101.327 40.5037C101.458 40.5037 101.258 42.0633 101.507 43.9123C101.722 45.024 102.063 46.1063 102.524 47.1375C102.524 47.1375 102.219 46.8764 101.915 46.3259C101.524 45.5933 101.267 44.7948 101.154 43.9688C100.952 42.8154 101.012 41.6302 101.327 40.5037Z" fill="#263238"/>
<path d="M131.138 65.543C131.097 65.4583 131.408 65.1972 131.996 64.9572C133.557 64.3414 135.29 64.3591 136.839 65.0066C137.42 65.2607 137.731 65.5218 137.69 65.6065C137.6 65.8041 136.202 65.2466 134.41 65.2466C132.619 65.2466 131.221 65.7617 131.138 65.543Z" fill="#263238"/>
<path d="M114.949 64.0046C114.908 63.9199 115.219 63.6659 115.807 63.4189C116.581 63.1136 117.406 62.9627 118.235 62.9743C119.069 62.9741 119.894 63.142 120.664 63.4683C121.245 63.7223 121.549 63.9834 121.515 64.0752C121.48 64.1669 120.027 63.7153 118.229 63.7082C116.43 63.7011 115.046 64.2022 114.949 64.0046Z" fill="#263238"/>
<path d="M129.886 66.7288C129.901 66.8742 129.901 67.0209 129.886 67.1664C129.886 67.4769 129.886 67.8721 129.92 68.359C129.955 68.846 129.92 69.5023 129.962 70.2081C129.936 71.0225 130.053 71.8352 130.308 72.6075C130.642 73.6094 131.219 74.5085 131.986 75.2207C132.753 75.9329 133.685 76.4349 134.694 76.6796C135.273 76.8239 135.871 76.8763 136.465 76.8349C137.084 76.8065 137.694 76.6754 138.271 76.4467C139.502 75.9763 140.55 75.1123 141.26 73.9837C141.931 72.906 142.269 71.6468 142.228 70.3704C142.228 69.1071 142.228 67.8932 142.228 66.7288L142.394 66.8982L133.4 66.8135L130.792 66.7641H130.1H129.844C130.141 66.7305 130.439 66.7164 130.737 66.7217L133.304 66.6723L142.394 66.5876H142.623V66.7641C142.623 67.9285 142.623 69.1424 142.623 70.4057C142.669 71.7516 142.314 73.0803 141.606 74.2166C140.853 75.4115 139.741 76.3252 138.437 76.8208C137.824 77.0609 137.177 77.1968 136.521 77.223C135.895 77.2609 135.268 77.2014 134.66 77.0466C133.601 76.7857 132.627 76.2513 131.829 75.4949C131.032 74.7384 130.439 73.7854 130.107 72.7275C129.859 71.9203 129.756 71.0739 129.803 70.2292C129.803 69.5235 129.803 68.8672 129.837 68.3308C129.872 67.7944 129.837 67.4628 129.872 67.1522C129.866 67.0109 129.87 66.8693 129.886 66.7288Z" fill="#263238"/>
<path d="M112.929 66.3617C112.929 66.3617 112.929 66.524 112.929 66.7992V67.9919C112.929 68.5141 112.929 69.1352 112.964 69.848C112.945 70.662 113.062 71.4732 113.31 72.2475C113.628 73.1767 114.151 74.0192 114.838 74.7105C115.632 75.4972 116.619 76.0507 117.696 76.3125C118.886 76.605 120.135 76.5238 121.279 76.0796C122.507 75.6097 123.552 74.7484 124.261 73.6236C124.935 72.5467 125.275 71.2874 125.237 70.0103C125.237 68.747 125.237 67.5261 125.237 66.3617L125.403 66.531L116.409 66.4463L113.808 66.404H113.116H112.86C113.154 66.3706 113.45 66.3564 113.745 66.3617L116.312 66.3193L125.403 66.2346H125.569V66.404C125.569 67.5685 125.569 68.7894 125.569 70.0526C125.611 71.399 125.254 72.727 124.545 73.8636C123.793 75.0543 122.684 75.9652 121.383 76.4607C120.77 76.7002 120.123 76.8361 119.467 76.8629C118.839 76.9007 118.209 76.8412 117.599 76.6865C116.468 76.4025 115.435 75.8096 114.61 74.9716C113.897 74.2402 113.361 73.3482 113.047 72.3674C112.798 71.5602 112.695 70.7138 112.742 69.8691C112.742 69.1634 112.742 68.5071 112.784 67.9707C112.825 67.4344 112.784 67.1027 112.784 66.7922C112.809 66.6416 112.858 66.4962 112.929 66.3617Z" fill="#263238"/>
<path d="M130.038 67.2435C128.456 67.488 126.847 67.488 125.264 67.2435C126.846 66.9898 128.457 66.9898 130.038 67.2435Z" fill="#263238"/>
<path d="M99.7289 67.3353C101.928 67.1484 104.136 67.0802 106.343 67.1309C108.551 67.0671 110.761 67.1212 112.964 67.293C110.765 67.4885 108.556 67.5567 106.35 67.4974C104.142 67.5693 101.931 67.5151 99.7289 67.3353Z" fill="#263238"/>
<path d="M187.758 152.665L207.952 154.14C207.952 154.14 204.846 190.591 204.244 196.244C203.642 201.897 200.093 210.422 187.758 210.422C175.422 210.422 173.125 206.139 167.639 197.317C174.108 192.744 184.381 179.088 184.381 179.088L187.758 152.665Z" fill="#15CE73"/>
<path d="M197.277 157.57C197.173 157.878 197.048 158.177 196.904 158.467L195.776 160.894L191.791 169.285L191.59 169.038L196.827 167.451L202.148 165.856L202.535 165.743L202.348 166.103L198.197 174.324L196.973 176.689C196.837 176.977 196.678 177.254 196.495 177.514C196.601 177.212 196.726 176.918 196.869 176.632C197.16 176.025 197.561 175.221 198.004 174.226L202.023 165.947L202.224 166.194L196.91 167.803L191.666 169.37L191.286 169.483L191.466 169.123L195.596 160.817C196.101 159.836 196.509 159.031 196.814 158.431C196.944 158.132 197.099 157.844 197.277 157.57Z" fill="#E0E0E0"/>
<path d="M195.368 192.631C195.058 192.699 194.743 192.741 194.427 192.758L191.798 192.991L182.707 193.697L182.818 193.393L186.803 197.204L190.836 201.086L191.127 201.368H190.726L181.683 201.876L179.068 201.989C178.755 202.017 178.44 202.017 178.127 201.989C178.435 201.927 178.748 201.889 179.061 201.876L181.669 201.657L190.705 201.022L190.601 201.326L186.554 197.451L182.583 193.626L182.292 193.351H182.686L191.784 192.793L194.42 192.659C194.735 192.625 195.052 192.616 195.368 192.631Z" fill="#E0E0E0"/>
<path d="M225.633 151.544C225.892 152.032 226.497 152.218 226.985 151.96C227.473 151.701 227.658 151.096 227.399 150.608L225.633 151.544ZM259.193 80.6537L259.414 81.6293L259.193 80.6537ZM331.038 27.2787C331.463 26.9273 331.523 26.297 331.171 25.8709L325.435 18.9285C325.083 18.5024 324.452 18.442 324.027 18.7935C323.601 19.1449 323.542 19.7752 323.894 20.2012L328.993 26.3723L322.828 31.4634C322.403 31.8149 322.343 32.4452 322.695 32.8712C323.047 33.2972 323.677 33.3577 324.103 33.0062L331.038 27.2787ZM227.399 150.608C222.485 141.344 218.24 126.81 221.326 113.276C222.864 106.532 226.223 100.027 232.248 94.5121C238.279 88.9912 247.03 84.4194 259.414 81.6293L258.972 79.6781C246.331 82.5262 237.24 87.2293 230.897 93.036C224.547 98.8484 220.996 105.724 219.376 112.829C216.146 126.994 220.587 142.032 225.633 151.544L227.399 150.608ZM259.414 81.6293C274.877 78.1452 285.88 80.2303 293.097 84.8501C300.311 89.4681 303.876 96.701 304.333 103.812C304.791 110.946 302.12 117.867 296.975 121.892C291.878 125.88 284.151 127.179 274.139 122.691L273.323 124.516C283.856 129.237 292.404 128.009 298.209 123.468C303.964 118.965 306.821 111.354 306.329 103.687C305.835 95.9962 301.971 88.1573 294.174 83.166C286.379 78.1765 274.788 76.1145 258.972 79.6781L259.414 81.6293ZM274.139 122.691C264.211 118.241 258.512 109.764 256.595 99.5548C254.672 89.3202 256.561 77.3563 261.857 66.1112C272.443 43.6344 296.519 24.263 330.306 27.5028L330.495 25.5119C295.734 22.1788 270.931 42.1468 260.047 65.2571C254.608 76.8055 252.614 89.197 254.629 99.9216C256.648 110.672 262.707 119.757 273.323 124.516L274.139 122.691Z" fill="#15CE73"/>
<path d="M173.976 149.687L151.014 207.614H109.608V210.232H232.941L258.172 149.687H173.976Z" fill="#263238"/>
<path d="M209.08 183.887C208.25 186.802 205.828 188.644 203.67 188.008C201.511 187.373 200.439 184.48 201.269 181.565C202.099 178.65 204.528 176.808 206.686 177.444C208.845 178.079 209.917 180.972 209.08 183.887Z" fill="#FAFAFA"/>
<path d="M13.3238 65.6036L15.6487 58.7006L30.0987 83.928L5.68817 76.2032L13.3238 65.6036Z" fill="#FFC642"/>
<path d="M56.8333 98.3307L41.9553 81.7227L42.7342 89.5707L36.6067 97.7811L56.8333 98.3307Z" fill="#FFC642"/>
</svg>
