<svg width="313" height="219" viewBox="0 0 313 219" fill="none" xmlns="http://www.w3.org/2000/svg">
<path d="M313 217.934C313 218.044 242.924 218.132 156.511 218.132C70.0977 218.132 0 218.059 0 217.934C0 217.81 70.0611 217.729 156.511 217.729C242.961 217.729 313 217.839 313 217.934Z" fill="#263238"/>
<path d="M77.4678 171.405L55.3499 149.185L66.4711 128.759C77.5924 114.517 101.139 115.433 101.139 115.433C112.756 114.643 124.425 115.36 135.858 117.565C154.562 121.228 153.053 133.58 153.053 133.58L155.559 179.42L158.247 216.748L89.2705 218.14L77.4678 171.435" fill="#15CE73"/>
<path d="M114.627 215.956L52.8443 216.689C49.4408 216.728 46.0832 215.902 43.0866 214.288C40.0901 212.674 37.5531 210.324 35.7138 207.46C33.8746 204.596 32.7935 201.312 32.5721 197.915C32.3507 194.519 32.9962 191.122 34.4481 188.043L60.8666 139.052L84.9334 155.317L68.5152 189.362L118.524 190.256L114.627 215.956Z" fill="#15CE73"/>
<path d="M150.87 126.107L200.447 202.652L171.523 204.542C171.523 204.542 154.247 177.325 154.636 177.882C155.324 178.908 150.87 126.107 150.87 126.107Z" fill="#15CE73"/>
<path d="M83.6878 159.72C83.6896 159.585 83.7119 159.452 83.7538 159.324C83.827 159.031 83.9076 158.665 84.0175 158.211C84.2446 157.251 84.5816 155.859 84.926 154.13C85.2703 152.401 85.6586 150.32 85.9004 148.005C86.1979 145.496 86.1979 142.961 85.9004 140.452C85.5029 137.964 84.6351 135.574 83.3435 133.411C82.3055 131.63 81.0772 129.967 79.6804 128.451C78.7388 127.415 77.7358 126.436 76.6766 125.521C76.2728 125.205 75.8864 124.867 75.519 124.51C75.6383 124.569 75.7512 124.64 75.8561 124.722C76.0612 124.876 76.3909 125.089 76.7718 125.404C77.8735 126.273 78.9116 127.221 79.8782 128.239C81.3222 129.743 82.5905 131.407 83.6585 133.199C84.9955 135.395 85.8914 137.832 86.296 140.371C86.5861 142.911 86.5664 145.477 86.2374 148.012C85.9899 150.075 85.6378 152.125 85.1824 154.152C84.8014 155.888 84.4498 157.273 84.1494 158.225C84.0175 158.701 83.9003 159.068 83.8197 159.317C83.7888 159.455 83.7447 159.59 83.6878 159.72Z" fill="#263238"/>
<path d="M81.6951 162.357C81.5893 162.739 81.447 163.109 81.2702 163.464C80.9771 164.196 80.5376 165.178 79.9734 166.394C78.8525 168.878 77.2627 172.292 75.4312 176.028C73.5996 179.765 71.8706 183.113 70.5885 185.552C69.9438 186.754 69.4163 187.75 69.0426 188.388C68.8642 188.743 68.6585 189.083 68.4272 189.406C68.5588 189.032 68.7205 188.669 68.9108 188.322C69.2844 187.589 69.768 186.607 70.376 185.428L75.1161 175.904C76.9111 172.189 78.5448 168.834 79.761 166.321C80.3324 165.141 80.8013 164.16 81.1676 163.39C81.3142 163.032 81.4907 162.686 81.6951 162.357Z" fill="#263238"/>
<path d="M114.627 215.956C114.627 215.956 114.627 215.913 114.627 215.832C114.627 215.751 114.627 215.605 114.627 215.451C114.663 215.099 114.715 214.608 114.773 213.986C114.92 212.682 115.125 210.828 115.381 208.491C115.923 203.751 116.7 197.084 117.579 189.223L117.755 189.413H99.5053L67.6287 189.362L57.958 189.304L55.3279 189.267H54.6392H54.4048C54.4827 189.258 54.5614 189.258 54.6392 189.267H55.3279L57.958 189.23L67.6287 189.172L99.5566 189.12H117.806H118.004V189.311C117.037 197.165 116.224 203.831 115.638 208.564C115.345 210.894 115.103 212.748 114.905 214.052C114.827 214.667 114.761 215.155 114.707 215.517L114.649 215.891C114.641 215.912 114.634 215.956 114.627 215.956Z" fill="#263238"/>
<path d="M68.9474 189.904C68.5049 189.415 68.0938 188.899 67.7166 188.358C65.7421 185.88 63.2971 183.816 60.5222 182.285C59.9296 181.998 59.3524 181.68 58.7932 181.333C59.4435 181.485 60.068 181.732 60.6468 182.065C63.5369 183.493 66.0362 185.603 67.9291 188.212C68.345 188.726 68.6877 189.296 68.9474 189.904Z" fill="#263238"/>
<path d="M156.584 194.754C156.531 194.545 156.496 194.332 156.482 194.117C156.431 193.67 156.365 193.062 156.277 192.292C156.108 190.71 155.881 188.417 155.639 185.582C155.134 179.904 154.555 172.05 154.042 163.376C153.529 154.701 153.17 146.833 152.965 141.141C152.863 138.291 152.789 136.012 152.76 134.393C152.76 133.624 152.76 133.016 152.723 132.561C152.712 132.349 152.712 132.136 152.723 131.924C152.764 132.134 152.786 132.347 152.789 132.561C152.789 133.008 152.848 133.624 152.892 134.393C152.973 136.019 153.082 138.313 153.222 141.126C153.493 146.818 153.896 154.672 154.408 163.354C154.921 172.035 155.463 179.874 155.874 185.56C156.094 188.366 156.269 190.688 156.394 192.285C156.453 193.018 156.496 193.663 156.533 194.109C156.57 194.322 156.587 194.538 156.584 194.754Z" fill="#263238"/>
<path d="M101.432 153.104C101.435 152.768 101.462 152.433 101.513 152.101C101.601 151.405 101.711 150.474 101.85 149.331C102.172 146.914 102.582 143.602 103.125 139.763L103.403 139.939L98.6628 143.258L93.8421 146.613L93.4978 146.855L93.5564 146.438C94.1425 142.635 94.6407 139.353 95.0217 136.913C95.2122 135.792 95.3587 134.869 95.4759 134.181C95.5152 133.85 95.5839 133.524 95.681 133.206C95.6815 133.54 95.6521 133.874 95.5931 134.203C95.5052 134.891 95.3953 135.814 95.2488 136.95C94.9191 139.353 94.4575 142.643 93.93 146.474L93.6516 146.298L98.465 142.928L103.212 139.624L103.557 139.382L103.498 139.8C102.934 143.624 102.443 146.936 102.092 149.324C101.908 150.46 101.762 151.39 101.652 152.079C101.609 152.427 101.536 152.77 101.432 153.104Z" fill="#E0E0E0"/>
<path d="M129.008 156.071C128.744 155.861 128.499 155.628 128.276 155.375C127.799 154.863 127.155 154.181 126.363 153.346L119.821 146.254L120.136 146.144C119.982 147.939 119.821 149.888 119.653 151.91C119.484 153.932 119.308 155.94 119.154 157.771L119.118 158.196L118.839 157.881L112.473 150.701L110.656 148.606C110.425 148.366 110.219 148.104 110.041 147.822C110.304 148.046 110.549 148.291 110.773 148.555L112.663 150.577L119.125 157.661L118.81 157.771C118.964 155.947 119.125 153.969 119.301 151.91C119.477 149.851 119.638 147.939 119.792 146.144L119.828 145.727L120.107 146.034L126.554 153.222L128.393 155.324C128.617 155.557 128.823 155.807 129.008 156.071Z" fill="#E0E0E0"/>
<path d="M142.884 155.09C142.748 155.399 142.581 155.693 142.386 155.969L140.921 158.328L135.69 166.446L135.514 166.167L141.199 165.185L146.987 164.211L147.404 164.138L147.207 164.453L141.858 172.409L140.247 174.71C140.068 174.991 139.867 175.258 139.646 175.508C139.79 175.208 139.957 174.919 140.144 174.644L141.609 172.299L146.848 164.24L147.031 164.519L141.243 165.522L135.536 166.49L135.118 166.555L135.353 166.211L140.693 158.152L142.261 155.844C142.454 155.581 142.662 155.329 142.884 155.09Z" fill="#E0E0E0"/>
<path d="M124.429 169.288C124.292 169.594 124.125 169.886 123.931 170.16L122.466 172.526L117.242 180.636L117.059 180.358L122.759 179.376L128.554 178.395L128.972 178.329L128.73 178.673L123.382 186.637L121.807 188.922C121.632 189.205 121.431 189.469 121.206 189.714C121.352 189.415 121.519 189.126 121.704 188.849C122.085 188.263 122.583 187.479 123.169 186.512L128.408 178.453L128.591 178.732L122.803 179.735L117.096 180.695L116.678 180.768L116.913 180.417L122.254 172.358C122.898 171.405 123.426 170.629 123.829 170.05C124.01 169.782 124.211 169.527 124.429 169.288Z" fill="#E0E0E0"/>
<path d="M164.306 154.928C164.161 155.23 163.994 155.522 163.808 155.8L162.343 158.167L157.119 166.277L156.936 165.998L162.636 165.017L168.431 164.035L168.848 163.969L168.614 164.313L163.258 172.277C162.614 173.215 162.086 173.984 161.683 174.556C161.51 174.841 161.309 175.108 161.083 175.354C161.23 175.054 161.399 174.765 161.588 174.49L163.053 172.153L168.292 164.094L168.475 164.372L162.687 165.368L156.98 166.335L156.57 166.409L156.797 166.057L162.138 157.998L163.713 155.69C163.885 155.418 164.084 155.163 164.306 154.928Z" fill="#E0E0E0"/>
<path d="M187.311 191.809C187.049 191.61 186.804 191.389 186.578 191.15L184.571 189.215L177.677 182.461L177.984 182.336C177.926 184.138 177.867 186.087 177.801 188.116C177.735 190.146 177.655 192.161 177.589 193.977V194.402L177.288 194.102L170.577 187.252L168.658 185.252C168.419 185.025 168.199 184.78 167.999 184.519C168.259 184.72 168.504 184.94 168.731 185.179L170.724 187.105L177.537 193.86L177.222 193.985C177.281 192.153 177.347 190.175 177.413 188.124C177.479 186.072 177.559 184.146 177.625 182.343V181.926L177.918 182.219L184.71 189.076L186.651 191.084C186.891 191.307 187.111 191.549 187.311 191.809Z" fill="#E0E0E0"/>
<path d="M70.9328 143.163C70.7895 143.466 70.6229 143.757 70.4346 144.034L68.9694 146.401L63.7458 154.518L63.5626 154.24L69.2624 153.251L75.0575 152.276L75.4751 152.203L75.2407 152.555L69.8852 160.511L68.3174 162.797C68.1394 163.077 67.9384 163.342 67.7166 163.588C67.857 163.288 68.0237 163.001 68.2148 162.731L69.68 160.387C71.0061 158.357 72.823 155.573 74.9183 152.328L75.1015 152.606L69.3137 153.61L63.6066 154.577L63.1963 154.643L63.4234 154.299C65.57 151.075 67.4162 148.291 68.7642 146.24L70.3394 143.932C70.5166 143.66 70.7151 143.403 70.9328 143.163Z" fill="#E0E0E0"/>
<path d="M41.9648 197.948C42.2117 198.171 42.4373 198.417 42.6389 198.681L44.4265 200.828L50.4999 208.322L50.1776 208.41C50.4413 206.63 50.7197 204.696 51.0201 202.681C51.3205 200.666 51.6135 198.681 51.8846 196.871L51.9432 196.454L52.207 196.791L58.1119 204.352L59.7896 206.549C60.0028 206.804 60.194 207.076 60.3611 207.363C60.1205 207.136 59.8976 206.891 59.6944 206.63L57.9361 204.491L51.9652 197.011L52.2876 196.93C52.0238 198.74 51.7381 200.703 51.4377 202.74C51.1373 204.777 50.8516 206.681 50.5805 208.462L50.5219 208.879L50.2582 208.55L44.2799 200.974L42.5729 198.776C42.3519 198.514 42.1487 198.238 41.9648 197.948Z" fill="#E0E0E0"/>
<path d="M108.121 162.475C107.793 162.545 107.46 162.589 107.125 162.606L104.341 162.848L94.714 163.581L94.8312 163.273L99.0512 167.229L103.322 171.259L103.63 171.552H103.205L93.6297 172.079L90.8604 172.197C90.5289 172.225 90.1955 172.225 89.864 172.197C90.1902 172.131 90.5208 172.089 90.8531 172.072L93.6151 171.852L103.183 171.193L103.073 171.501L98.7874 167.486L94.5821 163.515L94.2744 163.222H94.692L104.326 162.643L107.11 162.504C107.446 162.469 107.784 162.459 108.121 162.475Z" fill="#E0E0E0"/>
<path d="M91.886 199.399C92.1304 199.629 92.3604 199.873 92.5746 200.132L94.3989 202.241L100.634 209.612L100.311 209.7C100.538 207.912 100.787 205.978 101.044 203.963C101.3 201.948 101.564 199.948 101.776 198.139L101.835 197.714L102.099 198.044L108.165 205.48L109.887 207.678C110.1 207.933 110.296 208.202 110.473 208.483C110.226 208.259 109.998 208.014 109.791 207.751L107.989 205.648L101.835 198.322L102.15 198.227C101.923 200.044 101.674 202.007 101.417 204.051C101.161 206.095 100.905 208.007 100.685 209.795L100.626 210.212L100.362 209.89L94.2304 202.432L92.4867 200.234C92.2595 199.976 92.0582 199.696 91.886 199.399Z" fill="#E0E0E0"/>
<path d="M62.8667 172.321C62.5388 172.393 62.2055 172.437 61.8703 172.453L59.0936 172.687L49.4669 173.42L49.5768 173.105L53.8041 177.069L58.0753 181.098L58.383 181.391H57.9581L48.3826 181.919L45.6133 182.036C45.2891 182.063 44.9631 182.063 44.6389 182.036C44.9644 181.966 45.2953 181.924 45.628 181.911L48.39 181.691L57.9581 181.025L57.8482 181.34L53.5623 177.325L49.3497 173.354L49.0493 173.061H49.4669L59.101 172.475L61.8849 172.343C62.2112 172.311 62.5393 172.304 62.8667 172.321Z" fill="#E0E0E0"/>
<path d="M87.7978 198.571C87.4698 198.641 87.1365 198.682 86.8014 198.696L84.0175 198.937L74.3908 199.67L74.508 199.355L78.7279 203.318L82.9991 207.348L83.3068 207.641H82.8892L73.3065 208.161L70.5371 208.286C70.2056 208.314 69.8723 208.314 69.5408 208.286C69.8662 208.216 70.1971 208.174 70.5298 208.161L73.2918 207.941L82.8599 207.275L82.75 207.59L78.4642 203.575L74.2589 199.619L73.9512 199.333H74.3688L84.0028 198.747L86.7941 198.615C87.1267 198.57 87.4626 198.555 87.7978 198.571Z" fill="#E0E0E0"/>
<path d="M144.071 131.785C143.743 131.855 143.41 131.899 143.075 131.917L140.291 132.151L130.671 132.884L130.781 132.576L135.001 136.532L139.272 140.562L139.58 140.855H139.162L129.58 141.382L126.81 141.5C126.479 141.528 126.145 141.528 125.814 141.5C126.139 141.429 126.47 141.388 126.803 141.375L129.565 141.155L139.14 140.496L139.023 140.804L134.752 136.796L130.547 132.825L130.239 132.532H130.657L140.291 131.946L143.082 131.814C143.41 131.78 143.741 131.77 144.071 131.785Z" fill="#E0E0E0"/>
<path d="M116.7 198.571C116.7 198.571 129.023 195.018 133.104 193.978C134.693 193.575 141.5 197.165 146.203 200.154C146.203 200.154 152.679 203.993 152.159 205.172C151.581 206.476 149.229 206.213 145.382 204.44C145.382 204.44 146.716 208.301 144.1 208.213C144.1 208.213 145.397 212.389 142.95 212.821C140.503 213.253 139.932 207.927 137.778 207.641C135.624 207.355 131.184 207.062 131.184 207.062C131.184 207.062 127.47 213.216 124.591 213.656C121.711 214.096 115.066 213.312 115.066 213.312L116.7 198.571Z" fill="#FFBE9D"/>
<path d="M137.734 199.421C138.94 199.958 140.093 200.608 141.177 201.362C142.327 202.013 143.412 202.774 144.415 203.634C142.056 202.452 139.818 201.041 137.734 199.421Z" fill="#EB996E"/>
<path d="M137.009 201.817C138.416 202.26 139.784 202.821 141.097 203.494C142.454 204.046 143.762 204.71 145.009 205.48C143.601 205.042 142.233 204.483 140.921 203.809C139.561 203.261 138.252 202.594 137.009 201.817Z" fill="#EB996E"/>
<path d="M138.327 207.538C140.188 207.532 142.042 207.778 143.836 208.271C141.975 208.276 140.122 208.03 138.327 207.538Z" fill="#EB996E"/>
<path d="M100.663 71.409C100.808 71.8838 100.81 72.3907 100.669 72.8666C100.528 73.3426 100.25 73.7664 99.869 74.0852C99.4885 74.404 99.0225 74.6037 98.5292 74.6593C98.0359 74.715 97.5372 74.6241 97.0952 74.3981C95.4248 73.5556 95.2123 71.2478 95.542 69.409C95.8717 67.5701 96.4944 65.5993 95.7252 63.8923C95.1317 62.5882 93.8496 61.7603 92.8533 60.7346C91.974 59.8431 91.3133 58.76 90.9231 57.5702C90.5329 56.3804 90.4237 55.1164 90.6041 53.8773C90.8153 52.6419 91.3634 51.4888 92.1882 50.5451C93.0129 49.6014 94.0823 48.9038 95.2783 48.5291C97.7325 47.8478 100.758 48.6024 102.605 46.8221C103.931 45.5327 104.011 43.43 105.037 41.8915C106.627 39.5031 109.989 39.1222 112.832 39.5105C115.675 39.8988 118.561 40.8145 121.345 40.1185C123.668 39.5398 125.572 37.9207 127.756 36.9243C130.135 35.8366 132.795 35.5198 135.363 36.0181C137.932 36.5164 140.28 37.8049 142.08 39.7035C143.88 41.602 145.042 44.0157 145.403 46.6069C145.764 49.1982 145.306 51.8375 144.093 54.1557C143.285 55.8521 141.908 57.2127 140.203 58.002" fill="#263238"/>
<path d="M114.803 131.931C116.671 131.928 118.52 131.553 120.242 130.83C121.965 130.106 123.526 129.048 124.837 127.716C126.147 126.385 127.18 124.806 127.876 123.072C128.572 121.339 128.917 119.484 128.891 117.616L128.708 104.15C128.708 104.15 140.02 103.014 140.767 91.8053C141.514 80.5961 140.979 54.7271 140.979 54.7271C134.755 51.6393 127.82 50.2675 120.889 50.753C113.958 51.2385 107.282 53.5638 101.549 57.4891L99.8203 58.6833L100.663 117.982C100.707 121.701 102.217 125.252 104.865 127.864C107.512 130.476 111.083 131.937 114.803 131.931Z" fill="#FFBE9D"/>
<path d="M138.019 75.0721C137.61 75.0251 137.233 74.8292 136.959 74.5219C136.685 74.2146 136.533 73.8172 136.533 73.4054C136.533 72.9937 136.685 72.5963 136.959 72.2889C137.233 71.9816 137.61 71.7857 138.019 71.7387C138.108 71.7167 138.202 71.7167 138.291 71.7387C138.7 71.7857 139.077 71.9816 139.351 72.2889C139.625 72.5963 139.777 72.9937 139.777 73.4054C139.777 73.8172 139.625 74.2146 139.351 74.5219C139.077 74.8292 138.7 75.0251 138.291 75.0721C138.201 75.0868 138.109 75.0868 138.019 75.0721Z" fill="#263238"/>
<path d="M140.217 71.4531C140.034 71.6436 138.979 70.7205 137.433 70.6399C135.888 70.5593 134.723 71.2846 134.569 71.0795C134.415 70.8743 134.679 70.6472 135.192 70.3029C135.877 69.8631 136.685 69.655 137.498 69.7091C138.31 69.7632 139.084 70.0766 139.704 70.6032C140.166 71.0135 140.313 71.4091 140.217 71.4531Z" fill="#263238"/>
<path d="M122.349 71.834C122.614 72.018 122.82 72.2767 122.938 72.5775C123.057 72.8782 123.084 73.2073 123.015 73.5233C122.947 73.8392 122.786 74.1277 122.554 74.3523C122.321 74.5769 122.027 74.7275 121.709 74.785C121.391 74.8424 121.063 74.8042 120.767 74.6752C120.47 74.5461 120.219 74.3321 120.044 74.06C119.869 73.788 119.779 73.4703 119.785 73.1471C119.791 72.8238 119.893 72.5096 120.078 72.2442C120.325 71.8891 120.702 71.6464 121.128 71.5695C121.554 71.4926 121.993 71.5877 122.349 71.834Z" fill="#263238"/>
<path d="M123.367 71.8999C123.176 72.0904 122.121 71.1672 120.583 71.0867C119.044 71.0061 117.872 71.7314 117.711 71.5262C117.63 71.431 117.828 71.094 118.334 70.7497C119.019 70.3099 119.827 70.1018 120.64 70.1559C121.452 70.2099 122.226 70.5234 122.847 71.05C123.308 71.4603 123.455 71.8193 123.367 71.8999Z" fill="#263238"/>
<path d="M128.891 84.9846C128.891 84.8674 129.851 84.7208 131.418 84.589C131.821 84.589 132.151 84.4937 132.188 84.2813C132.217 83.8773 132.139 83.4728 131.961 83.1091C131.616 82.0614 131.272 81.0064 130.906 79.9002C129.44 75.3359 128.481 71.5775 128.708 71.5043C128.935 71.431 130.298 75.0721 131.741 79.6364C132.078 80.75 132.408 81.8343 132.723 82.86C132.955 83.3933 133.002 83.9894 132.854 84.5523C132.789 84.7044 132.689 84.8387 132.561 84.9444C132.434 85.0501 132.283 85.1241 132.122 85.1604C131.894 85.2114 131.659 85.2287 131.426 85.2117C129.843 85.1824 128.891 85.1091 128.891 84.9846Z" fill="#263238"/>
<path d="M123.763 86.4207C126.117 87.6295 128.627 88.5095 131.221 89.0361C130.652 89.8173 129.836 90.383 128.904 90.6411C127.973 90.8992 126.982 90.8344 126.092 90.4574C122.788 89.0435 123.763 86.4207 123.763 86.4207Z" fill="white"/>
<path d="M128.752 103.989C123.566 103.804 118.552 102.08 114.348 99.0364C114.348 99.0364 117.367 107.293 128.613 106.897L128.752 103.989Z" fill="#EB996E"/>
<path d="M141.075 57.5626C141.075 57.5626 134.298 61.0059 125.323 56.742C119.462 53.9434 112.597 52.6466 111.118 53.8555C109.638 55.0643 109.44 61.0718 103.696 62.94C103.696 62.94 104.319 74.413 99.7325 74.0906C95.1463 73.7683 97.6665 55.9435 97.6665 55.9435L108.751 50.2583L120.92 47.7161L132.459 49.1154L141.412 51.3792L141.075 57.5626Z" fill="#263238"/>
<path d="M100.568 70.4054C100.384 70.3101 92.9849 67.702 92.8164 75.3872C92.6479 83.0725 100.392 81.6585 100.406 81.4387C100.421 81.2189 100.568 70.4054 100.568 70.4054Z" fill="#FFBE9D"/>
<path d="M98.1206 78.4716C98.1206 78.4716 97.9814 78.5668 97.7543 78.662C97.4325 78.7928 97.0724 78.7928 96.7506 78.662C95.9447 78.347 95.2853 77.0429 95.2853 75.6583C95.2844 74.9982 95.4269 74.3457 95.7029 73.7461C95.7818 73.5081 95.9169 73.2927 96.0967 73.118C96.2765 72.9433 96.4958 72.8144 96.7359 72.7424C96.891 72.7142 97.051 72.7368 97.1922 72.8067C97.3334 72.8767 97.4483 72.9903 97.5198 73.1307C97.6151 73.3432 97.5638 73.497 97.6004 73.5117C97.637 73.5263 97.7689 73.3871 97.7176 73.0721C97.6774 72.8804 97.5742 72.7077 97.4246 72.5813C97.2171 72.4182 96.9545 72.342 96.692 72.3688C96.3747 72.4235 96.0769 72.5587 95.8267 72.7613C95.5766 72.964 95.3827 73.2274 95.2633 73.5263C94.925 74.186 94.7491 74.9169 94.7505 75.6583C94.7505 77.2041 95.5271 78.6767 96.626 79.021C96.8315 79.0838 97.0483 79.1005 97.261 79.0701C97.4737 79.0398 97.6771 78.963 97.8568 78.8452C98.1206 78.662 98.1206 78.4862 98.1206 78.4716Z" fill="#EB996E"/>
<path d="M96.6553 46.3533C97.5319 46.0961 98.4683 46.1299 99.3241 46.4495C100.18 46.7691 100.909 47.3574 101.403 48.1263C100.72 47.6089 99.9827 47.1668 99.2048 46.8075C98.3731 46.5679 97.5186 46.4157 96.6553 46.3533Z" fill="#263238"/>
<path d="M101.278 41.7524C101.418 41.7524 101.205 43.3715 101.469 45.291C101.697 46.445 102.058 47.5686 102.546 48.6391C102.546 48.6391 102.223 48.3681 101.901 47.7966C101.487 47.0361 101.214 46.2071 101.095 45.3496C100.882 44.1522 100.944 42.922 101.278 41.7524Z" fill="#263238"/>
<path d="M132.847 67.746C132.803 67.6581 133.133 67.387 133.756 67.1379C135.409 66.4986 137.244 66.517 138.884 67.1892C139.499 67.4529 139.829 67.724 139.785 67.8119C139.69 68.0171 138.21 67.4383 136.312 67.4383C134.415 67.4383 132.935 67.9731 132.847 67.746Z" fill="#263238"/>
<path d="M115.704 66.1489C115.66 66.061 115.99 65.7972 116.612 65.5408C117.432 65.2239 118.305 65.0673 119.184 65.0793C120.066 65.0791 120.94 65.2533 121.755 65.5921C122.371 65.8558 122.693 66.1269 122.656 66.2221C122.62 66.3174 121.081 65.8485 119.176 65.8412C117.272 65.8339 115.806 66.354 115.704 66.1489Z" fill="#263238"/>
<path d="M131.521 68.9768C131.537 69.1278 131.537 69.2801 131.521 69.4311C131.521 69.7534 131.521 70.1637 131.558 70.6692C131.594 71.1747 131.558 71.8561 131.602 72.5887C131.574 73.4342 131.698 74.2778 131.968 75.0796C132.321 76.1197 132.933 77.0531 133.745 77.7924C134.557 78.5318 135.544 79.0528 136.613 79.3069C137.226 79.4567 137.859 79.5111 138.488 79.4681C139.143 79.4386 139.789 79.3025 140.401 79.0651C141.704 78.5768 142.814 77.6798 143.565 76.5083C144.277 75.3895 144.634 74.0822 144.591 72.7572C144.591 71.4458 144.591 70.1857 144.591 68.9768L144.767 69.1527L135.243 69.0648L132.481 69.0135H131.748H131.477C131.791 68.9786 132.107 68.9639 132.422 68.9695L135.14 68.9182L144.767 68.8303H145.009V69.0135C145.009 70.2223 145.009 71.4824 145.009 72.7938C145.058 74.1911 144.682 75.5705 143.932 76.75C143.135 77.9904 141.958 78.939 140.576 79.4534C139.927 79.7027 139.242 79.8438 138.547 79.871C137.885 79.9104 137.22 79.8486 136.576 79.6879C135.455 79.417 134.423 78.8622 133.579 78.077C132.735 77.2917 132.107 76.3024 131.756 75.2042C131.492 74.3662 131.383 73.4875 131.433 72.6107C131.433 71.8781 131.433 71.1967 131.47 70.6399C131.506 70.0831 131.47 69.7388 131.506 69.4164C131.5 69.2697 131.504 69.1227 131.521 68.9768Z" fill="#263238"/>
<path d="M113.565 68.5957C113.565 68.5957 113.565 68.7642 113.565 69.05V70.2881C113.565 70.8303 113.565 71.475 113.601 72.2149C113.582 73.0599 113.706 73.9021 113.968 74.7058C114.305 75.6705 114.859 76.5452 115.587 77.2627C116.427 78.0795 117.472 78.6541 118.612 78.9258C119.873 79.2295 121.196 79.1452 122.407 78.684C123.707 78.1962 124.814 77.3021 125.565 76.1345C126.279 75.0165 126.639 73.7092 126.598 72.3834C126.598 71.072 126.598 69.8046 126.598 68.5957L126.774 68.7716L117.25 68.6837L114.495 68.6397H113.762H113.491C113.803 68.605 114.116 68.5903 114.429 68.5957L117.147 68.5518L126.774 68.4639H126.95V68.6397C126.95 69.8485 126.95 71.116 126.95 72.4274C126.994 73.8251 126.616 75.2037 125.865 76.3836C125.069 77.6196 123.895 78.5653 122.517 79.0796C121.868 79.3283 121.183 79.4694 120.488 79.4972C119.823 79.5364 119.156 79.4747 118.51 79.3141C117.313 79.0193 116.218 78.4038 115.345 77.5338C114.589 76.7745 114.022 75.8486 113.689 74.8304C113.426 73.9924 113.317 73.1138 113.367 72.2369C113.367 71.5043 113.367 70.8229 113.411 70.2661C113.455 69.7093 113.411 69.365 113.411 69.0426C113.437 68.8863 113.489 68.7354 113.565 68.5957Z" fill="#263238"/>
<path d="M131.682 69.5115C130.007 69.7657 128.303 69.7657 126.627 69.5115C128.302 69.2478 130.008 69.2478 131.682 69.5115Z" fill="#263238"/>
<path d="M99.5859 69.6068C101.915 69.4126 104.253 69.3417 106.59 69.3943C108.928 69.328 111.269 69.3843 113.601 69.5628C111.272 69.7661 108.934 69.8371 106.597 69.7753C104.259 69.8501 101.918 69.7938 99.5859 69.6068Z" fill="#263238"/>
<path d="M192.805 158.189L214.191 159.72C214.191 159.72 210.901 197.56 210.264 203.428C209.626 209.297 205.868 218.147 192.805 218.147C179.743 218.147 177.31 213.7 171.5 204.542C178.351 199.795 189.23 185.618 189.23 185.618L192.805 158.189Z" fill="#15CE73"/>
<path d="M202.886 163.281C202.776 163.6 202.644 163.91 202.49 164.211L201.296 166.731L197.076 175.442L196.864 175.186L202.41 173.537L208.044 171.882L208.454 171.764L208.256 172.138L203.86 180.673L202.564 183.127C202.42 183.427 202.251 183.714 202.058 183.985C202.17 183.671 202.302 183.365 202.454 183.069C202.762 182.439 203.186 181.604 203.655 180.571L207.912 171.977L208.124 172.233L202.498 173.904L196.944 175.53L196.542 175.647L196.732 175.274L201.106 166.651C201.641 165.632 202.073 164.797 202.395 164.174C202.533 163.863 202.698 163.564 202.886 163.281Z" fill="#E0E0E0"/>
<path d="M200.864 199.677C200.536 199.748 200.203 199.792 199.868 199.809L197.084 200.051L187.457 200.784L187.574 200.469L191.794 204.425L196.066 208.454L196.373 208.747H195.948L186.373 209.275L183.604 209.392C183.272 209.421 182.939 209.421 182.607 209.392C182.933 209.327 183.264 209.288 183.596 209.275L186.358 209.048L195.926 208.388L195.816 208.703L191.531 204.681L187.325 200.71L187.018 200.425H187.435L197.069 199.846L199.861 199.707C200.194 199.671 200.529 199.662 200.864 199.677Z" fill="#E0E0E0"/>
<path d="M178.211 155.097L153.896 215.231H110.048V217.949H240.653L267.372 155.097H178.211Z" fill="#263238"/>
<path d="M215.385 190.6C214.506 193.626 211.942 195.538 209.656 194.879C207.37 194.219 206.234 191.216 207.114 188.19C207.993 185.164 210.564 183.252 212.85 183.911C215.136 184.571 216.271 187.574 215.385 190.6Z" fill="#FAFAFA"/>
</svg>
