<svg width="115" height="115" viewBox="0 0 115 115" fill="none" xmlns="http://www.w3.org/2000/svg">
<path d="M58.2666 52.0853C57.7875 52.0374 57.2125 52.0374 56.6854 52.0853C45.2812 51.702 36.225 42.3583 36.225 30.8583C36.225 19.1187 45.7125 9.58325 57.5 9.58325C69.2396 9.58325 78.775 19.1187 78.775 30.8583C78.7271 42.3583 69.6708 51.702 58.2666 52.0853Z" stroke="#15CE73" stroke-width="3" stroke-linecap="round" stroke-linejoin="round"/>
<path d="M34.3082 69.7667C22.7124 77.5292 22.7124 90.1792 34.3082 97.8938C47.4853 106.71 69.0957 106.71 82.2728 97.8938C93.8686 90.1313 93.8686 77.4813 82.2728 69.7667C69.1436 60.998 47.5332 60.998 34.3082 69.7667Z" stroke="#15CE73" stroke-width="3" stroke-linecap="round" stroke-linejoin="round"/>
</svg>
